# MagicaVoxel @ Ephtracy

# group
o 

# material
mtllib candy.mtl
usemtl palette

# normals
vn -1 0 0
vn 1 0 0
vn 0 0 1
vn 0 0 -1
vn 0 -1 0
vn 0 1 0

# texcoords
vt 0.798828 0.5
vt 0.806641 0.5
vt 0.822266 0.5
vt 0.943359 0.5
vt 0.966797 0.5

# verts
v -0.1 2.1 -0.6
v -0.1 2.1 -0.7
v -0.1 2.1 -0.9
v -0.1 2.1 -1
v -0.1 2.2 -0.6
v -0.1 2.2 -0.7
v -0.1 2.2 -0.9
v -0.1 2.2 -1
v -0.1 2.4 -0.6
v -0.1 2.4 -0.7
v -0.1 2.4 -0.9
v -0.1 2.4 -1
v -0.1 2.5 -0.6
v -0.1 2.5 -0.7
v -0.1 2.5 -0.9
v -0.1 2.5 -1
v -4.47035e-08 2.1 -0.7
v -4.47035e-08 2.1 -0.9
v -4.47035e-08 2.2 -0.6
v -4.47035e-08 2.2 -0.7
v -4.47035e-08 2.2 -0.9
v -4.47035e-08 2.2 -1
v -4.47035e-08 2.4 -0.6
v -4.47035e-08 2.4 -0.7
v -4.47035e-08 2.4 -0.9
v -4.47035e-08 2.4 -1
v -4.47035e-08 2.5 -0.7
v -4.47035e-08 2.5 -0.9
v 0.1 2.1 -0.6
v 0.1 2.1 -0.7
v 0.1 2.1 -0.9
v 0.1 2.1 -1
v 0.1 2.2 -0.6
v 0.1 2.2 -0.7
v 0.1 2.2 -0.9
v 0.1 2.2 -1
v 0.1 2.4 -0.6
v 0.1 2.4 -0.7
v 0.1 2.4 -0.9
v 0.1 2.4 -1
v 0.1 2.5 -0.6
v 0.1 2.5 -0.7
v 0.1 2.5 -0.9
v 0.1 2.5 -1
v 1.2 2.1 -0.6
v 1.2 2.1 -0.7
v 1.2 2.1 -0.9
v 1.2 2.1 -1
v 1.2 2.2 -0.6
v 1.2 2.2 -0.7
v 1.2 2.2 -0.9
v 1.2 2.2 -1
v 1.2 2.4 -0.6
v 1.2 2.4 -0.7
v 1.2 2.4 -0.9
v 1.2 2.4 -1
v 1.2 2.5 -0.6
v 1.2 2.5 -0.7
v 1.2 2.5 -0.9
v 1.2 2.5 -1
v -4.47035e-08 2.1 -0.6
v -4.47035e-08 2.1 -0.7
v -4.47035e-08 2.1 -0.9
v -4.47035e-08 2.1 -1
v -4.47035e-08 2.2 -0.6
v -4.47035e-08 2.2 -0.7
v -4.47035e-08 2.2 -0.9
v -4.47035e-08 2.2 -1
v -4.47035e-08 2.4 -0.6
v -4.47035e-08 2.4 -0.7
v -4.47035e-08 2.4 -0.9
v -4.47035e-08 2.4 -1
v -4.47035e-08 2.5 -0.6
v -4.47035e-08 2.5 -0.7
v -4.47035e-08 2.5 -0.9
v -4.47035e-08 2.5 -1
v 1.1 2.1 -0.6
v 1.1 2.1 -0.7
v 1.1 2.1 -0.9
v 1.1 2.1 -1
v 1.1 2.2 -0.6
v 1.1 2.2 -0.7
v 1.1 2.2 -0.9
v 1.1 2.2 -1
v 1.1 2.4 -0.6
v 1.1 2.4 -0.7
v 1.1 2.4 -0.9
v 1.1 2.4 -1
v 1.1 2.5 -0.6
v 1.1 2.5 -0.7
v 1.1 2.5 -0.9
v 1.1 2.5 -1
v 1.2 2.1 -0.7
v 1.2 2.1 -0.9
v 1.2 2.2 -0.6
v 1.2 2.2 -0.7
v 1.2 2.2 -0.9
v 1.2 2.2 -1
v 1.2 2.4 -0.6
v 1.2 2.4 -0.7
v 1.2 2.4 -0.9
v 1.2 2.4 -1
v 1.2 2.5 -0.7
v 1.2 2.5 -0.9
v 1.3 2.1 -0.6
v 1.3 2.1 -0.7
v 1.3 2.1 -0.9
v 1.3 2.1 -1
v 1.3 2.2 -0.6
v 1.3 2.2 -0.7
v 1.3 2.2 -0.9
v 1.3 2.2 -1
v 1.3 2.4 -0.6
v 1.3 2.4 -0.7
v 1.3 2.4 -0.9
v 1.3 2.4 -1
v 1.3 2.5 -0.6
v 1.3 2.5 -0.7
v 1.3 2.5 -0.9
v 1.3 2.5 -1
v -0.1 2.1 -0.6
v -0.1 2.2 -0.6
v -0.1 2.4 -0.6
v -0.1 2.5 -0.6
v -4.47035e-08 2.1 -0.6
v -4.47035e-08 2.2 -0.6
v -4.47035e-08 2.4 -0.6
v -4.47035e-08 2.5 -0.6
v 0.1 2.1 -0.6
v 0.1 2.2 -0.6
v 0.1 2.4 -0.6
v 0.1 2.5 -0.6
v 1.1 2.1 -0.6
v 1.1 2.2 -0.6
v 1.1 2.4 -0.6
v 1.1 2.5 -0.6
v 1.2 2.1 -0.6
v 1.2 2.2 -0.6
v 1.2 2.4 -0.6
v 1.2 2.5 -0.6
v 1.3 2.1 -0.6
v 1.3 2.2 -0.6
v 1.3 2.4 -0.6
v 1.3 2.5 -0.6
v -0.1 2.2 -0.7
v -0.1 2.4 -0.7
v -4.47035e-08 2.1 -0.7
v -4.47035e-08 2.2 -0.7
v -4.47035e-08 2.4 -0.7
v -4.47035e-08 2.5 -0.7
v 0.1 2.1 -0.7
v 0.1 2.2 -0.7
v 0.1 2.4 -0.7
v 0.1 2.5 -0.7
v 1.1 2.1 -0.7
v 1.1 2.2 -0.7
v 1.1 2.4 -0.7
v 1.1 2.5 -0.7
v 1.2 2.1 -0.7
v 1.2 2.2 -0.7
v 1.2 2.4 -0.7
v 1.2 2.5 -0.7
v 1.3 2.2 -0.7
v 1.3 2.4 -0.7
v -0.1 2.1 -0.9
v -0.1 2.2 -0.9
v -0.1 2.4 -0.9
v -0.1 2.5 -0.9
v -4.47035e-08 2.1 -0.9
v -4.47035e-08 2.2 -0.9
v -4.47035e-08 2.4 -0.9
v -4.47035e-08 2.5 -0.9
v 1.2 2.1 -0.9
v 1.2 2.2 -0.9
v 1.2 2.4 -0.9
v 1.2 2.5 -0.9
v 1.3 2.1 -0.9
v 1.3 2.2 -0.9
v 1.3 2.4 -0.9
v 1.3 2.5 -0.9
v -0.1 2.1 -0.7
v -0.1 2.2 -0.7
v -0.1 2.4 -0.7
v -0.1 2.5 -0.7
v -4.47035e-08 2.1 -0.7
v -4.47035e-08 2.2 -0.7
v -4.47035e-08 2.4 -0.7
v -4.47035e-08 2.5 -0.7
v 1.2 2.1 -0.7
v 1.2 2.2 -0.7
v 1.2 2.4 -0.7
v 1.2 2.5 -0.7
v 1.3 2.1 -0.7
v 1.3 2.2 -0.7
v 1.3 2.4 -0.7
v 1.3 2.5 -0.7
v -0.1 2.2 -0.9
v -0.1 2.4 -0.9
v -4.47035e-08 2.1 -0.9
v -4.47035e-08 2.2 -0.9
v -4.47035e-08 2.4 -0.9
v -4.47035e-08 2.5 -0.9
v 0.1 2.1 -0.9
v 0.1 2.2 -0.9
v 0.1 2.4 -0.9
v 0.1 2.5 -0.9
v 1.1 2.1 -0.9
v 1.1 2.2 -0.9
v 1.1 2.4 -0.9
v 1.1 2.5 -0.9
v 1.2 2.1 -0.9
v 1.2 2.2 -0.9
v 1.2 2.4 -0.9
v 1.2 2.5 -0.9
v 1.3 2.2 -0.9
v 1.3 2.4 -0.9
v -0.1 2.1 -1
v -0.1 2.2 -1
v -0.1 2.4 -1
v -0.1 2.5 -1
v -4.47035e-08 2.1 -1
v -4.47035e-08 2.2 -1
v -4.47035e-08 2.4 -1
v -4.47035e-08 2.5 -1
v 0.1 2.1 -1
v 0.1 2.2 -1
v 0.1 2.4 -1
v 0.1 2.5 -1
v 1.1 2.1 -1
v 1.1 2.2 -1
v 1.1 2.4 -1
v 1.1 2.5 -1
v 1.2 2.1 -1
v 1.2 2.2 -1
v 1.2 2.4 -1
v 1.2 2.5 -1
v 1.3 2.1 -1
v 1.3 2.2 -1
v 1.3 2.4 -1
v 1.3 2.5 -1
v -0.1 2.1 -0.6
v -4.47035e-08 2.1 -0.6
v 0.1 2.1 -0.6
v 1.1 2.1 -0.6
v 1.2 2.1 -0.6
v 1.3 2.1 -0.6
v -0.1 2.1 -0.7
v -4.47035e-08 2.1 -0.7
v 0.1 2.1 -0.7
v 0.2 2.1 -0.7
v 0.3 2.1 -0.7
v 0.4 2.1 -0.7
v 0.5 2.1 -0.7
v 0.6 2.1 -0.7
v 0.7 2.1 -0.7
v 0.8 2.1 -0.7
v 0.9 2.1 -0.7
v 1 2.1 -0.7
v 1.1 2.1 -0.7
v 1.2 2.1 -0.7
v 1.3 2.1 -0.7
v 0.1 2.1 -0.8
v 0.2 2.1 -0.8
v 0.3 2.1 -0.8
v 0.4 2.1 -0.8
v 0.5 2.1 -0.8
v 0.6 2.1 -0.8
v 0.7 2.1 -0.8
v 0.8 2.1 -0.8
v 0.9 2.1 -0.8
v 1 2.1 -0.8
v 1.1 2.1 -0.8
v -0.1 2.1 -0.9
v -4.47035e-08 2.1 -0.9
v 0.1 2.1 -0.9
v 0.2 2.1 -0.9
v 0.3 2.1 -0.9
v 0.4 2.1 -0.9
v 0.5 2.1 -0.9
v 0.6 2.1 -0.9
v 0.7 2.1 -0.9
v 0.8 2.1 -0.9
v 0.9 2.1 -0.9
v 1 2.1 -0.9
v 1.1 2.1 -0.9
v 1.2 2.1 -0.9
v 1.3 2.1 -0.9
v -0.1 2.1 -1
v -4.47035e-08 2.1 -1
v 0.1 2.1 -1
v 1.1 2.1 -1
v 1.2 2.1 -1
v 1.3 2.1 -1
v -4.47035e-08 2.2 -0.6
v 0.1 2.2 -0.6
v 1.1 2.2 -0.6
v 1.2 2.2 -0.6
v -0.1 2.2 -0.7
v -4.47035e-08 2.2 -0.7
v 0.1 2.2 -0.7
v 1.1 2.2 -0.7
v 1.2 2.2 -0.7
v 1.3 2.2 -0.7
v -0.1 2.2 -0.9
v -4.47035e-08 2.2 -0.9
v 0.1 2.2 -0.9
v 1.1 2.2 -0.9
v 1.2 2.2 -0.9
v 1.3 2.2 -0.9
v -4.47035e-08 2.2 -1
v 0.1 2.2 -1
v 1.1 2.2 -1
v 1.2 2.2 -1
v -0.1 2.4 -0.6
v -4.47035e-08 2.4 -0.6
v 1.2 2.4 -0.6
v 1.3 2.4 -0.6
v -0.1 2.4 -0.7
v -4.47035e-08 2.4 -0.7
v 1.2 2.4 -0.7
v 1.3 2.4 -0.7
v -0.1 2.4 -0.9
v -4.47035e-08 2.4 -0.9
v 1.2 2.4 -0.9
v 1.3 2.4 -0.9
v -0.1 2.4 -1
v -4.47035e-08 2.4 -1
v 1.2 2.4 -1
v 1.3 2.4 -1
v -0.1 2.2 -0.6
v -4.47035e-08 2.2 -0.6
v 1.2 2.2 -0.6
v 1.3 2.2 -0.6
v -0.1 2.2 -0.7
v -4.47035e-08 2.2 -0.7
v 1.2 2.2 -0.7
v 1.3 2.2 -0.7
v -0.1 2.2 -0.9
v -4.47035e-08 2.2 -0.9
v 1.2 2.2 -0.9
v 1.3 2.2 -0.9
v -0.1 2.2 -1
v -4.47035e-08 2.2 -1
v 1.2 2.2 -1
v 1.3 2.2 -1
v -4.47035e-08 2.4 -0.6
v 0.1 2.4 -0.6
v 1.1 2.4 -0.6
v 1.2 2.4 -0.6
v -0.1 2.4 -0.7
v -4.47035e-08 2.4 -0.7
v 0.1 2.4 -0.7
v 1.1 2.4 -0.7
v 1.2 2.4 -0.7
v 1.3 2.4 -0.7
v -0.1 2.4 -0.9
v -4.47035e-08 2.4 -0.9
v 0.1 2.4 -0.9
v 1.1 2.4 -0.9
v 1.2 2.4 -0.9
v 1.3 2.4 -0.9
v -4.47035e-08 2.4 -1
v 0.1 2.4 -1
v 1.1 2.4 -1
v 1.2 2.4 -1
v -0.1 2.5 -0.6
v -4.47035e-08 2.5 -0.6
v 0.1 2.5 -0.6
v 1.1 2.5 -0.6
v 1.2 2.5 -0.6
v 1.3 2.5 -0.6
v -0.1 2.5 -0.7
v -4.47035e-08 2.5 -0.7
v 0.1 2.5 -0.7
v 0.2 2.5 -0.7
v 0.3 2.5 -0.7
v 0.4 2.5 -0.7
v 0.5 2.5 -0.7
v 0.6 2.5 -0.7
v 0.7 2.5 -0.7
v 0.8 2.5 -0.7
v 0.9 2.5 -0.7
v 1 2.5 -0.7
v 1.1 2.5 -0.7
v 1.2 2.5 -0.7
v 1.3 2.5 -0.7
v 0.1 2.5 -0.8
v 0.2 2.5 -0.8
v 0.3 2.5 -0.8
v 0.4 2.5 -0.8
v 0.5 2.5 -0.8
v 0.6 2.5 -0.8
v 0.7 2.5 -0.8
v 0.8 2.5 -0.8
v 0.9 2.5 -0.8
v 1 2.5 -0.8
v 1.1 2.5 -0.8
v -0.1 2.5 -0.9
v -4.47035e-08 2.5 -0.9
v 0.1 2.5 -0.9
v 0.2 2.5 -0.9
v 0.3 2.5 -0.9
v 0.4 2.5 -0.9
v 0.5 2.5 -0.9
v 0.6 2.5 -0.9
v 0.7 2.5 -0.9
v 0.8 2.5 -0.9
v 0.9 2.5 -0.9
v 1 2.5 -0.9
v 1.1 2.5 -0.9
v 1.2 2.5 -0.9
v 1.3 2.5 -0.9
v -0.1 2.5 -1
v -4.47035e-08 2.5 -1
v 0.1 2.5 -1
v 1.1 2.5 -1
v 1.2 2.5 -1
v 1.3 2.5 -1

# faces
f 5/3/1 2/3/1 1/3/1
f 6/3/1 2/3/1 5/3/1
f 7/3/1 4/3/1 3/3/1
f 8/3/1 4/3/1 7/3/1
f 10/1/1 7/1/1 6/1/1
f 11/1/1 7/1/1 10/1/1
f 13/3/1 10/3/1 9/3/1
f 14/3/1 10/3/1 13/3/1
f 15/3/1 12/3/1 11/3/1
f 16/3/1 12/3/1 15/3/1
f 20/4/1 18/4/1 17/4/1
f 21/4/1 18/4/1 20/4/1
f 23/4/1 20/4/1 19/4/1
f 24/4/1 20/4/1 23/4/1
f 25/4/1 22/4/1 21/4/1
f 26/4/1 22/4/1 25/4/1
f 27/4/1 25/4/1 24/4/1
f 28/4/1 25/4/1 27/4/1
f 33/4/1 30/4/1 29/4/1
f 34/4/1 30/4/1 33/4/1
f 35/4/1 32/4/1 31/4/1
f 36/4/1 32/4/1 35/4/1
f 41/4/1 38/4/1 37/4/1
f 42/4/1 38/4/1 41/4/1
f 43/4/1 40/4/1 39/4/1
f 44/4/1 40/4/1 43/4/1
f 49/3/1 46/3/1 45/3/1
f 50/3/1 46/3/1 49/3/1
f 51/3/1 48/3/1 47/3/1
f 52/3/1 48/3/1 51/3/1
f 57/3/1 54/3/1 53/3/1
f 58/3/1 54/3/1 57/3/1
f 59/3/1 56/3/1 55/3/1
f 60/3/1 56/3/1 59/3/1
f 61/3/2 62/3/2 65/3/2
f 65/3/2 62/3/2 66/3/2
f 63/3/2 64/3/2 67/3/2
f 67/3/2 64/3/2 68/3/2
f 69/3/2 70/3/2 73/3/2
f 73/3/2 70/3/2 74/3/2
f 71/3/2 72/3/2 75/3/2
f 75/3/2 72/3/2 76/3/2
f 77/4/2 78/4/2 81/4/2
f 81/4/2 78/4/2 82/4/2
f 79/4/2 80/4/2 83/4/2
f 83/4/2 80/4/2 84/4/2
f 85/4/2 86/4/2 89/4/2
f 89/4/2 86/4/2 90/4/2
f 87/4/2 88/4/2 91/4/2
f 91/4/2 88/4/2 92/4/2
f 93/4/2 94/4/2 96/4/2
f 96/4/2 94/4/2 97/4/2
f 95/4/2 96/4/2 99/4/2
f 99/4/2 96/4/2 100/4/2
f 97/4/2 98/4/2 101/4/2
f 101/4/2 98/4/2 102/4/2
f 100/4/2 101/4/2 103/4/2
f 103/4/2 101/4/2 104/4/2
f 105/3/2 106/3/2 109/3/2
f 109/3/2 106/3/2 110/3/2
f 107/3/2 108/3/2 111/3/2
f 111/3/2 108/3/2 112/3/2
f 110/1/2 111/1/2 114/1/2
f 114/1/2 111/1/2 115/1/2
f 113/3/2 114/3/2 117/3/2
f 117/3/2 114/3/2 118/3/2
f 115/3/2 116/3/2 119/3/2
f 119/3/2 116/3/2 120/3/2
f 125/3/3 122/3/3 121/3/3
f 126/3/3 122/3/3 125/3/3
f 127/3/3 124/3/3 123/3/3
f 128/3/3 124/3/3 127/3/3
f 130/4/3 127/4/3 126/4/3
f 131/4/3 127/4/3 130/4/3
f 133/4/3 130/4/3 129/4/3
f 133/4/3 132/4/3 131/4/3
f 133/4/3 131/4/3 130/4/3
f 134/4/3 132/4/3 133/4/3
f 135/4/3 132/4/3 134/4/3
f 136/4/3 132/4/3 135/4/3
f 138/4/3 135/4/3 134/4/3
f 139/4/3 135/4/3 138/4/3
f 141/3/3 138/3/3 137/3/3
f 142/3/3 138/3/3 141/3/3
f 143/3/3 140/3/3 139/3/3
f 144/3/3 140/3/3 143/3/3
f 148/1/3 146/1/3 145/1/3
f 149/1/3 146/1/3 148/1/3
f 151/4/3 148/4/3 147/4/3
f 152/4/3 148/4/3 151/4/3
f 153/4/3 150/4/3 149/4/3
f 154/4/3 150/4/3 153/4/3
f 159/4/3 156/4/3 155/4/3
f 160/4/3 156/4/3 159/4/3
f 161/4/3 158/4/3 157/4/3
f 162/4/3 158/4/3 161/4/3
f 163/1/3 161/1/3 160/1/3
f 164/1/3 161/1/3 163/1/3
f 169/3/3 166/3/3 165/3/3
f 170/3/3 166/3/3 169/3/3
f 171/3/3 168/3/3 167/3/3
f 172/3/3 168/3/3 171/3/3
f 177/3/3 174/3/3 173/3/3
f 178/3/3 174/3/3 177/3/3
f 179/3/3 176/3/3 175/3/3
f 180/3/3 176/3/3 179/3/3
f 181/3/4 182/3/4 185/3/4
f 185/3/4 182/3/4 186/3/4
f 183/3/4 184/3/4 187/3/4
f 187/3/4 184/3/4 188/3/4
f 189/3/4 190/3/4 193/3/4
f 193/3/4 190/3/4 194/3/4
f 191/3/4 192/3/4 195/3/4
f 195/3/4 192/3/4 196/3/4
f 197/1/4 198/1/4 200/1/4
f 200/1/4 198/1/4 201/1/4
f 199/4/4 200/4/4 203/4/4
f 203/4/4 200/4/4 204/4/4
f 201/4/4 202/4/4 205/4/4
f 205/4/4 202/4/4 206/4/4
f 207/4/4 208/4/4 211/4/4
f 211/4/4 208/4/4 212/4/4
f 209/4/4 210/4/4 213/4/4
f 213/4/4 210/4/4 214/4/4
f 212/1/4 213/1/4 215/1/4
f 215/1/4 213/1/4 216/1/4
f 217/3/4 218/3/4 221/3/4
f 221/3/4 218/3/4 222/3/4
f 219/3/4 220/3/4 223/3/4
f 223/3/4 220/3/4 224/3/4
f 222/4/4 223/4/4 226/4/4
f 226/4/4 223/4/4 227/4/4
f 225/4/4 226/4/4 229/4/4
f 227/4/4 228/4/4 229/4/4
f 226/4/4 227/4/4 229/4/4
f 229/4/4 228/4/4 230/4/4
f 230/4/4 228/4/4 231/4/4
f 231/4/4 228/4/4 232/4/4
f 230/4/4 231/4/4 234/4/4
f 234/4/4 231/4/4 235/4/4
f 233/3/4 234/3/4 237/3/4
f 237/3/4 234/3/4 238/3/4
f 235/3/4 236/3/4 239/3/4
f 239/3/4 236/3/4 240/3/4
f 247/3/5 242/3/5 241/3/5
f 248/3/5 242/3/5 247/3/5
f 249/4/5 244/4/5 243/4/5
f 250/4/5 244/4/5 249/4/5
f 251/4/5 244/4/5 250/4/5
f 252/4/5 244/4/5 251/4/5
f 253/4/5 244/4/5 252/4/5
f 254/4/5 244/4/5 253/4/5
f 255/4/5 244/4/5 254/4/5
f 256/4/5 244/4/5 255/4/5
f 257/4/5 244/4/5 256/4/5
f 258/4/5 244/4/5 257/4/5
f 259/4/5 244/4/5 258/4/5
f 260/3/5 246/3/5 245/3/5
f 261/3/5 246/3/5 260/3/5
f 262/4/5 249/4/5 248/4/5
f 262/2/5 250/2/5 249/2/5
f 263/5/5 251/5/5 250/5/5
f 263/2/5 250/2/5 262/2/5
f 264/2/5 252/2/5 251/2/5
f 264/5/5 251/5/5 263/5/5
f 265/5/5 253/5/5 252/5/5
f 265/2/5 252/2/5 264/2/5
f 266/2/5 254/2/5 253/2/5
f 266/5/5 253/5/5 265/5/5
f 267/5/5 255/5/5 254/5/5
f 267/2/5 254/2/5 266/2/5
f 268/2/5 256/2/5 255/2/5
f 268/5/5 255/5/5 267/5/5
f 269/5/5 257/5/5 256/5/5
f 269/2/5 256/2/5 268/2/5
f 270/2/5 258/2/5 257/2/5
f 270/5/5 257/5/5 269/5/5
f 271/5/5 259/5/5 258/5/5
f 271/2/5 258/2/5 270/2/5
f 272/4/5 260/4/5 259/4/5
f 272/5/5 259/5/5 271/5/5
f 274/4/5 262/4/5 248/4/5
f 275/5/5 263/5/5 262/5/5
f 275/4/5 262/4/5 274/4/5
f 276/2/5 264/2/5 263/2/5
f 276/5/5 263/5/5 275/5/5
f 277/5/5 265/5/5 264/5/5
f 277/2/5 264/2/5 276/2/5
f 278/2/5 266/2/5 265/2/5
f 278/5/5 265/5/5 277/5/5
f 279/5/5 267/5/5 266/5/5
f 279/2/5 266/2/5 278/2/5
f 280/2/5 268/2/5 267/2/5
f 280/5/5 267/5/5 279/5/5
f 281/5/5 269/5/5 268/5/5
f 281/2/5 268/2/5 280/2/5
f 282/2/5 270/2/5 269/2/5
f 282/5/5 269/5/5 281/5/5
f 283/5/5 271/5/5 270/5/5
f 283/2/5 270/2/5 282/2/5
f 284/2/5 272/2/5 271/2/5
f 284/5/5 271/5/5 283/5/5
f 285/4/5 260/4/5 272/4/5
f 285/2/5 272/2/5 284/2/5
f 286/4/5 260/4/5 285/4/5
f 288/3/5 274/3/5 273/3/5
f 289/3/5 274/3/5 288/3/5
f 290/4/5 281/4/5 280/4/5
f 290/4/5 282/4/5 281/4/5
f 290/4/5 284/4/5 283/4/5
f 290/4/5 285/4/5 284/4/5
f 290/4/5 283/4/5 282/4/5
f 290/4/5 280/4/5 279/4/5
f 290/4/5 279/4/5 278/4/5
f 290/4/5 278/4/5 277/4/5
f 290/4/5 277/4/5 276/4/5
f 290/4/5 276/4/5 275/4/5
f 291/4/5 285/4/5 290/4/5
f 292/3/5 287/3/5 286/3/5
f 293/3/5 287/3/5 292/3/5
f 299/4/5 295/4/5 294/4/5
f 300/4/5 295/4/5 299/4/5
f 301/4/5 297/4/5 296/4/5
f 302/4/5 297/4/5 301/4/5
f 304/1/5 299/1/5 298/1/5
f 305/1/5 299/1/5 304/1/5
f 308/1/5 303/1/5 302/1/5
f 309/1/5 303/1/5 308/1/5
f 310/4/5 306/4/5 305/4/5
f 311/4/5 306/4/5 310/4/5
f 312/4/5 308/4/5 307/4/5
f 313/4/5 308/4/5 312/4/5
f 318/3/5 315/3/5 314/3/5
f 319/3/5 315/3/5 318/3/5
f 320/3/5 317/3/5 316/3/5
f 321/3/5 317/3/5 320/3/5
f 326/3/5 323/3/5 322/3/5
f 327/3/5 323/3/5 326/3/5
f 328/3/5 325/3/5 324/3/5
f 329/3/5 325/3/5 328/3/5
f 330/3/6 331/3/6 334/3/6
f 334/3/6 331/3/6 335/3/6
f 332/3/6 333/3/6 336/3/6
f 336/3/6 333/3/6 337/3/6
f 338/3/6 339/3/6 342/3/6
f 342/3/6 339/3/6 343/3/6
f 340/3/6 341/3/6 344/3/6
f 344/3/6 341/3/6 345/3/6
f 346/4/6 347/4/6 351/4/6
f 351/4/6 347/4/6 352/4/6
f 348/4/6 349/4/6 353/4/6
f 353/4/6 349/4/6 354/4/6
f 350/1/6 351/1/6 356/1/6
f 356/1/6 351/1/6 357/1/6
f 354/1/6 355/1/6 360/1/6
f 360/1/6 355/1/6 361/1/6
f 357/4/6 358/4/6 362/4/6
f 362/4/6 358/4/6 363/4/6
f 359/4/6 360/4/6 364/4/6
f 364/4/6 360/4/6 365/4/6
f 366/3/6 367/3/6 372/3/6
f 372/3/6 367/3/6 373/3/6
f 368/4/6 369/4/6 374/4/6
f 374/4/6 369/4/6 375/4/6
f 375/4/6 369/4/6 376/4/6
f 376/4/6 369/4/6 377/4/6
f 377/4/6 369/4/6 378/4/6
f 378/4/6 369/4/6 379/4/6
f 379/4/6 369/4/6 380/4/6
f 380/4/6 369/4/6 381/4/6
f 381/4/6 369/4/6 382/4/6
f 382/4/6 369/4/6 383/4/6
f 383/4/6 369/4/6 384/4/6
f 370/3/6 371/3/6 385/3/6
f 385/3/6 371/3/6 386/3/6
f 373/4/6 374/4/6 387/4/6
f 374/2/6 375/2/6 387/2/6
f 375/5/6 376/5/6 388/5/6
f 387/2/6 375/2/6 388/2/6
f 376/2/6 377/2/6 389/2/6
f 388/5/6 376/5/6 389/5/6
f 377/5/6 378/5/6 390/5/6
f 389/2/6 377/2/6 390/2/6
f 378/2/6 379/2/6 391/2/6
f 390/5/6 378/5/6 391/5/6
f 379/5/6 380/5/6 392/5/6
f 391/2/6 379/2/6 392/2/6
f 380/2/6 381/2/6 393/2/6
f 392/5/6 380/5/6 393/5/6
f 381/5/6 382/5/6 394/5/6
f 393/2/6 381/2/6 394/2/6
f 382/2/6 383/2/6 395/2/6
f 394/5/6 382/5/6 395/5/6
f 383/5/6 384/5/6 396/5/6
f 395/2/6 383/2/6 396/2/6
f 384/4/6 385/4/6 397/4/6
f 396/5/6 384/5/6 397/5/6
f 373/4/6 387/4/6 399/4/6
f 387/5/6 388/5/6 400/5/6
f 399/4/6 387/4/6 400/4/6
f 388/2/6 389/2/6 401/2/6
f 400/5/6 388/5/6 401/5/6
f 389/5/6 390/5/6 402/5/6
f 401/2/6 389/2/6 402/2/6
f 390/2/6 391/2/6 403/2/6
f 402/5/6 390/5/6 403/5/6
f 391/5/6 392/5/6 404/5/6
f 403/2/6 391/2/6 404/2/6
f 392/2/6 393/2/6 405/2/6
f 404/5/6 392/5/6 405/5/6
f 393/5/6 394/5/6 406/5/6
f 405/2/6 393/2/6 406/2/6
f 394/2/6 395/2/6 407/2/6
f 406/5/6 394/5/6 407/5/6
f 395/5/6 396/5/6 408/5/6
f 407/2/6 395/2/6 408/2/6
f 396/2/6 397/2/6 409/2/6
f 408/5/6 396/5/6 409/5/6
f 397/4/6 385/4/6 410/4/6
f 409/2/6 397/2/6 410/2/6
f 410/4/6 385/4/6 411/4/6
f 398/3/6 399/3/6 413/3/6
f 413/3/6 399/3/6 414/3/6
f 405/4/6 406/4/6 415/4/6
f 406/4/6 407/4/6 415/4/6
f 408/4/6 409/4/6 415/4/6
f 409/4/6 410/4/6 415/4/6
f 407/4/6 408/4/6 415/4/6
f 404/4/6 405/4/6 415/4/6
f 403/4/6 404/4/6 415/4/6
f 402/4/6 403/4/6 415/4/6
f 401/4/6 402/4/6 415/4/6
f 400/4/6 401/4/6 415/4/6
f 415/4/6 410/4/6 416/4/6
f 411/3/6 412/3/6 417/3/6
f 417/3/6 412/3/6 418/3/6
