# MagicaVoxel @ Ephtracy

# group
o 

# material
mtllib medicine.mtl
usemtl palette

# normals
vn -1 0 0
vn 1 0 0
vn 0 0 1
vn 0 0 -1
vn 0 -1 0
vn 0 1 0

# texcoords
vt 0.654297 0.5
vt 0.845703 0.5
vt 0.892578 0.5
vt 0.896484 0.5
vt 0.958984 0.5
vt 0.966797 0.5

# verts
v 0.2 2.1 -1.1
v 0.2 2.1 -1.7
v 0.2 2.2 -1.2
v 0.2 2.2 -1.6
v 0.2 2.4 -1.3
v 0.2 2.4 -1.5
v 0.2 2.5 -1.2
v 0.2 2.5 -1.3
v 0.2 2.5 -1.5
v 0.2 2.5 -1.6
v 0.2 2.7 -1.2
v 0.2 2.7 -1.3
v 0.2 2.7 -1.5
v 0.2 2.7 -1.6
v 0.2 2.8 -1.2
v 0.2 2.8 -1.3
v 0.2 2.8 -1.5
v 0.2 2.8 -1.6
v 0.2 3 -1.1
v 0.2 3 -1.7
v 0.3 2 -1.1
v 0.3 2 -1.7
v 0.3 2.1 -1
v 0.3 2.1 -1.1
v 0.3 2.1 -1.7
v 0.3 2.1 -1.8
v 0.3 3 -1
v 0.3 3 -1.1
v 0.3 3 -1.2
v 0.3 3 -1.6
v 0.3 3 -1.7
v 0.3 3 -1.8
v 0.3 3.1 -1.2
v 0.3 3.1 -1.6
v 0.3 3.2 -1.2
v 0.3 3.2 -1.6
v 0.3 3.4 -1.2
v 0.3 3.4 -1.6
v 0.4 1.9 -1.2
v 0.4 1.9 -1.6
v 0.4 2 -1.2
v 0.4 2 -1.6
v 0.4 3 -1.1
v 0.4 3 -1.2
v 0.4 3 -1.6
v 0.4 3 -1.7
v 0.4 3.1 -1.1
v 0.4 3.1 -1.2
v 0.4 3.1 -1.6
v 0.4 3.1 -1.7
v 0.4 3.2 -1.1
v 0.4 3.2 -1.2
v 0.4 3.2 -1.6
v 0.4 3.2 -1.7
v 0.4 3.4 -1.1
v 0.4 3.4 -1.2
v 0.4 3.4 -1.3
v 0.4 3.4 -1.5
v 0.4 3.4 -1.6
v 0.4 3.4 -1.7
v 0.4 3.5 -1.3
v 0.4 3.5 -1.5
v 0.5 3.4 -1.2
v 0.5 3.4 -1.3
v 0.5 3.4 -1.5
v 0.5 3.4 -1.6
v 0.5 3.5 -1.2
v 0.5 3.5 -1.3
v 0.5 3.5 -1.5
v 0.5 3.5 -1.6
v 0.7 3.4 -1.2
v 0.7 3.4 -1.3
v 0.7 3.4 -1.5
v 0.7 3.4 -1.6
v 0.7 3.5 -1.2
v 0.7 3.5 -1.3
v 0.7 3.5 -1.5
v 0.7 3.5 -1.6
v 0.8 1.9 -1.2
v 0.8 1.9 -1.6
v 0.8 2 -1.2
v 0.8 2 -1.6
v 0.8 3 -1.1
v 0.8 3 -1.2
v 0.8 3 -1.6
v 0.8 3 -1.7
v 0.8 3.1 -1.1
v 0.8 3.1 -1.2
v 0.8 3.1 -1.6
v 0.8 3.1 -1.7
v 0.8 3.2 -1.1
v 0.8 3.2 -1.2
v 0.8 3.2 -1.6
v 0.8 3.2 -1.7
v 0.8 3.4 -1.1
v 0.8 3.4 -1.2
v 0.8 3.4 -1.3
v 0.8 3.4 -1.5
v 0.8 3.4 -1.6
v 0.8 3.4 -1.7
v 0.8 3.5 -1.3
v 0.8 3.5 -1.5
v 0.9 2 -1.1
v 0.9 2 -1.7
v 0.9 2.1 -1
v 0.9 2.1 -1.1
v 0.9 2.1 -1.7
v 0.9 2.1 -1.8
v 0.9 3 -1
v 0.9 3 -1.1
v 0.9 3 -1.2
v 0.9 3 -1.6
v 0.9 3 -1.7
v 0.9 3 -1.8
v 0.9 3.1 -1.2
v 0.9 3.1 -1.6
v 0.9 3.2 -1.2
v 0.9 3.2 -1.6
v 0.9 3.4 -1.2
v 0.9 3.4 -1.6
v 1 2.1 -1.1
v 1 2.1 -1.7
v 1 2.2 -1.2
v 1 2.2 -1.6
v 1 2.4 -1.3
v 1 2.4 -1.5
v 1 2.5 -1.2
v 1 2.5 -1.3
v 1 2.5 -1.5
v 1 2.5 -1.6
v 1 2.7 -1.2
v 1 2.7 -1.3
v 1 2.7 -1.5
v 1 2.7 -1.6
v 1 2.8 -1.2
v 1 2.8 -1.3
v 1 2.8 -1.5
v 1 2.8 -1.6
v 1 3 -1.1
v 1 3 -1.7
v 0.3 2.1 -1
v 0.3 3 -1
v 0.4 2.2 -1
v 0.4 2.5 -1
v 0.4 2.7 -1
v 0.4 2.8 -1
v 0.5 2.4 -1
v 0.5 2.5 -1
v 0.5 2.7 -1
v 0.5 2.8 -1
v 0.7 2.4 -1
v 0.7 2.5 -1
v 0.7 2.7 -1
v 0.7 2.8 -1
v 0.8 2.2 -1
v 0.8 2.5 -1
v 0.8 2.7 -1
v 0.8 2.8 -1
v 0.9 2.1 -1
v 0.9 3 -1
v 0.2 2.1 -1.1
v 0.2 3 -1.1
v 0.3 2 -1.1
v 0.3 2.1 -1.1
v 0.3 3 -1.1
v 0.4 3 -1.1
v 0.4 3.1 -1.1
v 0.4 3.2 -1.1
v 0.4 3.4 -1.1
v 0.8 3 -1.1
v 0.8 3.1 -1.1
v 0.8 3.2 -1.1
v 0.8 3.4 -1.1
v 0.9 2 -1.1
v 0.9 2.1 -1.1
v 0.9 3 -1.1
v 1 2.1 -1.1
v 1 3 -1.1
v 0.3 3 -1.2
v 0.3 3.1 -1.2
v 0.3 3.2 -1.2
v 0.3 3.4 -1.2
v 0.4 1.9 -1.2
v 0.4 2 -1.2
v 0.4 3 -1.2
v 0.4 3.1 -1.2
v 0.4 3.2 -1.2
v 0.4 3.4 -1.2
v 0.5 3.4 -1.2
v 0.5 3.5 -1.2
v 0.7 3.4 -1.2
v 0.7 3.5 -1.2
v 0.8 1.9 -1.2
v 0.8 2 -1.2
v 0.8 3 -1.2
v 0.8 3.1 -1.2
v 0.8 3.2 -1.2
v 0.8 3.4 -1.2
v 0.9 3 -1.2
v 0.9 3.1 -1.2
v 0.9 3.2 -1.2
v 0.9 3.4 -1.2
v 0.4 3.4 -1.3
v 0.4 3.5 -1.3
v 0.5 3.4 -1.3
v 0.5 3.5 -1.3
v 0.7 3.4 -1.3
v 0.7 3.5 -1.3
v 0.8 3.4 -1.3
v 0.8 3.5 -1.3
v 0.4 3.4 -1.5
v 0.4 3.5 -1.5
v 0.5 3.4 -1.5
v 0.5 3.5 -1.5
v 0.7 3.4 -1.5
v 0.7 3.5 -1.5
v 0.8 3.4 -1.5
v 0.8 3.5 -1.5
v 0.3 3 -1.6
v 0.3 3.1 -1.6
v 0.3 3.2 -1.6
v 0.3 3.4 -1.6
v 0.4 1.9 -1.6
v 0.4 2 -1.6
v 0.4 3 -1.6
v 0.4 3.1 -1.6
v 0.4 3.2 -1.6
v 0.4 3.4 -1.6
v 0.5 3.4 -1.6
v 0.5 3.5 -1.6
v 0.7 3.4 -1.6
v 0.7 3.5 -1.6
v 0.8 1.9 -1.6
v 0.8 2 -1.6
v 0.8 3 -1.6
v 0.8 3.1 -1.6
v 0.8 3.2 -1.6
v 0.8 3.4 -1.6
v 0.9 3 -1.6
v 0.9 3.1 -1.6
v 0.9 3.2 -1.6
v 0.9 3.4 -1.6
v 0.2 2.1 -1.7
v 0.2 3 -1.7
v 0.3 2 -1.7
v 0.3 2.1 -1.7
v 0.3 3 -1.7
v 0.4 3 -1.7
v 0.4 3.1 -1.7
v 0.4 3.2 -1.7
v 0.4 3.4 -1.7
v 0.8 3 -1.7
v 0.8 3.1 -1.7
v 0.8 3.2 -1.7
v 0.8 3.4 -1.7
v 0.9 2 -1.7
v 0.9 2.1 -1.7
v 0.9 3 -1.7
v 1 2.1 -1.7
v 1 3 -1.7
v 0.3 2.1 -1.8
v 0.3 3 -1.8
v 0.4 2.2 -1.8
v 0.4 2.5 -1.8
v 0.4 2.7 -1.8
v 0.4 2.8 -1.8
v 0.5 2.4 -1.8
v 0.5 2.5 -1.8
v 0.5 2.7 -1.8
v 0.5 2.8 -1.8
v 0.7 2.4 -1.8
v 0.7 2.5 -1.8
v 0.7 2.7 -1.8
v 0.7 2.8 -1.8
v 0.8 2.2 -1.8
v 0.8 2.5 -1.8
v 0.8 2.7 -1.8
v 0.8 2.8 -1.8
v 0.9 2.1 -1.8
v 0.9 3 -1.8
v 0.4 1.9 -1.2
v 0.8 1.9 -1.2
v 0.4 1.9 -1.6
v 0.8 1.9 -1.6
v 0.3 2 -1.1
v 0.9 2 -1.1
v 0.4 2 -1.2
v 0.8 2 -1.2
v 0.4 2 -1.6
v 0.8 2 -1.6
v 0.3 2 -1.7
v 0.9 2 -1.7
v 0.3 2.1 -1
v 0.9 2.1 -1
v 0.2 2.1 -1.1
v 0.3 2.1 -1.1
v 0.9 2.1 -1.1
v 1 2.1 -1.1
v 0.2 2.1 -1.7
v 0.3 2.1 -1.7
v 0.9 2.1 -1.7
v 1 2.1 -1.7
v 0.3 2.1 -1.8
v 0.9 2.1 -1.8
v 0.4 3.2 -1.1
v 0.8 3.2 -1.1
v 0.3 3.2 -1.2
v 0.4 3.2 -1.2
v 0.8 3.2 -1.2
v 0.9 3.2 -1.2
v 0.3 3.2 -1.6
v 0.4 3.2 -1.6
v 0.8 3.2 -1.6
v 0.9 3.2 -1.6
v 0.4 3.2 -1.7
v 0.8 3.2 -1.7
v 0.3 3 -1
v 0.9 3 -1
v 0.2 3 -1.1
v 0.3 3 -1.1
v 0.4 3 -1.1
v 0.8 3 -1.1
v 0.9 3 -1.1
v 1 3 -1.1
v 0.3 3 -1.2
v 0.4 3 -1.2
v 0.8 3 -1.2
v 0.9 3 -1.2
v 0.3 3 -1.6
v 0.4 3 -1.6
v 0.8 3 -1.6
v 0.9 3 -1.6
v 0.2 3 -1.7
v 0.3 3 -1.7
v 0.4 3 -1.7
v 0.8 3 -1.7
v 0.9 3 -1.7
v 1 3 -1.7
v 0.3 3 -1.8
v 0.9 3 -1.8
v 0.4 3.1 -1.1
v 0.8 3.1 -1.1
v 0.3 3.1 -1.2
v 0.4 3.1 -1.2
v 0.8 3.1 -1.2
v 0.9 3.1 -1.2
v 0.3 3.1 -1.6
v 0.4 3.1 -1.6
v 0.8 3.1 -1.6
v 0.9 3.1 -1.6
v 0.4 3.1 -1.7
v 0.8 3.1 -1.7
v 0.4 3.4 -1.1
v 0.8 3.4 -1.1
v 0.3 3.4 -1.2
v 0.4 3.4 -1.2
v 0.5 3.4 -1.2
v 0.7 3.4 -1.2
v 0.8 3.4 -1.2
v 0.9 3.4 -1.2
v 0.4 3.4 -1.3
v 0.5 3.4 -1.3
v 0.7 3.4 -1.3
v 0.8 3.4 -1.3
v 0.4 3.4 -1.5
v 0.5 3.4 -1.5
v 0.7 3.4 -1.5
v 0.8 3.4 -1.5
v 0.3 3.4 -1.6
v 0.4 3.4 -1.6
v 0.5 3.4 -1.6
v 0.7 3.4 -1.6
v 0.8 3.4 -1.6
v 0.9 3.4 -1.6
v 0.4 3.4 -1.7
v 0.8 3.4 -1.7
v 0.5 3.5 -1.2
v 0.7 3.5 -1.2
v 0.4 3.5 -1.3
v 0.5 3.5 -1.3
v 0.7 3.5 -1.3
v 0.8 3.5 -1.3
v 0.4 3.5 -1.5
v 0.5 3.5 -1.5
v 0.7 3.5 -1.5
v 0.8 3.5 -1.5
v 0.5 3.5 -1.6
v 0.7 3.5 -1.6

# faces
f 3/5/1 2/5/1 1/5/1
f 4/5/1 2/5/1 3/5/1
f 5/4/1 4/4/1 3/4/1
f 6/4/1 4/4/1 5/4/1
f 7/5/1 3/5/1 1/5/1
f 7/4/1 5/4/1 3/4/1
f 8/2/1 6/2/1 5/2/1
f 8/4/1 5/4/1 7/4/1
f 9/4/1 4/4/1 6/4/1
f 9/2/1 6/2/1 8/2/1
f 10/5/1 2/5/1 4/5/1
f 10/4/1 4/4/1 9/4/1
f 11/2/1 8/2/1 7/2/1
f 11/2/1 9/2/1 8/2/1
f 11/2/1 10/2/1 9/2/1
f 11/5/1 7/5/1 1/5/1
f 12/2/1 10/2/1 11/2/1
f 13/2/1 10/2/1 12/2/1
f 14/5/1 2/5/1 10/5/1
f 14/2/1 10/2/1 13/2/1
f 15/5/1 11/5/1 1/5/1
f 15/3/1 12/3/1 11/3/1
f 16/2/1 13/2/1 12/2/1
f 16/3/1 12/3/1 15/3/1
f 17/3/1 14/3/1 13/3/1
f 17/2/1 13/2/1 16/2/1
f 18/5/1 2/5/1 14/5/1
f 18/3/1 14/3/1 17/3/1
f 19/5/1 15/5/1 1/5/1
f 19/5/1 17/5/1 16/5/1
f 19/5/1 18/5/1 17/5/1
f 19/5/1 16/5/1 15/5/1
f 20/5/1 2/5/1 18/5/1
f 20/5/1 18/5/1 19/5/1
f 24/5/1 22/5/1 21/5/1
f 25/5/1 22/5/1 24/5/1
f 27/5/1 24/5/1 23/5/1
f 28/5/1 24/5/1 27/5/1
f 31/5/1 26/5/1 25/5/1
f 32/5/1 26/5/1 31/5/1
f 33/6/1 30/6/1 29/6/1
f 34/6/1 30/6/1 33/6/1
f 37/1/1 36/1/1 35/1/1
f 38/1/1 36/1/1 37/1/1
f 41/6/1 40/6/1 39/6/1
f 42/6/1 40/6/1 41/6/1
f 47/6/1 44/6/1 43/6/1
f 48/6/1 44/6/1 47/6/1
f 49/6/1 46/6/1 45/6/1
f 50/6/1 46/6/1 49/6/1
f 52/6/1 49/6/1 48/6/1
f 53/6/1 49/6/1 52/6/1
f 55/1/1 52/1/1 51/1/1
f 56/1/1 52/1/1 55/1/1
f 59/1/1 54/1/1 53/1/1
f 60/1/1 54/1/1 59/1/1
f 61/1/1 58/1/1 57/1/1
f 62/1/1 58/1/1 61/1/1
f 67/1/1 64/1/1 63/1/1
f 68/1/1 64/1/1 67/1/1
f 69/1/1 66/1/1 65/1/1
f 70/1/1 66/1/1 69/1/1
f 71/1/2 72/1/2 75/1/2
f 75/1/2 72/1/2 76/1/2
f 73/1/2 74/1/2 77/1/2
f 77/1/2 74/1/2 78/1/2
f 79/6/2 80/6/2 81/6/2
f 81/6/2 80/6/2 82/6/2
f 83/6/2 84/6/2 87/6/2
f 87/6/2 84/6/2 88/6/2
f 85/6/2 86/6/2 89/6/2
f 89/6/2 86/6/2 90/6/2
f 88/6/2 89/6/2 92/6/2
f 92/6/2 89/6/2 93/6/2
f 91/1/2 92/1/2 95/1/2
f 95/1/2 92/1/2 96/1/2
f 93/1/2 94/1/2 99/1/2
f 99/1/2 94/1/2 100/1/2
f 97/1/2 98/1/2 101/1/2
f 101/1/2 98/1/2 102/1/2
f 103/5/2 104/5/2 106/5/2
f 106/5/2 104/5/2 107/5/2
f 105/5/2 106/5/2 109/5/2
f 109/5/2 106/5/2 110/5/2
f 107/5/2 108/5/2 113/5/2
f 113/5/2 108/5/2 114/5/2
f 111/6/2 112/6/2 115/6/2
f 115/6/2 112/6/2 116/6/2
f 117/1/2 118/1/2 119/1/2
f 119/1/2 118/1/2 120/1/2
f 121/5/2 122/5/2 123/5/2
f 123/5/2 122/5/2 124/5/2
f 123/4/2 124/4/2 125/4/2
f 125/4/2 124/4/2 126/4/2
f 121/5/2 123/5/2 127/5/2
f 123/4/2 125/4/2 127/4/2
f 125/2/2 126/2/2 128/2/2
f 127/4/2 125/4/2 128/4/2
f 126/4/2 124/4/2 129/4/2
f 128/2/2 126/2/2 129/2/2
f 124/5/2 122/5/2 130/5/2
f 129/4/2 124/4/2 130/4/2
f 127/2/2 128/2/2 131/2/2
f 128/2/2 129/2/2 131/2/2
f 129/2/2 130/2/2 131/2/2
f 121/5/2 127/5/2 131/5/2
f 131/2/2 130/2/2 132/2/2
f 132/2/2 130/2/2 133/2/2
f 130/5/2 122/5/2 134/5/2
f 133/2/2 130/2/2 134/2/2
f 121/5/2 131/5/2 135/5/2
f 131/3/2 132/3/2 135/3/2
f 132/2/2 133/2/2 136/2/2
f 135/3/2 132/3/2 136/3/2
f 133/3/2 134/3/2 137/3/2
f 136/2/2 133/2/2 137/2/2
f 134/5/2 122/5/2 138/5/2
f 137/3/2 134/3/2 138/3/2
f 121/5/2 135/5/2 139/5/2
f 136/5/2 137/5/2 139/5/2
f 137/5/2 138/5/2 139/5/2
f 135/5/2 136/5/2 139/5/2
f 138/5/2 122/5/2 140/5/2
f 139/5/2 138/5/2 140/5/2
f 143/5/3 142/5/3 141/5/3
f 144/5/3 142/5/3 143/5/3
f 145/5/3 142/5/3 144/5/3
f 146/5/3 142/5/3 145/5/3
f 147/4/3 144/4/3 143/4/3
f 148/2/3 145/2/3 144/2/3
f 148/4/3 144/4/3 147/4/3
f 149/3/3 146/3/3 145/3/3
f 149/2/3 145/2/3 148/2/3
f 150/5/3 142/5/3 146/5/3
f 150/3/3 146/3/3 149/3/3
f 151/2/3 149/2/3 148/2/3
f 151/4/3 147/4/3 143/4/3
f 151/2/3 150/2/3 149/2/3
f 151/2/3 148/2/3 147/2/3
f 152/2/3 150/2/3 151/2/3
f 153/2/3 150/2/3 152/2/3
f 154/5/3 142/5/3 150/5/3
f 154/2/3 150/2/3 153/2/3
f 155/5/3 143/5/3 141/5/3
f 155/4/3 151/4/3 143/4/3
f 155/4/3 152/4/3 151/4/3
f 156/2/3 153/2/3 152/2/3
f 156/4/3 152/4/3 155/4/3
f 157/3/3 154/3/3 153/3/3
f 157/2/3 153/2/3 156/2/3
f 158/5/3 142/5/3 154/5/3
f 158/3/3 154/3/3 157/3/3
f 159/5/3 157/5/3 156/5/3
f 159/5/3 155/5/3 141/5/3
f 159/5/3 158/5/3 157/5/3
f 159/5/3 156/5/3 155/5/3
f 160/5/3 142/5/3 158/5/3
f 160/5/3 158/5/3 159/5/3
f 164/5/3 162/5/3 161/5/3
f 165/5/3 162/5/3 164/5/3
f 170/6/3 167/6/3 166/6/3
f 171/6/3 167/6/3 170/6/3
f 172/1/3 169/1/3 168/1/3
f 173/1/3 169/1/3 172/1/3
f 174/5/3 164/5/3 163/5/3
f 175/5/3 164/5/3 174/5/3
f 177/5/3 176/5/3 175/5/3
f 178/5/3 176/5/3 177/5/3
f 185/6/3 180/6/3 179/6/3
f 186/6/3 180/6/3 185/6/3
f 187/1/3 182/1/3 181/1/3
f 188/1/3 182/1/3 187/1/3
f 191/1/3 190/1/3 189/1/3
f 192/1/3 190/1/3 191/1/3
f 193/6/3 184/6/3 183/6/3
f 194/6/3 184/6/3 193/6/3
f 196/6/3 187/6/3 186/6/3
f 197/6/3 187/6/3 196/6/3
f 199/6/3 196/6/3 195/6/3
f 200/6/3 196/6/3 199/6/3
f 201/1/3 198/1/3 197/1/3
f 202/1/3 198/1/3 201/1/3
f 205/1/3 204/1/3 203/1/3
f 206/1/3 204/1/3 205/1/3
f 209/1/3 208/1/3 207/1/3
f 210/1/3 208/1/3 209/1/3
f 211/1/4 212/1/4 213/1/4
f 213/1/4 212/1/4 214/1/4
f 215/1/4 216/1/4 217/1/4
f 217/1/4 216/1/4 218/1/4
f 219/6/4 220/6/4 225/6/4
f 225/6/4 220/6/4 226/6/4
f 221/1/4 222/1/4 227/1/4
f 227/1/4 222/1/4 228/1/4
f 229/1/4 230/1/4 231/1/4
f 231/1/4 230/1/4 232/1/4
f 223/6/4 224/6/4 233/6/4
f 233/6/4 224/6/4 234/6/4
f 226/6/4 227/6/4 236/6/4
f 236/6/4 227/6/4 237/6/4
f 235/6/4 236/6/4 239/6/4
f 239/6/4 236/6/4 240/6/4
f 237/1/4 238/1/4 241/1/4
f 241/1/4 238/1/4 242/1/4
f 243/5/4 244/5/4 246/5/4
f 246/5/4 244/5/4 247/5/4
f 248/6/4 249/6/4 252/6/4
f 252/6/4 249/6/4 253/6/4
f 250/1/4 251/1/4 254/1/4
f 254/1/4 251/1/4 255/1/4
f 245/5/4 246/5/4 256/5/4
f 256/5/4 246/5/4 257/5/4
f 257/5/4 258/5/4 259/5/4
f 259/5/4 258/5/4 260/5/4
f 261/5/4 262/5/4 263/5/4
f 263/5/4 262/5/4 264/5/4
f 264/5/4 262/5/4 265/5/4
f 265/5/4 262/5/4 266/5/4
f 263/4/4 264/4/4 267/4/4
f 264/2/4 265/2/4 268/2/4
f 267/4/4 264/4/4 268/4/4
f 265/3/4 266/3/4 269/3/4
f 268/2/4 265/2/4 269/2/4
f 266/5/4 262/5/4 270/5/4
f 269/3/4 266/3/4 270/3/4
f 268/2/4 269/2/4 271/2/4
f 263/4/4 267/4/4 271/4/4
f 269/2/4 270/2/4 271/2/4
f 267/2/4 268/2/4 271/2/4
f 271/2/4 270/2/4 272/2/4
f 272/2/4 270/2/4 273/2/4
f 270/5/4 262/5/4 274/5/4
f 273/2/4 270/2/4 274/2/4
f 261/5/4 263/5/4 275/5/4
f 263/4/4 271/4/4 275/4/4
f 271/4/4 272/4/4 275/4/4
f 272/2/4 273/2/4 276/2/4
f 275/4/4 272/4/4 276/4/4
f 273/3/4 274/3/4 277/3/4
f 276/2/4 273/2/4 277/2/4
f 274/5/4 262/5/4 278/5/4
f 277/3/4 274/3/4 278/3/4
f 276/5/4 277/5/4 279/5/4
f 261/5/4 275/5/4 279/5/4
f 277/5/4 278/5/4 279/5/4
f 275/5/4 276/5/4 279/5/4
f 278/5/4 262/5/4 280/5/4
f 279/5/4 278/5/4 280/5/4
f 283/6/5 282/6/5 281/6/5
f 284/6/5 282/6/5 283/6/5
f 287/5/5 286/5/5 285/5/5
f 288/5/5 286/5/5 287/5/5
f 289/5/5 287/5/5 285/5/5
f 290/5/5 286/5/5 288/5/5
f 291/5/5 289/5/5 285/5/5
f 291/5/5 290/5/5 289/5/5
f 292/5/5 286/5/5 290/5/5
f 292/5/5 290/5/5 291/5/5
f 296/5/5 294/5/5 293/5/5
f 297/5/5 294/5/5 296/5/5
f 299/5/5 296/5/5 295/5/5
f 300/5/5 296/5/5 299/5/5
f 301/5/5 298/5/5 297/5/5
f 302/5/5 298/5/5 301/5/5
f 303/5/5 301/5/5 300/5/5
f 304/5/5 301/5/5 303/5/5
f 308/1/5 306/1/5 305/1/5
f 309/1/5 306/1/5 308/1/5
f 311/1/5 308/1/5 307/1/5
f 312/1/5 308/1/5 311/1/5
f 313/1/5 310/1/5 309/1/5
f 314/1/5 310/1/5 313/1/5
f 315/1/5 313/1/5 312/1/5
f 316/1/5 313/1/5 315/1/5
f 317/5/6 318/5/6 320/5/6
f 320/5/6 318/5/6 321/5/6
f 321/5/6 318/5/6 322/5/6
f 322/5/6 318/5/6 323/5/6
f 319/5/6 320/5/6 325/5/6
f 320/5/6 321/5/6 325/5/6
f 325/5/6 321/5/6 326/5/6
f 323/5/6 324/5/6 327/5/6
f 322/5/6 323/5/6 327/5/6
f 327/5/6 324/5/6 328/5/6
f 319/5/6 325/5/6 329/5/6
f 328/5/6 324/5/6 332/5/6
f 329/5/6 330/5/6 333/5/6
f 319/5/6 329/5/6 333/5/6
f 333/5/6 330/5/6 334/5/6
f 334/5/6 330/5/6 335/5/6
f 331/5/6 332/5/6 336/5/6
f 332/5/6 324/5/6 337/5/6
f 336/5/6 332/5/6 337/5/6
f 337/5/6 324/5/6 338/5/6
f 334/5/6 335/5/6 339/5/6
f 335/5/6 336/5/6 339/5/6
f 336/5/6 337/5/6 339/5/6
f 339/5/6 337/5/6 340/5/6
f 341/6/6 342/6/6 344/6/6
f 344/6/6 342/6/6 345/6/6
f 343/6/6 344/6/6 347/6/6
f 347/6/6 344/6/6 348/6/6
f 345/6/6 346/6/6 349/6/6
f 349/6/6 346/6/6 350/6/6
f 348/6/6 349/6/6 351/6/6
f 351/6/6 349/6/6 352/6/6
f 353/1/6 354/1/6 356/1/6
f 356/1/6 354/1/6 357/1/6
f 357/1/6 354/1/6 358/1/6
f 358/1/6 354/1/6 359/1/6
f 355/1/6 356/1/6 361/1/6
f 356/1/6 357/1/6 361/1/6
f 361/1/6 357/1/6 362/1/6
f 359/1/6 360/1/6 363/1/6
f 358/1/6 359/1/6 363/1/6
f 363/1/6 360/1/6 364/1/6
f 355/1/6 361/1/6 365/1/6
f 364/1/6 360/1/6 368/1/6
f 365/1/6 366/1/6 369/1/6
f 355/1/6 365/1/6 369/1/6
f 369/1/6 366/1/6 370/1/6
f 370/1/6 366/1/6 371/1/6
f 367/1/6 368/1/6 372/1/6
f 368/1/6 360/1/6 373/1/6
f 372/1/6 368/1/6 373/1/6
f 373/1/6 360/1/6 374/1/6
f 370/1/6 371/1/6 375/1/6
f 371/1/6 372/1/6 375/1/6
f 372/1/6 373/1/6 375/1/6
f 375/1/6 373/1/6 376/1/6
f 377/1/6 378/1/6 380/1/6
f 380/1/6 378/1/6 381/1/6
f 379/1/6 380/1/6 383/1/6
f 381/1/6 382/1/6 383/1/6
f 380/1/6 381/1/6 383/1/6
f 383/1/6 382/1/6 384/1/6
f 384/1/6 382/1/6 385/1/6
f 385/1/6 382/1/6 386/1/6
f 384/1/6 385/1/6 387/1/6
f 387/1/6 385/1/6 388/1/6
