# MagicaVoxel @ Ephtracy

# group
o 

# material
mtllib roof.mtl
usemtl palette

# normals
vn -1 0 0
vn 1 0 0
vn 0 0 1
vn 0 0 -1
vn 0 -1 0
vn 0 1 0

# texcoords
vt 0.115234 0.5
vt 0.958984 0.5
vt 0.962891 0.5

# verts
v -3.9 -2.7 7
v -3.9 -2.7 -9.9
v -3.9 -2.3 7
v -3.9 -2.3 -9.9
v -3.9 -1.1 7
v -3.9 -1.1 -9.9
v -3.8 -2.7 7.1
v -3.8 -2.7 7
v -3.8 -2.7 -9.9
v -3.8 -2.7 -10
v -3.8 -2.6 7.1
v -3.8 -2.6 7
v -3.8 -2.6 -9.9
v -3.8 -2.6 -10
v -3.8 -2.3 7.1
v -3.8 -2.3 7
v -3.8 -2.3 -9.9
v -3.8 -2.3 -10
v -3.8 -1.1 7.1
v -3.8 -1.1 7
v -3.8 -1.1 -9.9
v -3.8 -1.1 -10
v 6.8 -2.7 7.1
v 6.8 -2.7 7
v 6.8 -2.7 -9.9
v 6.8 -2.7 -10
v 6.8 -2.6 7.1
v 6.8 -2.6 7
v 6.8 -2.6 -9.9
v 6.8 -2.6 -10
v 6.8 -2.3 7.1
v 6.8 -2.3 7
v 6.8 -2.3 -9.9
v 6.8 -2.3 -10
v 6.8 -1.1 7.1
v 6.8 -1.1 7
v 6.8 -1.1 -9.9
v 6.8 -1.1 -10
v 6.9 -2.7 7
v 6.9 -2.7 6.8
v 6.9 -2.7 -9.9
v 6.9 -2.6 6.8
v 6.9 -2.6 -9.9
v 6.9 -2.3 7
v 6.9 -2.3 -9.9
v 6.9 -1.1 7
v 6.9 -1.1 -9.9
v -3.8 -2.7 7.1
v -3.8 -2.6 7.1
v -3.8 -2.3 7.1
v -3.8 -1.1 7.1
v 6.8 -2.7 7.1
v 6.8 -2.6 7.1
v 6.8 -2.3 7.1
v 6.8 -1.1 7.1
v -3.9 -2.7 7
v -3.9 -2.3 7
v -3.9 -1.1 7
v -3.8 -2.7 7
v -3.8 -2.6 7
v -3.8 -2.3 7
v -3.8 -1.1 7
v 6.8 -2.7 7
v 6.8 -2.6 7
v 6.8 -2.3 7
v 6.8 -1.1 7
v 6.9 -2.7 7
v 6.9 -2.3 7
v 6.9 -1.1 7
v -3.9 -2.7 -9.9
v -3.9 -2.3 -9.9
v -3.9 -1.1 -9.9
v -3.8 -2.7 -9.9
v -3.8 -2.6 -9.9
v -3.8 -2.3 -9.9
v -3.8 -1.1 -9.9
v 6.8 -2.7 -9.9
v 6.8 -2.6 -9.9
v 6.8 -2.3 -9.9
v 6.8 -1.1 -9.9
v 6.9 -2.7 -9.9
v 6.9 -2.6 -9.9
v 6.9 -2.3 -9.9
v 6.9 -1.1 -9.9
v -3.8 -2.7 -10
v -3.8 -2.6 -10
v -3.8 -2.3 -10
v -3.8 -1.1 -10
v 6.8 -2.7 -10
v 6.8 -2.6 -10
v 6.8 -2.3 -10
v 6.8 -1.1 -10
v -3.8 -2.7 7.1
v 6.8 -2.7 7.1
v -3.9 -2.7 7
v -3.8 -2.7 7
v 6.8 -2.7 7
v 6.9 -2.7 7
v 6.8 -2.7 6.8
v 6.9 -2.7 6.8
v -2.5 -2.7 5.8
v -0.3 -2.7 5.8
v 5.3 -2.7 5.8
v 6 -2.7 5.8
v -2.5 -2.7 3.8
v -0.3 -2.7 3.8
v 5.3 -2.7 3.8
v 6 -2.7 3.8
v 5.2 -2.7 -0.0999999
v 6 -2.7 -0.0999999
v -2.5 -2.7 -0.2
v -0.3 -2.7 -0.2
v -2.5 -2.7 -2.5
v -0.3 -2.7 -2.5
v 5.2 -2.7 -2.5
v 6 -2.7 -2.5
v -2.5 -2.7 -6.3
v -0.3 -2.7 -6.3
v 5.2 -2.7 -6.3
v 6 -2.7 -6.3
v -2.5 -2.7 -8.5
v -0.3 -2.7 -8.5
v 5.2 -2.7 -8.5
v 6 -2.7 -8.5
v -3.9 -2.7 -9.9
v -3.8 -2.7 -9.9
v 6.8 -2.7 -9.9
v 6.9 -2.7 -9.9
v -3.8 -2.7 -10
v 6.8 -2.7 -10
v -3.8 -1.1 7.1
v 6.8 -1.1 7.1
v -3.9 -1.1 7
v -3.8 -1.1 7
v 6.8 -1.1 7
v 6.9 -1.1 7
v -3.9 -1.1 -9.9
v -3.8 -1.1 -9.9
v 6.8 -1.1 -9.9
v 6.9 -1.1 -9.9
v -3.8 -1.1 -10
v 6.8 -1.1 -10

# faces
f 3/2/1 2/2/1 1/2/1
f 4/2/1 2/2/1 3/2/1
f 5/1/1 4/1/1 3/1/1
f 6/1/1 4/1/1 5/1/1
f 11/3/1 8/3/1 7/3/1
f 12/3/1 8/3/1 11/3/1
f 13/3/1 10/3/1 9/3/1
f 14/3/1 10/3/1 13/3/1
f 15/2/1 12/2/1 11/2/1
f 16/2/1 12/2/1 15/2/1
f 17/2/1 14/2/1 13/2/1
f 18/2/1 14/2/1 17/2/1
f 19/1/1 16/1/1 15/1/1
f 20/1/1 16/1/1 19/1/1
f 21/1/1 18/1/1 17/1/1
f 22/1/1 18/1/1 21/1/1
f 23/3/2 24/3/2 27/3/2
f 27/3/2 24/3/2 28/3/2
f 25/3/2 26/3/2 29/3/2
f 29/3/2 26/3/2 30/3/2
f 27/2/2 28/2/2 31/2/2
f 31/2/2 28/2/2 32/2/2
f 29/2/2 30/2/2 33/2/2
f 33/2/2 30/2/2 34/2/2
f 31/1/2 32/1/2 35/1/2
f 35/1/2 32/1/2 36/1/2
f 33/1/2 34/1/2 37/1/2
f 37/1/2 34/1/2 38/1/2
f 39/2/2 40/2/2 42/2/2
f 40/3/2 41/3/2 42/3/2
f 42/3/2 41/3/2 43/3/2
f 39/2/2 42/2/2 44/2/2
f 42/2/2 43/2/2 44/2/2
f 44/2/2 43/2/2 45/2/2
f 44/1/2 45/1/2 46/1/2
f 46/1/2 45/1/2 47/1/2
f 52/3/3 49/3/3 48/3/3
f 53/2/3 50/2/3 49/2/3
f 53/3/3 49/3/3 52/3/3
f 54/1/3 51/1/3 50/1/3
f 54/2/3 50/2/3 53/2/3
f 55/1/3 51/1/3 54/1/3
f 59/2/3 57/2/3 56/2/3
f 60/2/3 57/2/3 59/2/3
f 61/1/3 58/1/3 57/1/3
f 61/2/3 57/2/3 60/2/3
f 62/1/3 58/1/3 61/1/3
f 67/2/3 64/2/3 63/2/3
f 67/2/3 65/2/3 64/2/3
f 68/1/3 66/1/3 65/1/3
f 68/2/3 65/2/3 67/2/3
f 69/1/3 66/1/3 68/1/3
f 70/2/4 71/2/4 73/2/4
f 73/2/4 71/2/4 74/2/4
f 71/1/4 72/1/4 75/1/4
f 74/2/4 71/2/4 75/2/4
f 75/1/4 72/1/4 76/1/4
f 77/3/4 78/3/4 81/3/4
f 78/2/4 79/2/4 82/2/4
f 81/3/4 78/3/4 82/3/4
f 79/1/4 80/1/4 83/1/4
f 82/2/4 79/2/4 83/2/4
f 83/1/4 80/1/4 84/1/4
f 85/3/4 86/3/4 89/3/4
f 86/2/4 87/2/4 90/2/4
f 89/3/4 86/3/4 90/3/4
f 87/1/4 88/1/4 91/1/4
f 90/2/4 87/2/4 91/2/4
f 91/1/4 88/1/4 92/1/4
f 96/3/5 94/3/5 93/3/5
f 97/3/5 94/3/5 96/3/5
f 99/3/5 97/3/5 96/3/5
f 99/2/5 98/2/5 97/2/5
f 100/2/5 98/2/5 99/2/5
f 101/3/5 99/3/5 96/3/5
f 101/3/5 100/3/5 99/3/5
f 102/3/5 100/3/5 101/3/5
f 103/3/5 100/3/5 102/3/5
f 104/3/5 100/3/5 103/3/5
f 105/3/5 101/3/5 96/3/5
f 105/2/5 102/2/5 101/2/5
f 106/3/5 103/3/5 102/3/5
f 106/2/5 102/2/5 105/2/5
f 107/2/5 104/2/5 103/2/5
f 107/3/5 103/3/5 106/3/5
f 108/3/5 100/3/5 104/3/5
f 108/2/5 104/2/5 107/2/5
f 109/3/5 107/3/5 106/3/5
f 109/3/5 106/3/5 105/3/5
f 109/3/5 108/3/5 107/3/5
f 110/3/5 100/3/5 108/3/5
f 110/3/5 108/3/5 109/3/5
f 111/3/5 109/3/5 105/3/5
f 111/3/5 105/3/5 96/3/5
f 112/3/5 109/3/5 111/3/5
f 113/3/5 111/3/5 96/3/5
f 113/2/5 112/2/5 111/2/5
f 114/3/5 109/3/5 112/3/5
f 114/2/5 112/2/5 113/2/5
f 115/2/5 110/2/5 109/2/5
f 115/3/5 109/3/5 114/3/5
f 116/3/5 100/3/5 110/3/5
f 116/2/5 110/2/5 115/2/5
f 117/3/5 115/3/5 114/3/5
f 117/3/5 114/3/5 113/3/5
f 117/3/5 116/3/5 115/3/5
f 117/3/5 113/3/5 96/3/5
f 118/3/5 116/3/5 117/3/5
f 119/3/5 116/3/5 118/3/5
f 120/3/5 100/3/5 116/3/5
f 120/3/5 116/3/5 119/3/5
f 121/3/5 117/3/5 96/3/5
f 121/2/5 118/2/5 117/2/5
f 122/3/5 119/3/5 118/3/5
f 122/2/5 118/2/5 121/2/5
f 123/2/5 120/2/5 119/2/5
f 123/3/5 119/3/5 122/3/5
f 124/3/5 100/3/5 120/3/5
f 124/2/5 120/2/5 123/2/5
f 125/2/5 96/2/5 95/2/5
f 126/3/5 121/3/5 96/3/5
f 126/2/5 96/2/5 125/2/5
f 126/3/5 123/3/5 122/3/5
f 126/3/5 124/3/5 123/3/5
f 126/3/5 122/3/5 121/3/5
f 127/3/5 100/3/5 124/3/5
f 127/3/5 124/3/5 126/3/5
f 128/3/5 100/3/5 127/3/5
f 129/3/5 127/3/5 126/3/5
f 130/3/5 127/3/5 129/3/5
f 131/1/6 132/1/6 134/1/6
f 134/1/6 132/1/6 135/1/6
f 133/1/6 134/1/6 137/1/6
f 135/1/6 136/1/6 137/1/6
f 134/1/6 135/1/6 137/1/6
f 137/1/6 136/1/6 138/1/6
f 138/1/6 136/1/6 139/1/6
f 139/1/6 136/1/6 140/1/6
f 138/1/6 139/1/6 141/1/6
f 141/1/6 139/1/6 142/1/6
