# MagicaVoxel @ Ephtracy

# group
o 

# material
mtllib roof_column.mtl
usemtl palette

# normals
vn -1 0 0
vn 1 0 0
vn 0 0 1
vn 0 0 -1
vn 0 -1 0
vn 0 1 0

# texcoords
vt 0.955078 0.5
vt 0.958984 0.5
vt 0.966797 0.5
vt 0.978516 0.5
vt 0.982422 0.5
vt 0.986328 0.5

# verts
v -2.1 -3 -0.1
v -2.1 -3 -0.2
v -2.1 -3 -0.4
v -2.1 -3 -0.7
v -2.1 -3 -1.4
v -2.1 -2.9 -0.1
v -2.1 -2.9 -0.2
v -2.1 -2.9 -0.4
v -2.1 -2.9 -0.7
v -2.1 -2.9 -0.8
v -2.1 -2.9 -0.9
v -2.1 -2.9 -1
v -2.1 -2.9 -1.1
v -2.1 -2.8 -0.1
v -2.1 -2.8 -0.2
v -2.1 -2.8 -0.8
v -2.1 -2.8 -0.9
v -2.1 -2.8 -1
v -2.1 -2.8 -1.1
v -2.1 -2.8 -1.4
v -2.1 -2.7 -0.1
v -2.1 -2.7 -0.2
v -2.1 -2.7 -1.1
v -2.1 -2.7 -1.2
v -2.1 -2.7 -1.3
v -2.1 -2.7 -1.4
v -2.1 -2.6 -1.1
v -2.1 -2.6 -1.2
v -2.1 -1.6 -0.2
v -2.1 -1.6 -1.3
v -2 -2.7 -0.1
v -2 -2.7 -0.2
v -2 -2.7 -1.3
v -2 -2.7 -1.4
v -2 -2.5 -1.3
v -2 -2.5 -1.4
v -2 -2.4 -1.3
v -2 -2.4 -1.4
v -2 -1.6 -0.1
v -2 -1.6 -0.2
v -2 -1.6 -1.3
v -2 -1.6 -1.4
v -2 -1.5 -0.2
v -2 -1.5 -1.3
v -1.9 -1.5 -0.3
v -1.9 -1.5 -1.2
v -1.9 -1.4 -0.3
v -1.9 -1.4 -1.2
v -1.8 -1.4 -0.4
v -1.8 -1.4 -1.1
v -1.8 -1.3 -0.4
v -1.8 -1.3 -0.5
v -1.8 -1.3 -1
v -1.8 -1.3 -1.1
v -1.8 -0.4 -0.5
v -1.8 -0.4 -1
v -1.8 3.1 -0.5
v -1.8 3.1 -1
v -1.7 -1.3 -0.4
v -1.7 -1.3 -0.5
v -1.7 -1.3 -1
v -1.7 -1.3 -1.1
v -1.7 -0.4 -0.4
v -1.7 -0.4 -0.5
v -1.7 -0.4 -1
v -1.7 -0.4 -1.1
v -1.7 3.1 -0.4
v -1.7 3.1 -0.5
v -1.7 3.1 -1
v -1.7 3.1 -1.1
v -1.3 -1.3 -0.4
v -1.3 -1.3 -0.5
v -1.3 -1.3 -1
v -1.3 -1.3 -1.1
v -1.3 -0.4 -0.4
v -1.3 -0.4 -0.5
v -1.3 -0.4 -1
v -1.3 -0.4 -1.1
v -1.3 3.1 -0.4
v -1.3 3.1 -0.5
v -1.3 3.1 -1
v -1.3 3.1 -1.1
v -1.2 -1.4 -0.4
v -1.2 -1.4 -1.1
v -1.2 -1.3 -0.4
v -1.2 -1.3 -0.5
v -1.2 -1.3 -1
v -1.2 -1.3 -1.1
v -1.2 -0.4 -0.5
v -1.2 -0.4 -1
v -1.2 3.1 -0.5
v -1.2 3.1 -1
v -1.1 -1.5 -0.3
v -1.1 -1.5 -1.2
v -1.1 -1.4 -0.3
v -1.1 -1.4 -1.2
v -1 -2.7 -0.1
v -1 -2.7 -0.2
v -1 -2.7 -1.3
v -1 -2.7 -1.4
v -1 -2.6 -0.2
v -1 -1.6 -0.1
v -1 -1.6 -0.2
v -1 -1.6 -1.3
v -1 -1.6 -1.4
v -1 -1.5 -0.2
v -1 -1.5 -1.3
v -0.9 -3 -0.1
v -0.9 -3 -0.4
v -0.9 -3 -0.6
v -0.9 -3 -0.7
v -0.9 -3 -1.4
v -0.9 -2.9 -0.1
v -0.9 -2.9 -0.2
v -0.9 -2.9 -0.4
v -0.9 -2.9 -0.6
v -0.9 -2.9 -0.7
v -0.9 -2.9 -1.2
v -0.9 -2.9 -1.3
v -0.9 -2.8 -0.1
v -0.9 -2.8 -0.2
v -0.9 -2.8 -0.7
v -0.9 -2.8 -0.8
v -0.9 -2.8 -1.2
v -0.9 -2.8 -1.3
v -0.9 -2.8 -1.4
v -0.9 -2.7 -0.1
v -0.9 -2.7 -0.2
v -0.9 -2.7 -0.3
v -0.9 -2.7 -0.7
v -0.9 -2.7 -0.8
v -0.9 -2.7 -1.3
v -0.9 -2.7 -1.4
v -0.9 -2.6 -0.2
v -0.9 -2.6 -0.3
v -0.9 -2.6 -0.6
v -0.9 -2.6 -0.7
v -0.9 -2.5 -0.6
v -0.9 -2.5 -0.7
v -0.9 -2.4 -0.4
v -0.9 -2.4 -0.5
v -0.9 -2.3 -0.4
v -0.9 -2.3 -0.5
v -0.9 -1.6 -0.2
v -0.9 -1.6 -1.3
v -2.1 -3 -0.1
v -2.1 -2.9 -0.1
v -2.1 -2.8 -0.1
v -2.1 -2.7 -0.1
v -2 -3 -0.1
v -2 -2.9 -0.1
v -2 -2.8 -0.1
v -2 -2.7 -0.1
v -2 -1.6 -0.1
v -1.7 -3 -0.1
v -1.7 -2.9 -0.1
v -1.6 -3 -0.1
v -1.6 -2.9 -0.1
v -1.6 -2.8 -0.1
v -1.6 -2.7 -0.1
v -1.6 -2.4 -0.1
v -1.6 -2.3 -0.1
v -1.5 -3 -0.1
v -1.5 -2.9 -0.1
v -1.5 -2.8 -0.1
v -1.5 -2.7 -0.1
v -1.5 -2.4 -0.1
v -1.5 -2.3 -0.1
v -1.3 -2.8 -0.1
v -1.3 -2.7 -0.1
v -1.2 -2.8 -0.1
v -1.2 -2.7 -0.1
v -1 -2.9 -0.1
v -1 -2.8 -0.1
v -1 -2.7 -0.1
v -1 -1.6 -0.1
v -0.9 -3 -0.1
v -0.9 -2.9 -0.1
v -0.9 -2.8 -0.1
v -0.9 -2.7 -0.1
v -2.1 -2.7 -0.2
v -2.1 -1.6 -0.2
v -2 -2.7 -0.2
v -2 -1.6 -0.2
v -2 -1.5 -0.2
v -1 -2.7 -0.2
v -1 -2.6 -0.2
v -1 -1.6 -0.2
v -1 -1.5 -0.2
v -0.9 -2.7 -0.2
v -0.9 -2.6 -0.2
v -0.9 -1.6 -0.2
v -1.9 -1.5 -0.3
v -1.9 -1.4 -0.3
v -1.1 -1.5 -0.3
v -1.1 -1.4 -0.3
v -1.8 -1.4 -0.4
v -1.8 -1.3 -0.4
v -1.7 -1.3 -0.4
v -1.7 -0.4 -0.4
v -1.7 3.1 -0.4
v -1.3 -1.3 -0.4
v -1.3 -0.4 -0.4
v -1.3 3.1 -0.4
v -1.2 -1.4 -0.4
v -1.2 -1.3 -0.4
v -1.8 -1.3 -0.5
v -1.8 -0.4 -0.5
v -1.8 3.1 -0.5
v -1.7 -1.3 -0.5
v -1.7 -0.4 -0.5
v -1.7 3.1 -0.5
v -1.3 -1.3 -0.5
v -1.3 -0.4 -0.5
v -1.3 3.1 -0.5
v -1.2 -1.3 -0.5
v -1.2 -0.4 -0.5
v -1.2 3.1 -0.5
v -1.8 -1.3 -1
v -1.8 -0.4 -1
v -1.8 3.1 -1
v -1.7 -1.3 -1
v -1.7 -0.4 -1
v -1.7 3.1 -1
v -1.3 -1.3 -1
v -1.3 -0.4 -1
v -1.3 3.1 -1
v -1.2 -1.3 -1
v -1.2 -0.4 -1
v -1.2 3.1 -1
v -1.8 -1.4 -1.1
v -1.8 -1.3 -1.1
v -1.7 -1.3 -1.1
v -1.7 -0.4 -1.1
v -1.7 3.1 -1.1
v -1.3 -1.3 -1.1
v -1.3 -0.4 -1.1
v -1.3 3.1 -1.1
v -1.2 -1.4 -1.1
v -1.2 -1.3 -1.1
v -1.9 -1.5 -1.2
v -1.9 -1.4 -1.2
v -1.1 -1.5 -1.2
v -1.1 -1.4 -1.2
v -2.1 -2.7 -1.3
v -2.1 -1.6 -1.3
v -2 -2.7 -1.3
v -2 -2.5 -1.3
v -2 -2.4 -1.3
v -2 -1.6 -1.3
v -2 -1.5 -1.3
v -1 -2.7 -1.3
v -1 -1.6 -1.3
v -1 -1.5 -1.3
v -0.9 -2.7 -1.3
v -0.9 -1.6 -1.3
v -2.1 -3 -1.4
v -2.1 -2.8 -1.4
v -2.1 -2.7 -1.4
v -2 -2.7 -1.4
v -2 -2.5 -1.4
v -2 -2.4 -1.4
v -2 -1.6 -1.4
v -1.9 -2.5 -1.4
v -1.9 -2.4 -1.4
v -1.8 -3 -1.4
v -1.8 -2.9 -1.4
v -1.7 -3 -1.4
v -1.7 -2.9 -1.4
v -1.6 -2.9 -1.4
v -1.6 -2.8 -1.4
v -1.6 -2.5 -1.4
v -1.6 -2.4 -1.4
v -1.5 -2.5 -1.4
v -1.5 -2.4 -1.4
v -1.4 -2.9 -1.4
v -1.4 -2.8 -1.4
v -1.2 -2.7 -1.4
v -1.2 -2.6 -1.4
v -1.1 -2.7 -1.4
v -1.1 -2.6 -1.4
v -1 -2.7 -1.4
v -1 -1.6 -1.4
v -0.9 -3 -1.4
v -0.9 -2.8 -1.4
v -0.9 -2.7 -1.4
v -2.1 -3 -0.1
v -2 -3 -0.1
v -1.7 -3 -0.1
v -1.6 -3 -0.1
v -1.5 -3 -0.1
v -0.9 -3 -0.1
v -2.1 -3 -0.2
v -2 -3 -0.2
v -1.7 -3 -0.2
v -1.6 -3 -0.2
v -1.5 -3 -0.2
v -2.1 -3 -0.4
v -2 -3 -0.4
v -1 -3 -0.4
v -0.9 -3 -0.4
v -1 -3 -0.6
v -0.9 -3 -0.6
v -2.1 -3 -0.7
v -2 -3 -0.7
v -1 -3 -0.7
v -0.9 -3 -0.7
v -1.8 -3 -1.3
v -1.7 -3 -1.3
v -2.1 -3 -1.4
v -1.8 -3 -1.4
v -1.7 -3 -1.4
v -0.9 -3 -1.4
v -2.1 -2.7 -0.1
v -2 -2.7 -0.1
v -1 -2.7 -0.1
v -0.9 -2.7 -0.1
v -2.1 -2.7 -0.2
v -2 -2.7 -0.2
v -1 -2.7 -0.2
v -0.9 -2.7 -0.2
v -2.1 -2.7 -1.3
v -2 -2.7 -1.3
v -1 -2.7 -1.3
v -0.9 -2.7 -1.3
v -2.1 -2.7 -1.4
v -2 -2.7 -1.4
v -1 -2.7 -1.4
v -0.9 -2.7 -1.4
v -2 -1.6 -0.1
v -1 -1.6 -0.1
v -2.1 -1.6 -0.2
v -2 -1.6 -0.2
v -1 -1.6 -0.2
v -0.9 -1.6 -0.2
v -2.1 -1.6 -1.3
v -2 -1.6 -1.3
v -1 -1.6 -1.3
v -0.9 -1.6 -1.3
v -2 -1.6 -1.4
v -1 -1.6 -1.4
v -2 -1.5 -0.2
v -1 -1.5 -0.2
v -1.9 -1.5 -0.3
v -1.1 -1.5 -0.3
v -1.9 -1.5 -1.2
v -1.1 -1.5 -1.2
v -2 -1.5 -1.3
v -1 -1.5 -1.3
v -1.9 -1.4 -0.3
v -1.1 -1.4 -0.3
v -1.8 -1.4 -0.4
v -1.2 -1.4 -0.4
v -1.8 -1.4 -1.1
v -1.2 -1.4 -1.1
v -1.9 -1.4 -1.2
v -1.1 -1.4 -1.2
v -1.8 -1.3 -0.4
v -1.7 -1.3 -0.4
v -1.3 -1.3 -0.4
v -1.2 -1.3 -0.4
v -1.8 -1.3 -0.5
v -1.7 -1.3 -0.5
v -1.3 -1.3 -0.5
v -1.2 -1.3 -0.5
v -1.8 -1.3 -1
v -1.7 -1.3 -1
v -1.3 -1.3 -1
v -1.2 -1.3 -1
v -1.8 -1.3 -1.1
v -1.7 -1.3 -1.1
v -1.3 -1.3 -1.1
v -1.2 -1.3 -1.1
v -1.7 3.1 -0.4
v -1.3 3.1 -0.4
v -1.8 3.1 -0.5
v -1.7 3.1 -0.5
v -1.3 3.1 -0.5
v -1.2 3.1 -0.5
v -1.8 3.1 -1
v -1.7 3.1 -1
v -1.3 3.1 -1
v -1.2 3.1 -1
v -1.7 3.1 -1.1
v -1.3 3.1 -1.1

# faces
f 6/1/1 2/1/1 1/1/1
f 7/4/1 3/4/1 2/4/1
f 7/1/1 2/1/1 6/1/1
f 8/6/1 4/6/1 3/6/1
f 8/4/1 3/4/1 7/4/1
f 9/4/1 5/4/1 4/4/1
f 9/6/1 4/6/1 8/6/1
f 10/4/1 5/4/1 9/4/1
f 11/4/1 5/4/1 10/4/1
f 12/4/1 5/4/1 11/4/1
f 13/4/1 5/4/1 12/4/1
f 14/5/1 7/5/1 6/5/1
f 15/4/1 8/4/1 7/4/1
f 15/5/1 7/5/1 14/5/1
f 15/4/1 9/4/1 8/4/1
f 15/4/1 10/4/1 9/4/1
f 16/1/1 11/1/1 10/1/1
f 16/4/1 10/4/1 15/4/1
f 17/4/1 12/4/1 11/4/1
f 17/1/1 11/1/1 16/1/1
f 18/5/1 13/5/1 12/5/1
f 18/4/1 12/4/1 17/4/1
f 19/4/1 5/4/1 13/4/1
f 19/5/1 13/5/1 18/5/1
f 20/4/1 5/4/1 19/4/1
f 21/6/1 18/6/1 17/6/1
f 21/6/1 17/6/1 16/6/1
f 21/6/1 20/6/1 19/6/1
f 21/6/1 19/6/1 18/6/1
f 21/6/1 15/6/1 14/6/1
f 21/6/1 16/6/1 15/6/1
f 22/6/1 20/6/1 21/6/1
f 23/6/1 20/6/1 22/6/1
f 24/6/1 20/6/1 23/6/1
f 25/6/1 20/6/1 24/6/1
f 26/6/1 20/6/1 25/6/1
f 27/6/1 23/6/1 22/6/1
f 27/5/1 24/5/1 23/5/1
f 28/6/1 25/6/1 24/6/1
f 28/5/1 24/5/1 27/5/1
f 29/6/1 27/6/1 22/6/1
f 29/6/1 28/6/1 27/6/1
f 30/6/1 25/6/1 28/6/1
f 30/6/1 28/6/1 29/6/1
f 35/6/1 34/6/1 33/6/1
f 36/6/1 34/6/1 35/6/1
f 37/5/1 36/5/1 35/5/1
f 38/5/1 36/5/1 37/5/1
f 39/6/1 32/6/1 31/6/1
f 40/6/1 32/6/1 39/6/1
f 41/6/1 38/6/1 37/6/1
f 42/6/1 38/6/1 41/6/1
f 43/3/1 41/3/1 40/3/1
f 44/3/1 41/3/1 43/3/1
f 47/3/1 46/3/1 45/3/1
f 48/3/1 46/3/1 47/3/1
f 51/3/1 50/3/1 49/3/1
f 52/3/1 50/3/1 51/3/1
f 53/3/1 50/3/1 52/3/1
f 54/3/1 50/3/1 53/3/1
f 55/3/1 53/3/1 52/3/1
f 56/3/1 53/3/1 55/3/1
f 57/2/1 56/2/1 55/2/1
f 58/2/1 56/2/1 57/2/1
f 63/3/1 60/3/1 59/3/1
f 64/3/1 60/3/1 63/3/1
f 65/3/1 62/3/1 61/3/1
f 66/3/1 62/3/1 65/3/1
f 67/2/1 64/2/1 63/2/1
f 68/2/1 64/2/1 67/2/1
f 69/2/1 66/2/1 65/2/1
f 70/2/1 66/2/1 69/2/1
f 71/3/2 72/3/2 75/3/2
f 75/3/2 72/3/2 76/3/2
f 73/3/2 74/3/2 77/3/2
f 77/3/2 74/3/2 78/3/2
f 75/2/2 76/2/2 79/2/2
f 79/2/2 76/2/2 80/2/2
f 77/2/2 78/2/2 81/2/2
f 81/2/2 78/2/2 82/2/2
f 83/3/2 84/3/2 85/3/2
f 85/3/2 84/3/2 86/3/2
f 86/3/2 84/3/2 87/3/2
f 87/3/2 84/3/2 88/3/2
f 86/3/2 87/3/2 89/3/2
f 89/3/2 87/3/2 90/3/2
f 89/2/2 90/2/2 91/2/2
f 91/2/2 90/2/2 92/2/2
f 93/3/2 94/3/2 95/3/2
f 95/3/2 94/3/2 96/3/2
f 97/6/2 98/6/2 101/6/2
f 97/6/2 101/6/2 102/6/2
f 102/6/2 101/6/2 103/6/2
f 99/6/2 100/6/2 104/6/2
f 104/6/2 100/6/2 105/6/2
f 103/3/2 104/3/2 106/3/2
f 106/3/2 104/3/2 107/3/2
f 108/4/2 109/4/2 113/4/2
f 113/4/2 109/4/2 114/4/2
f 109/5/2 110/5/2 115/5/2
f 114/4/2 109/4/2 115/4/2
f 110/1/2 111/1/2 116/1/2
f 115/5/2 110/5/2 116/5/2
f 111/4/2 112/4/2 117/4/2
f 116/1/2 111/1/2 117/1/2
f 117/4/2 112/4/2 118/4/2
f 118/4/2 112/4/2 119/4/2
f 113/5/2 114/5/2 120/5/2
f 115/4/2 116/4/2 121/4/2
f 120/5/2 114/5/2 121/5/2
f 114/4/2 115/4/2 121/4/2
f 116/4/2 117/4/2 121/4/2
f 117/4/2 118/4/2 121/4/2
f 121/4/2 118/4/2 122/4/2
f 122/4/2 118/4/2 123/4/2
f 118/1/2 119/1/2 124/1/2
f 123/4/2 118/4/2 124/4/2
f 119/4/2 112/4/2 125/4/2
f 124/1/2 119/1/2 125/1/2
f 125/4/2 112/4/2 126/4/2
f 120/1/2 121/1/2 127/1/2
f 121/6/2 122/6/2 128/6/2
f 127/1/2 121/1/2 128/1/2
f 128/6/2 122/6/2 129/6/2
f 122/1/2 123/1/2 130/1/2
f 129/6/2 122/6/2 130/6/2
f 123/6/2 124/6/2 131/6/2
f 130/1/2 123/1/2 131/1/2
f 124/6/2 125/6/2 131/6/2
f 125/6/2 126/6/2 131/6/2
f 131/6/2 126/6/2 132/6/2
f 132/6/2 126/6/2 133/6/2
f 128/1/2 129/1/2 134/1/2
f 129/6/2 130/6/2 135/6/2
f 134/1/2 129/1/2 135/1/2
f 131/6/2 132/6/2 135/6/2
f 130/6/2 131/6/2 135/6/2
f 135/6/2 132/6/2 136/6/2
f 136/6/2 132/6/2 137/6/2
f 134/6/2 135/6/2 138/6/2
f 135/6/2 136/6/2 138/6/2
f 136/1/2 137/1/2 138/1/2
f 137/6/2 132/6/2 139/6/2
f 138/1/2 137/1/2 139/1/2
f 134/6/2 138/6/2 140/6/2
f 138/6/2 139/6/2 140/6/2
f 140/6/2 139/6/2 141/6/2
f 134/6/2 140/6/2 142/6/2
f 140/1/2 141/1/2 142/1/2
f 141/6/2 139/6/2 143/6/2
f 142/1/2 141/1/2 143/1/2
f 134/6/2 142/6/2 144/6/2
f 142/6/2 143/6/2 144/6/2
f 139/6/2 132/6/2 145/6/2
f 144/6/2 143/6/2 145/6/2
f 143/6/2 139/6/2 145/6/2
f 150/1/3 147/1/3 146/1/3
f 151/5/3 148/5/3 147/5/3
f 151/1/3 147/1/3 150/1/3
f 152/6/3 149/6/3 148/6/3
f 152/5/3 148/5/3 151/5/3
f 153/6/3 149/6/3 152/6/3
f 155/4/3 151/4/3 150/4/3
f 155/4/3 152/4/3 151/4/3
f 156/4/3 152/4/3 155/4/3
f 157/6/3 156/6/3 155/6/3
f 158/4/3 152/4/3 156/4/3
f 158/6/3 156/6/3 157/6/3
f 159/6/3 154/6/3 153/6/3
f 159/4/3 152/4/3 158/4/3
f 159/6/3 153/6/3 152/6/3
f 160/6/3 154/6/3 159/6/3
f 161/6/3 154/6/3 160/6/3
f 162/6/3 154/6/3 161/6/3
f 163/1/3 158/1/3 157/1/3
f 164/4/3 159/4/3 158/4/3
f 164/1/3 158/1/3 163/1/3
f 165/1/3 160/1/3 159/1/3
f 165/4/3 159/4/3 164/4/3
f 166/6/3 161/6/3 160/6/3
f 166/1/3 160/1/3 165/1/3
f 167/1/3 162/1/3 161/1/3
f 167/6/3 161/6/3 166/6/3
f 168/6/3 154/6/3 162/6/3
f 168/1/3 162/1/3 167/1/3
f 169/6/3 167/6/3 166/6/3
f 169/4/3 164/4/3 163/4/3
f 169/6/3 168/6/3 167/6/3
f 169/6/3 166/6/3 165/6/3
f 169/4/3 165/4/3 164/4/3
f 170/6/3 168/6/3 169/6/3
f 171/4/3 169/4/3 163/4/3
f 171/1/3 170/1/3 169/1/3
f 172/6/3 168/6/3 170/6/3
f 172/1/3 170/1/3 171/1/3
f 173/4/3 171/4/3 163/4/3
f 174/6/3 172/6/3 171/6/3
f 174/4/3 171/4/3 173/4/3
f 175/6/3 168/6/3 172/6/3
f 175/6/3 172/6/3 174/6/3
f 176/6/3 154/6/3 168/6/3
f 176/6/3 168/6/3 175/6/3
f 177/4/3 173/4/3 163/4/3
f 178/5/3 174/5/3 173/5/3
f 178/4/3 173/4/3 177/4/3
f 179/1/3 175/1/3 174/1/3
f 179/5/3 174/5/3 178/5/3
f 180/1/3 175/1/3 179/1/3
f 183/6/3 182/6/3 181/6/3
f 184/6/3 182/6/3 183/6/3
f 188/3/3 185/3/3 184/3/3
f 189/3/3 185/3/3 188/3/3
f 190/1/3 187/1/3 186/1/3
f 191/6/3 188/6/3 187/6/3
f 191/1/3 187/1/3 190/1/3
f 192/6/3 188/6/3 191/6/3
f 195/3/3 194/3/3 193/3/3
f 196/3/3 194/3/3 195/3/3
f 199/3/3 198/3/3 197/3/3
f 202/3/3 199/3/3 197/3/3
f 202/3/3 200/3/3 199/3/3
f 203/2/3 201/2/3 200/2/3
f 203/3/3 200/3/3 202/3/3
f 204/2/3 201/2/3 203/2/3
f 205/3/3 202/3/3 197/3/3
f 206/3/3 202/3/3 205/3/3
f 210/3/3 208/3/3 207/3/3
f 211/2/3 209/2/3 208/2/3
f 211/3/3 208/3/3 210/3/3
f 212/2/3 209/2/3 211/2/3
f 216/3/3 214/3/3 213/3/3
f 217/2/3 215/2/3 214/2/3
f 217/3/3 214/3/3 216/3/3
f 218/2/3 215/2/3 217/2/3
f 219/3/4 220/3/4 222/3/4
f 220/2/4 221/2/4 223/2/4
f 222/3/4 220/3/4 223/3/4
f 223/2/4 221/2/4 224/2/4
f 225/3/4 226/3/4 228/3/4
f 226/2/4 227/2/4 229/2/4
f 228/3/4 226/3/4 229/3/4
f 229/2/4 227/2/4 230/2/4
f 231/3/4 232/3/4 233/3/4
f 231/3/4 233/3/4 236/3/4
f 233/3/4 234/3/4 236/3/4
f 234/2/4 235/2/4 237/2/4
f 236/3/4 234/3/4 237/3/4
f 237/2/4 235/2/4 238/2/4
f 231/3/4 236/3/4 239/3/4
f 239/3/4 236/3/4 240/3/4
f 241/3/4 242/3/4 243/3/4
f 243/3/4 242/3/4 244/3/4
f 245/6/4 246/6/4 247/6/4
f 247/6/4 246/6/4 248/6/4
f 248/6/4 246/6/4 249/6/4
f 249/6/4 246/6/4 250/6/4
f 250/3/4 251/3/4 253/3/4
f 253/3/4 251/3/4 254/3/4
f 252/6/4 253/6/4 255/6/4
f 255/6/4 253/6/4 256/6/4
f 258/6/4 259/6/4 260/6/4
f 260/6/4 261/6/4 264/6/4
f 261/5/4 262/5/4 264/5/4
f 262/6/4 263/6/4 265/6/4
f 264/5/4 262/5/4 265/5/4
f 257/4/4 258/4/4 266/4/4
f 266/4/4 258/4/4 267/4/4
f 266/1/4 267/1/4 268/1/4
f 267/4/4 258/4/4 269/4/4
f 268/1/4 267/1/4 269/1/4
f 268/4/4 269/4/4 270/4/4
f 269/4/4 258/4/4 270/4/4
f 258/6/4 260/6/4 271/6/4
f 270/4/4 258/4/4 271/4/4
f 260/6/4 264/6/4 271/6/4
f 264/6/4 265/6/4 271/6/4
f 271/6/4 265/6/4 272/6/4
f 265/6/4 263/6/4 273/6/4
f 272/6/4 265/6/4 273/6/4
f 271/6/4 272/6/4 274/6/4
f 270/6/4 271/6/4 274/6/4
f 272/1/4 273/1/4 274/1/4
f 273/6/4 263/6/4 275/6/4
f 274/1/4 273/1/4 275/1/4
f 270/6/4 274/6/4 276/6/4
f 268/4/4 270/4/4 276/4/4
f 274/6/4 275/6/4 276/6/4
f 276/6/4 275/6/4 277/6/4
f 277/6/4 275/6/4 278/6/4
f 278/6/4 275/6/4 279/6/4
f 277/6/4 278/6/4 280/6/4
f 278/1/4 279/1/4 280/1/4
f 279/6/4 275/6/4 281/6/4
f 280/1/4 279/1/4 281/1/4
f 277/6/4 280/6/4 282/6/4
f 280/6/4 281/6/4 282/6/4
f 275/6/4 263/6/4 283/6/4
f 282/6/4 281/6/4 283/6/4
f 281/6/4 275/6/4 283/6/4
f 268/4/4 276/4/4 284/4/4
f 276/4/4 277/4/4 284/4/4
f 277/6/4 282/6/4 285/6/4
f 284/4/4 277/4/4 285/4/4
f 285/6/4 282/6/4 286/6/4
f 293/1/5 288/1/5 287/1/5
f 294/4/5 289/4/5 288/4/5
f 294/1/5 288/1/5 293/1/5
f 295/6/5 290/6/5 289/6/5
f 295/4/5 289/4/5 294/4/5
f 296/1/5 291/1/5 290/1/5
f 296/6/5 290/6/5 295/6/5
f 297/4/5 292/4/5 291/4/5
f 297/1/5 291/1/5 296/1/5
f 298/4/5 296/4/5 295/4/5
f 298/4/5 294/4/5 293/4/5
f 298/4/5 297/4/5 296/4/5
f 298/4/5 295/4/5 294/4/5
f 299/4/5 297/4/5 298/4/5
f 300/4/5 292/4/5 297/4/5
f 300/4/5 297/4/5 299/4/5
f 301/4/5 292/4/5 300/4/5
f 302/4/5 300/4/5 299/4/5
f 302/5/5 301/5/5 300/5/5
f 303/5/5 301/5/5 302/5/5
f 304/6/5 299/6/5 298/6/5
f 305/4/5 302/4/5 299/4/5
f 305/6/5 299/6/5 304/6/5
f 306/1/5 303/1/5 302/1/5
f 306/4/5 302/4/5 305/4/5
f 307/1/5 303/1/5 306/1/5
f 308/4/5 305/4/5 304/4/5
f 308/4/5 306/4/5 305/4/5
f 308/4/5 307/4/5 306/4/5
f 309/4/5 307/4/5 308/4/5
f 310/4/5 308/4/5 304/4/5
f 311/1/5 309/1/5 308/1/5
f 311/4/5 308/4/5 310/4/5
f 312/4/5 307/4/5 309/4/5
f 312/1/5 309/1/5 311/1/5
f 313/4/5 307/4/5 312/4/5
f 314/6/6 315/6/6 318/6/6
f 318/6/6 315/6/6 319/6/6
f 316/1/6 317/1/6 320/1/6
f 320/1/6 317/1/6 321/1/6
f 322/6/6 323/6/6 326/6/6
f 326/6/6 323/6/6 327/6/6
f 324/6/6 325/6/6 328/6/6
f 328/6/6 325/6/6 329/6/6
f 330/6/6 331/6/6 333/6/6
f 333/6/6 331/6/6 334/6/6
f 332/6/6 333/6/6 336/6/6
f 336/6/6 333/6/6 337/6/6
f 334/6/6 335/6/6 338/6/6
f 338/6/6 335/6/6 339/6/6
f 337/6/6 338/6/6 340/6/6
f 340/6/6 338/6/6 341/6/6
f 342/3/6 343/3/6 344/3/6
f 344/3/6 343/3/6 345/3/6
f 342/3/6 344/3/6 346/3/6
f 345/3/6 343/3/6 347/3/6
f 342/3/6 346/3/6 348/3/6
f 346/3/6 347/3/6 348/3/6
f 347/3/6 343/3/6 349/3/6
f 348/3/6 347/3/6 349/3/6
f 350/3/6 351/3/6 352/3/6
f 352/3/6 351/3/6 353/3/6
f 350/3/6 352/3/6 354/3/6
f 353/3/6 351/3/6 355/3/6
f 350/3/6 354/3/6 356/3/6
f 354/3/6 355/3/6 356/3/6
f 355/3/6 351/3/6 357/3/6
f 356/3/6 355/3/6 357/3/6
f 358/3/6 359/3/6 362/3/6
f 362/3/6 359/3/6 363/3/6
f 360/3/6 361/3/6 364/3/6
f 364/3/6 361/3/6 365/3/6
f 366/3/6 367/3/6 370/3/6
f 370/3/6 367/3/6 371/3/6
f 368/3/6 369/3/6 372/3/6
f 372/3/6 369/3/6 373/3/6
f 374/2/6 375/2/6 377/2/6
f 377/2/6 375/2/6 378/2/6
f 376/2/6 377/2/6 380/2/6
f 378/2/6 379/2/6 380/2/6
f 377/2/6 378/2/6 380/2/6
f 380/2/6 379/2/6 381/2/6
f 381/2/6 379/2/6 382/2/6
f 382/2/6 379/2/6 383/2/6
f 381/2/6 382/2/6 384/2/6
f 384/2/6 382/2/6 385/2/6
