# MagicaVoxel @ Ephtracy

# group
o 

# material
mtllib pistol.mtl
usemtl palette

# normals
vn -1 0 0
vn 1 0 0
vn 0 0 1
vn 0 0 -1
vn 0 -1 0
vn 0 1 0

# texcoords
vt 0.970703 0.5
vt 0.978516 0.5
vt 0.982422 0.5
vt 0.986328 0.5
vt 0.990234 0.5

# verts
v 1.8 -4 3.2
v 1.8 -4 2.8
v 1.8 -3.8 3.2
v 1.8 -3.8 2.8
v 2 -5.2 3.2
v 2 -5.2 2.8
v 2 -5 3.2
v 2 -5 2.8
v 2 -4.4 3.2
v 2 -4.4 2.8
v 2 -4.4 2.6
v 2 -4.2 3.4
v 2 -4.2 3.2
v 2 -4.2 2.8
v 2 -4.2 2.6
v 2 -4.2 2.4
v 2 -4 3.2
v 2 -4 2.8
v 2 -4 2.6
v 2 -4 2.4
v 2 -4 1.2
v 2 -3.8 3.4
v 2 -3.8 3.2
v 2 -3.8 3
v 2 -3.8 2.8
v 2 -3.8 1.4
v 2 -3.6 3.2
v 2 -3.6 3
v 2 -3.6 2.8
v 2 -3.6 1.4
v 2 -3.6 1.2
v 2 -3.4 3
v 2 -3.4 2.8
v 2 -3.4 1.4
v 2 -3.4 1.2
v 2.1 -4.3 2.6
v 2.1 -4.3 2.5
v 2.1 -4.2 2.6
v 2.1 -4.2 2.5
v 2.3 -4.3 2.6
v 2.3 -4.3 2.5
v 2.3 -4.2 2.6
v 2.3 -4.2 2.5
v 2.4 -5.2 3.2
v 2.4 -5.2 2.8
v 2.4 -5 3.2
v 2.4 -5 2.8
v 2.4 -4.4 3.2
v 2.4 -4.4 2.8
v 2.4 -4.4 2.6
v 2.4 -4.2 3.4
v 2.4 -4.2 3.2
v 2.4 -4.2 2.8
v 2.4 -4.2 2.6
v 2.4 -4.2 2.4
v 2.4 -4 3.2
v 2.4 -4 2.8
v 2.4 -4 2.6
v 2.4 -4 2.4
v 2.4 -4 1.2
v 2.4 -3.8 3.4
v 2.4 -3.8 3.2
v 2.4 -3.8 3
v 2.4 -3.8 2.8
v 2.4 -3.8 1.4
v 2.4 -3.6 3.2
v 2.4 -3.6 3
v 2.4 -3.6 2.8
v 2.4 -3.6 1.4
v 2.4 -3.6 1.2
v 2.4 -3.4 3
v 2.4 -3.4 2.8
v 2.4 -3.4 1.4
v 2.4 -3.4 1.2
v 2.6 -4 3.2
v 2.6 -4 2.8
v 2.6 -3.8 3.2
v 2.6 -3.8 2.8
v 2 -4.2 3.4
v 2 -3.8 3.4
v 2.4 -4.2 3.4
v 2.4 -3.8 3.4
v 1.8 -4 3.2
v 1.8 -3.8 3.2
v 2 -5.2 3.2
v 2 -5 3.2
v 2 -4.4 3.2
v 2 -4.2 3.2
v 2 -4 3.2
v 2 -3.8 3.2
v 2 -3.6 3.2
v 2.1 -5 3.2
v 2.1 -4.9 3.2
v 2.3 -5 3.2
v 2.3 -4.9 3.2
v 2.4 -5.2 3.2
v 2.4 -5 3.2
v 2.4 -4.4 3.2
v 2.4 -4.2 3.2
v 2.4 -4 3.2
v 2.4 -3.8 3.2
v 2.4 -3.6 3.2
v 2.6 -4 3.2
v 2.6 -3.8 3.2
v 2 -3.6 3
v 2 -3.4 3
v 2.1 -3.5 3
v 2.1 -3.4 3
v 2.3 -3.5 3
v 2.3 -3.4 3
v 2.4 -3.6 3
v 2.4 -3.4 3
v 2 -4.2 2.6
v 2 -4 2.6
v 2.4 -4.2 2.6
v 2.4 -4 2.6
v 2 -3.6 1.4
v 2 -3.4 1.4
v 2.1 -3.5 1.4
v 2.1 -3.4 1.4
v 2.3 -3.5 1.4
v 2.3 -3.4 1.4
v 2.4 -3.6 1.4
v 2.4 -3.4 1.4
v 1.8 -4 2.8
v 1.8 -3.8 2.8
v 2 -5.2 2.8
v 2 -5 2.8
v 2 -4.4 2.8
v 2 -4.2 2.8
v 2 -4 2.8
v 2 -3.8 2.8
v 2 -3.6 2.8
v 2 -3.4 2.8
v 2.1 -5 2.8
v 2.1 -4.9 2.8
v 2.3 -5 2.8
v 2.3 -4.9 2.8
v 2.4 -5.2 2.8
v 2.4 -5 2.8
v 2.4 -4.4 2.8
v 2.4 -4.2 2.8
v 2.4 -4 2.8
v 2.4 -3.8 2.8
v 2.4 -3.6 2.8
v 2.4 -3.4 2.8
v 2.6 -4 2.8
v 2.6 -3.8 2.8
v 2 -4.4 2.6
v 2 -4.2 2.6
v 2.1 -4.3 2.6
v 2.1 -4.2 2.6
v 2.3 -4.3 2.6
v 2.3 -4.2 2.6
v 2.4 -4.4 2.6
v 2.4 -4.2 2.6
v 2.1 -4.3 2.5
v 2.1 -4.2 2.5
v 2.3 -4.3 2.5
v 2.3 -4.2 2.5
v 2 -4.2 2.4
v 2 -4 2.4
v 2.4 -4.2 2.4
v 2.4 -4 2.4
v 2 -4 1.2
v 2 -3.6 1.2
v 2 -3.4 1.2
v 2.1 -3.9 1.2
v 2.1 -3.7 1.2
v 2.3 -3.9 1.2
v 2.3 -3.7 1.2
v 2.4 -4 1.2
v 2.4 -3.6 1.2
v 2.4 -3.4 1.2
v 2 -5.2 3.2
v 2.4 -5.2 3.2
v 2 -5.2 2.8
v 2.4 -5.2 2.8
v 2 -4.4 2.8
v 2.4 -4.4 2.8
v 2 -4.4 2.6
v 2.4 -4.4 2.6
v 2.1 -4.3 2.6
v 2.3 -4.3 2.6
v 2.1 -4.3 2.5
v 2.3 -4.3 2.5
v 2 -4.2 3.4
v 2.4 -4.2 3.4
v 2 -4.2 3.2
v 2.4 -4.2 3.2
v 2 -4.2 2.6
v 2.1 -4.2 2.6
v 2.3 -4.2 2.6
v 2.4 -4.2 2.6
v 2.1 -4.2 2.5
v 2.3 -4.2 2.5
v 2 -4.2 2.4
v 2.4 -4.2 2.4
v 1.8 -4 3.2
v 2 -4 3.2
v 2.4 -4 3.2
v 2.6 -4 3.2
v 1.8 -4 2.8
v 2 -4 2.8
v 2.4 -4 2.8
v 2.6 -4 2.8
v 2 -4 2.6
v 2.4 -4 2.6
v 2 -4 2.4
v 2.4 -4 2.4
v 2 -4 1.2
v 2.4 -4 1.2
v 2 -4.2 2.8
v 2.4 -4.2 2.8
v 2 -4.2 2.6
v 2.4 -4.2 2.6
v 2 -3.8 3.4
v 2.4 -3.8 3.4
v 1.8 -3.8 3.2
v 2 -3.8 3.2
v 2.4 -3.8 3.2
v 2.6 -3.8 3.2
v 2 -3.8 3
v 2.4 -3.8 3
v 1.8 -3.8 2.8
v 2 -3.8 2.8
v 2.4 -3.8 2.8
v 2.6 -3.8 2.8
v 2 -3.6 3.2
v 2.4 -3.6 3.2
v 2 -3.6 3
v 2.4 -3.6 3
v 2 -3.6 2.8
v 2.4 -3.6 2.8
v 2 -3.6 1.4
v 2.4 -3.6 1.4
v 2 -3.4 3
v 2.1 -3.4 3
v 2.3 -3.4 3
v 2.4 -3.4 3
v 2.1 -3.4 2.9
v 2.3 -3.4 2.9
v 2 -3.4 2.8
v 2.4 -3.4 2.8
v 2 -3.4 1.4
v 2.1 -3.4 1.4
v 2.3 -3.4 1.4
v 2.4 -3.4 1.4
v 2.1 -3.4 1.3
v 2.3 -3.4 1.3
v 2 -3.4 1.2
v 2.4 -3.4 1.2

# faces
f 3/4/1 2/4/1 1/4/1
f 4/4/1 2/4/1 3/4/1
f 7/5/1 6/5/1 5/5/1
f 8/5/1 6/5/1 7/5/1
f 9/4/1 8/4/1 7/4/1
f 10/4/1 8/4/1 9/4/1
f 13/5/1 10/5/1 9/5/1
f 14/3/1 11/3/1 10/3/1
f 14/5/1 10/5/1 13/5/1
f 15/3/1 11/3/1 14/3/1
f 17/3/1 13/3/1 12/3/1
f 17/3/1 14/3/1 13/3/1
f 18/3/1 14/3/1 17/3/1
f 19/3/1 16/3/1 15/3/1
f 20/3/1 16/3/1 19/3/1
f 22/3/1 17/3/1 12/3/1
f 23/3/1 17/3/1 22/3/1
f 25/3/1 21/3/1 20/3/1
f 25/3/1 20/3/1 19/3/1
f 25/3/1 19/3/1 18/3/1
f 26/3/1 21/3/1 25/3/1
f 27/2/1 24/2/1 23/2/1
f 28/3/1 25/3/1 24/3/1
f 28/2/1 24/2/1 27/2/1
f 29/2/1 26/2/1 25/2/1
f 29/3/1 25/3/1 28/3/1
f 30/3/1 21/3/1 26/3/1
f 30/2/1 26/2/1 29/2/1
f 31/3/1 21/3/1 30/3/1
f 32/4/1 29/4/1 28/4/1
f 33/4/1 29/4/1 32/4/1
f 34/4/1 31/4/1 30/4/1
f 35/4/1 31/4/1 34/4/1
f 38/3/1 37/3/1 36/3/1
f 39/3/1 37/3/1 38/3/1
f 40/3/2 41/3/2 42/3/2
f 42/3/2 41/3/2 43/3/2
f 44/5/2 45/5/2 46/5/2
f 46/5/2 45/5/2 47/5/2
f 46/4/2 47/4/2 48/4/2
f 48/4/2 47/4/2 49/4/2
f 48/5/2 49/5/2 52/5/2
f 49/3/2 50/3/2 53/3/2
f 52/5/2 49/5/2 53/5/2
f 53/3/2 50/3/2 54/3/2
f 51/3/2 52/3/2 56/3/2
f 52/3/2 53/3/2 56/3/2
f 56/3/2 53/3/2 57/3/2
f 54/3/2 55/3/2 58/3/2
f 58/3/2 55/3/2 59/3/2
f 51/3/2 56/3/2 61/3/2
f 61/3/2 56/3/2 62/3/2
f 59/3/2 60/3/2 64/3/2
f 58/3/2 59/3/2 64/3/2
f 57/3/2 58/3/2 64/3/2
f 64/3/2 60/3/2 65/3/2
f 62/2/2 63/2/2 66/2/2
f 63/3/2 64/3/2 67/3/2
f 66/2/2 63/2/2 67/2/2
f 64/2/2 65/2/2 68/2/2
f 67/3/2 64/3/2 68/3/2
f 65/3/2 60/3/2 69/3/2
f 68/2/2 65/2/2 69/2/2
f 69/3/2 60/3/2 70/3/2
f 67/4/2 68/4/2 71/4/2
f 71/4/2 68/4/2 72/4/2
f 69/4/2 70/4/2 73/4/2
f 73/4/2 70/4/2 74/4/2
f 75/4/2 76/4/2 77/4/2
f 77/4/2 76/4/2 78/4/2
f 81/3/3 80/3/3 79/3/3
f 82/3/3 80/3/3 81/3/3
f 89/4/3 84/4/3 83/4/3
f 90/4/3 84/4/3 89/4/3
f 92/5/3 86/5/3 85/5/3
f 92/4/3 87/4/3 86/4/3
f 93/4/3 87/4/3 92/4/3
f 94/5/3 92/5/3 85/5/3
f 94/5/3 93/5/3 92/5/3
f 95/4/3 87/4/3 93/4/3
f 95/5/3 93/5/3 94/5/3
f 96/5/3 94/5/3 85/5/3
f 97/4/3 95/4/3 94/4/3
f 97/5/3 94/5/3 96/5/3
f 98/5/3 88/5/3 87/5/3
f 98/4/3 95/4/3 97/4/3
f 98/4/3 87/4/3 95/4/3
f 99/5/3 88/5/3 98/5/3
f 101/2/3 91/2/3 90/2/3
f 102/2/3 91/2/3 101/2/3
f 103/4/3 101/4/3 100/4/3
f 104/4/3 101/4/3 103/4/3
f 107/4/3 106/4/3 105/4/3
f 108/4/3 106/4/3 107/4/3
f 109/4/3 107/4/3 105/4/3
f 109/1/3 108/1/3 107/1/3
f 110/1/3 108/1/3 109/1/3
f 111/4/3 109/4/3 105/4/3
f 111/4/3 110/4/3 109/4/3
f 112/4/3 110/4/3 111/4/3
f 115/3/3 114/3/3 113/3/3
f 116/3/3 114/3/3 115/3/3
f 119/4/3 118/4/3 117/4/3
f 120/4/3 118/4/3 119/4/3
f 121/4/3 119/4/3 117/4/3
f 121/1/3 120/1/3 119/1/3
f 122/1/3 120/1/3 121/1/3
f 123/4/3 121/4/3 117/4/3
f 123/4/3 122/4/3 121/4/3
f 124/4/3 122/4/3 123/4/3
f 125/4/4 126/4/4 131/4/4
f 131/4/4 126/4/4 132/4/4
f 128/4/4 129/4/4 135/4/4
f 127/5/4 128/5/4 135/5/4
f 135/4/4 129/4/4 136/4/4
f 127/5/4 135/5/4 137/5/4
f 135/5/4 136/5/4 137/5/4
f 136/4/4 129/4/4 138/4/4
f 137/5/4 136/5/4 138/5/4
f 127/5/4 137/5/4 139/5/4
f 137/4/4 138/4/4 140/4/4
f 139/5/4 137/5/4 140/5/4
f 138/4/4 129/4/4 141/4/4
f 140/4/4 138/4/4 141/4/4
f 130/3/4 131/3/4 142/3/4
f 142/3/4 131/3/4 143/3/4
f 133/4/4 134/4/4 145/4/4
f 145/4/4 134/4/4 146/4/4
f 143/4/4 144/4/4 147/4/4
f 147/4/4 144/4/4 148/4/4
f 149/3/4 150/3/4 151/3/4
f 151/3/4 150/3/4 152/3/4
f 149/3/4 151/3/4 153/3/4
f 149/3/4 153/3/4 155/3/4
f 153/3/4 154/3/4 155/3/4
f 155/3/4 154/3/4 156/3/4
f 157/3/4 158/3/4 159/3/4
f 159/3/4 158/3/4 160/3/4
f 161/3/4 162/3/4 163/3/4
f 163/3/4 162/3/4 164/3/4
f 165/3/4 166/3/4 168/3/4
f 168/3/4 166/3/4 169/3/4
f 165/3/4 168/3/4 170/3/4
f 168/5/4 169/5/4 170/5/4
f 169/3/4 166/3/4 171/3/4
f 170/5/4 169/5/4 171/5/4
f 165/3/4 170/3/4 172/3/4
f 170/3/4 171/3/4 172/3/4
f 166/4/4 167/4/4 173/4/4
f 172/3/4 171/3/4 173/3/4
f 171/3/4 166/3/4 173/3/4
f 173/4/4 167/4/4 174/4/4
f 177/5/5 176/5/5 175/5/5
f 178/5/5 176/5/5 177/5/5
f 181/3/5 180/3/5 179/3/5
f 182/3/5 180/3/5 181/3/5
f 185/3/5 184/3/5 183/3/5
f 186/3/5 184/3/5 185/3/5
f 189/3/5 188/3/5 187/3/5
f 190/3/5 188/3/5 189/3/5
f 195/3/5 192/3/5 191/3/5
f 196/3/5 194/3/5 193/3/5
f 197/3/5 195/3/5 191/3/5
f 197/3/5 196/3/5 195/3/5
f 198/3/5 194/3/5 196/3/5
f 198/3/5 196/3/5 197/3/5
f 203/4/5 200/4/5 199/4/5
f 204/4/5 200/4/5 203/4/5
f 205/4/5 202/4/5 201/4/5
f 206/4/5 202/4/5 205/4/5
f 207/3/5 205/3/5 204/3/5
f 208/3/5 205/3/5 207/3/5
f 211/3/5 210/3/5 209/3/5
f 212/3/5 210/3/5 211/3/5
f 213/3/6 214/3/6 215/3/6
f 215/3/6 214/3/6 216/3/6
f 217/3/6 218/3/6 220/3/6
f 220/3/6 218/3/6 221/3/6
f 219/4/6 220/4/6 223/4/6
f 221/4/6 222/4/6 224/4/6
f 219/4/6 223/4/6 225/4/6
f 225/4/6 223/4/6 226/4/6
f 224/4/6 222/4/6 227/4/6
f 227/4/6 222/4/6 228/4/6
f 229/2/6 230/2/6 231/2/6
f 231/2/6 230/2/6 232/2/6
f 233/2/6 234/2/6 235/2/6
f 235/2/6 234/2/6 236/2/6
f 237/4/6 238/4/6 241/4/6
f 238/1/6 239/1/6 241/1/6
f 239/4/6 240/4/6 242/4/6
f 241/1/6 239/1/6 242/1/6
f 237/4/6 241/4/6 243/4/6
f 241/4/6 242/4/6 243/4/6
f 242/4/6 240/4/6 244/4/6
f 243/4/6 242/4/6 244/4/6
f 245/4/6 246/4/6 249/4/6
f 246/1/6 247/1/6 249/1/6
f 247/4/6 248/4/6 250/4/6
f 249/1/6 247/1/6 250/1/6
f 245/4/6 249/4/6 251/4/6
f 249/4/6 250/4/6 251/4/6
f 250/4/6 248/4/6 252/4/6
f 251/4/6 250/4/6 252/4/6
