# MagicaVoxel @ Ephtracy

# group
o 

# material
mtllib gas station project-14.mtl
usemtl palette

# normals
vn -1 0 0
vn 1 0 0
vn 0 0 1
vn 0 0 -1
vn 0 -1 0
vn 0 1 0

# texcoords
vt 0.251953 0.5
vt 0.908203 0.5

# verts
v -50.6 1.3 -12.8
v -50.6 1.3 -38.4
v -50.6 1.4 -12.8
v -50.6 1.4 -38.4
v -25 1.3 -12.8
v -25 1.3 -38.4
v -25 1.4 -12.8
v -25 1.4 -38.4
v -50.6 1.3 -12.8
v -50.6 1.4 -12.8
v -25 1.3 -12.8
v -25 1.4 -12.8
v -50.6 1.3 -38.4
v -50.6 1.4 -38.4
v -25 1.3 -38.4
v -25 1.4 -38.4
v -50.6 1.3 -12.8
v -25 1.3 -12.8
v -38.5 1.3 -14.6
v -38 1.3 -14.6
v -38.5 1.3 -18.5
v -38 1.3 -18.5
v -38.5 1.3 -20.6
v -38 1.3 -20.6
v -38.5 1.3 -24.5
v -38 1.3 -24.5
v -38.5 1.3 -26.8
v -38 1.3 -26.8
v -38.5 1.3 -30.7
v -38 1.3 -30.7
v -38.5 1.3 -32.8
v -38 1.3 -32.8
v -38.5 1.3 -36.7
v -38 1.3 -36.7
v -50.6 1.3 -38.4
v -25 1.3 -38.4
v -50.6 1.4 -12.8
v -25 1.4 -12.8
v -38.5 1.4 -14.6
v -38 1.4 -14.6
v -38.5 1.4 -18.5
v -38 1.4 -18.5
v -38.5 1.4 -20.6
v -38 1.4 -20.6
v -38.5 1.4 -24.5
v -38 1.4 -24.5
v -38.5 1.4 -26.8
v -38 1.4 -26.8
v -38.5 1.4 -30.7
v -38 1.4 -30.7
v -38.5 1.4 -32.8
v -38 1.4 -32.8
v -38.5 1.4 -36.7
v -38 1.4 -36.7
v -50.6 1.4 -38.4
v -25 1.4 -38.4

# faces
f 3/2/1 2/2/1 1/2/1
f 4/2/1 2/2/1 3/2/1
f 5/2/2 6/2/2 7/2/2
f 7/2/2 6/2/2 8/2/2
f 11/2/3 10/2/3 9/2/3
f 12/2/3 10/2/3 11/2/3
f 13/2/4 14/2/4 15/2/4
f 15/2/4 14/2/4 16/2/4
f 19/2/5 18/2/5 17/2/5
f 20/2/5 18/2/5 19/2/5
f 21/2/5 19/2/5 17/2/5
f 21/1/5 20/1/5 19/1/5
f 22/2/5 18/2/5 20/2/5
f 22/1/5 20/1/5 21/1/5
f 23/2/5 21/2/5 17/2/5
f 23/2/5 22/2/5 21/2/5
f 24/2/5 18/2/5 22/2/5
f 24/2/5 22/2/5 23/2/5
f 25/2/5 23/2/5 17/2/5
f 25/1/5 24/1/5 23/1/5
f 26/2/5 18/2/5 24/2/5
f 26/1/5 24/1/5 25/1/5
f 27/2/5 25/2/5 17/2/5
f 27/2/5 26/2/5 25/2/5
f 28/2/5 18/2/5 26/2/5
f 28/2/5 26/2/5 27/2/5
f 29/2/5 27/2/5 17/2/5
f 29/1/5 28/1/5 27/1/5
f 30/2/5 18/2/5 28/2/5
f 30/1/5 28/1/5 29/1/5
f 31/2/5 29/2/5 17/2/5
f 31/2/5 30/2/5 29/2/5
f 32/2/5 18/2/5 30/2/5
f 32/2/5 30/2/5 31/2/5
f 33/2/5 31/2/5 17/2/5
f 33/1/5 32/1/5 31/1/5
f 34/2/5 18/2/5 32/2/5
f 34/1/5 32/1/5 33/1/5
f 35/2/5 33/2/5 17/2/5
f 35/2/5 34/2/5 33/2/5
f 36/2/5 18/2/5 34/2/5
f 36/2/5 34/2/5 35/2/5
f 37/2/6 38/2/6 39/2/6
f 39/2/6 38/2/6 40/2/6
f 37/2/6 39/2/6 41/2/6
f 39/1/6 40/1/6 41/1/6
f 40/2/6 38/2/6 42/2/6
f 41/1/6 40/1/6 42/1/6
f 37/2/6 41/2/6 43/2/6
f 41/2/6 42/2/6 43/2/6
f 42/2/6 38/2/6 44/2/6
f 43/2/6 42/2/6 44/2/6
f 37/2/6 43/2/6 45/2/6
f 43/1/6 44/1/6 45/1/6
f 44/2/6 38/2/6 46/2/6
f 45/1/6 44/1/6 46/1/6
f 37/2/6 45/2/6 47/2/6
f 45/2/6 46/2/6 47/2/6
f 46/2/6 38/2/6 48/2/6
f 47/2/6 46/2/6 48/2/6
f 37/2/6 47/2/6 49/2/6
f 47/1/6 48/1/6 49/1/6
f 48/2/6 38/2/6 50/2/6
f 49/1/6 48/1/6 50/1/6
f 37/2/6 49/2/6 51/2/6
f 49/2/6 50/2/6 51/2/6
f 50/2/6 38/2/6 52/2/6
f 51/2/6 50/2/6 52/2/6
f 37/2/6 51/2/6 53/2/6
f 51/1/6 52/1/6 53/1/6
f 52/2/6 38/2/6 54/2/6
f 53/1/6 52/1/6 54/1/6
f 37/2/6 53/2/6 55/2/6
f 53/2/6 54/2/6 55/2/6
f 54/2/6 38/2/6 56/2/6
f 55/2/6 54/2/6 56/2/6
