# MagicaVoxel @ Ephtracy

# group
o 

# material
mtllib gas station project-53.mtl
usemtl palette

# normals
vn -1 0 0
vn 1 0 0
vn 0 0 1
vn 0 0 -1
vn 0 -1 0
vn 0 1 0

# texcoords
vt 0.689453 0.5
vt 0.720703 0.5
vt 0.751953 0.5

# verts
v -7.7 1.5 12.7
v -7.7 1.5 11.8
v -7.7 1.6 12.7
v -7.7 1.6 11.8
v -7.6 1.6 12.4
v -7.6 1.6 12.1
v -7.6 2 12.4
v -7.6 2 12.1
v -7.5 1.6 12.5
v -7.5 1.6 12.4
v -7.5 1.6 12.1
v -7.5 1.6 12
v -7.5 2 12.5
v -7.5 2 12.4
v -7.5 2 12.1
v -7.5 2 12
v -7.5 2.1 12.4
v -7.5 2.1 12.1
v -7.5 2.3 12.4
v -7.5 2.3 12.1
v -7.5 2.4 12.4
v -7.5 2.4 12.1
v -7.4 1.6 12.6
v -7.4 1.6 12.5
v -7.4 1.6 12
v -7.4 1.6 11.9
v -7.4 2 12.6
v -7.4 2 12.5
v -7.4 2 12.4
v -7.4 2 12.1
v -7.4 2 12
v -7.4 2 11.9
v -7.4 2.1 12.5
v -7.4 2.1 12.4
v -7.4 2.1 12.1
v -7.4 2.1 12
v -7.4 2.3 12.5
v -7.4 2.3 12.4
v -7.4 2.3 12.1
v -7.4 2.3 12
v -7.4 2.4 12.5
v -7.4 2.4 12.4
v -7.4 2.4 12.1
v -7.4 2.4 12
v -7.4 2.7 12.4
v -7.4 2.7 12.1
v -7.4 2.8 12.4
v -7.4 2.8 12.1
v -7.1 1.6 12.6
v -7.1 1.6 12.5
v -7.1 1.6 12
v -7.1 1.6 11.9
v -7.1 2 12.6
v -7.1 2 12.5
v -7.1 2 12.4
v -7.1 2 12.1
v -7.1 2 12
v -7.1 2 11.9
v -7.1 2.1 12.5
v -7.1 2.1 12.4
v -7.1 2.1 12.1
v -7.1 2.1 12
v -7.1 2.3 12.5
v -7.1 2.3 12.4
v -7.1 2.3 12.1
v -7.1 2.3 12
v -7.1 2.4 12.5
v -7.1 2.4 12.4
v -7.1 2.4 12.1
v -7.1 2.4 12
v -7.1 2.7 12.4
v -7.1 2.7 12.1
v -7.1 2.8 12.4
v -7.1 2.8 12.1
v -7 1.6 12.5
v -7 1.6 12.4
v -7 1.6 12.1
v -7 1.6 12
v -7 2 12.5
v -7 2 12.4
v -7 2 12.1
v -7 2 12
v -7 2.1 12.4
v -7 2.1 12.1
v -7 2.3 12.4
v -7 2.3 12.1
v -7 2.4 12.4
v -7 2.4 12.1
v -6.9 1.6 12.4
v -6.9 1.6 12.1
v -6.9 2 12.4
v -6.9 2 12.1
v -6.8 1.5 12.7
v -6.8 1.5 11.8
v -6.8 1.6 12.7
v -6.8 1.6 11.8
v -7.7 1.5 12.7
v -7.7 1.6 12.7
v -6.8 1.5 12.7
v -6.8 1.6 12.7
v -7.4 1.6 12.6
v -7.4 2 12.6
v -7.1 1.6 12.6
v -7.1 2 12.6
v -7.5 1.6 12.5
v -7.5 2 12.5
v -7.4 1.6 12.5
v -7.4 2 12.5
v -7.4 2.1 12.5
v -7.4 2.3 12.5
v -7.4 2.4 12.5
v -7.1 1.6 12.5
v -7.1 2 12.5
v -7.1 2.1 12.5
v -7.1 2.3 12.5
v -7.1 2.4 12.5
v -7 1.6 12.5
v -7 2 12.5
v -7.6 1.6 12.4
v -7.6 2 12.4
v -7.5 1.6 12.4
v -7.5 2 12.4
v -7.5 2.1 12.4
v -7.5 2.3 12.4
v -7.5 2.4 12.4
v -7.4 2 12.4
v -7.4 2.1 12.4
v -7.4 2.3 12.4
v -7.4 2.4 12.4
v -7.4 2.7 12.4
v -7.4 2.8 12.4
v -7.1 2 12.4
v -7.1 2.1 12.4
v -7.1 2.3 12.4
v -7.1 2.4 12.4
v -7.1 2.7 12.4
v -7.1 2.8 12.4
v -7 1.6 12.4
v -7 2 12.4
v -7 2.1 12.4
v -7 2.3 12.4
v -7 2.4 12.4
v -6.9 1.6 12.4
v -6.9 2 12.4
v -7.6 1.6 12.1
v -7.6 2 12.1
v -7.5 1.6 12.1
v -7.5 2 12.1
v -7.5 2.1 12.1
v -7.5 2.3 12.1
v -7.5 2.4 12.1
v -7.4 2 12.1
v -7.4 2.1 12.1
v -7.4 2.3 12.1
v -7.4 2.4 12.1
v -7.4 2.7 12.1
v -7.4 2.8 12.1
v -7.1 2 12.1
v -7.1 2.1 12.1
v -7.1 2.3 12.1
v -7.1 2.4 12.1
v -7.1 2.7 12.1
v -7.1 2.8 12.1
v -7 1.6 12.1
v -7 2 12.1
v -7 2.1 12.1
v -7 2.3 12.1
v -7 2.4 12.1
v -6.9 1.6 12.1
v -6.9 2 12.1
v -7.5 1.6 12
v -7.5 2 12
v -7.4 1.6 12
v -7.4 2 12
v -7.4 2.1 12
v -7.4 2.3 12
v -7.4 2.4 12
v -7.1 1.6 12
v -7.1 2 12
v -7.1 2.1 12
v -7.1 2.3 12
v -7.1 2.4 12
v -7 1.6 12
v -7 2 12
v -7.4 1.6 11.9
v -7.4 2 11.9
v -7.1 1.6 11.9
v -7.1 2 11.9
v -7.7 1.5 11.8
v -7.7 1.6 11.8
v -6.8 1.5 11.8
v -6.8 1.6 11.8
v -7.7 1.5 12.7
v -6.8 1.5 12.7
v -7.7 1.5 11.8
v -6.8 1.5 11.8
v -7.7 1.6 12.7
v -6.8 1.6 12.7
v -7.4 1.6 12.6
v -7.1 1.6 12.6
v -7.5 1.6 12.5
v -7.4 1.6 12.5
v -7.1 1.6 12.5
v -7 1.6 12.5
v -7.6 1.6 12.4
v -7.5 1.6 12.4
v -7 1.6 12.4
v -6.9 1.6 12.4
v -7.6 1.6 12.1
v -7.5 1.6 12.1
v -7 1.6 12.1
v -6.9 1.6 12.1
v -7.5 1.6 12
v -7.4 1.6 12
v -7.1 1.6 12
v -7 1.6 12
v -7.4 1.6 11.9
v -7.1 1.6 11.9
v -7.7 1.6 11.8
v -6.8 1.6 11.8
v -7.4 2 12.6
v -7.1 2 12.6
v -7.5 2 12.5
v -7.4 2 12.5
v -7.1 2 12.5
v -7 2 12.5
v -7.6 2 12.4
v -7.5 2 12.4
v -7.4 2 12.4
v -7.1 2 12.4
v -7 2 12.4
v -6.9 2 12.4
v -7.6 2 12.1
v -7.5 2 12.1
v -7.4 2 12.1
v -7.1 2 12.1
v -7 2 12.1
v -6.9 2 12.1
v -7.5 2 12
v -7.4 2 12
v -7.1 2 12
v -7 2 12
v -7.4 2 11.9
v -7.1 2 11.9
v -7.4 2.4 12.5
v -7.1 2.4 12.5
v -7.5 2.4 12.4
v -7.4 2.4 12.4
v -7.1 2.4 12.4
v -7 2.4 12.4
v -7.5 2.4 12.1
v -7.4 2.4 12.1
v -7.1 2.4 12.1
v -7 2.4 12.1
v -7.4 2.4 12
v -7.1 2.4 12
v -7.4 2.8 12.4
v -7.1 2.8 12.4
v -7.4 2.8 12.1
v -7.1 2.8 12.1

# faces
f 3/3/1 2/3/1 1/3/1
f 4/3/1 2/3/1 3/3/1
f 7/2/1 6/2/1 5/2/1
f 8/2/1 6/2/1 7/2/1
f 13/2/1 10/2/1 9/2/1
f 14/2/1 10/2/1 13/2/1
f 15/2/1 12/2/1 11/2/1
f 16/2/1 12/2/1 15/2/1
f 17/2/1 15/2/1 14/2/1
f 18/2/1 15/2/1 17/2/1
f 19/1/1 18/1/1 17/1/1
f 20/1/1 18/1/1 19/1/1
f 21/2/1 20/2/1 19/2/1
f 22/2/1 20/2/1 21/2/1
f 27/2/1 24/2/1 23/2/1
f 28/2/1 24/2/1 27/2/1
f 31/2/1 26/2/1 25/2/1
f 32/2/1 26/2/1 31/2/1
f 33/2/1 29/2/1 28/2/1
f 34/2/1 29/2/1 33/2/1
f 35/2/1 31/2/1 30/2/1
f 36/2/1 31/2/1 35/2/1
f 37/1/1 34/1/1 33/1/1
f 38/1/1 34/1/1 37/1/1
f 39/1/1 36/1/1 35/1/1
f 40/1/1 36/1/1 39/1/1
f 41/2/1 38/2/1 37/2/1
f 42/2/1 38/2/1 41/2/1
f 43/2/1 40/2/1 39/2/1
f 44/2/1 40/2/1 43/2/1
f 45/1/1 43/1/1 42/1/1
f 46/1/1 43/1/1 45/1/1
f 47/2/1 46/2/1 45/2/1
f 48/2/1 46/2/1 47/2/1
f 49/2/2 50/2/2 53/2/2
f 53/2/2 50/2/2 54/2/2
f 51/2/2 52/2/2 57/2/2
f 57/2/2 52/2/2 58/2/2
f 54/2/2 55/2/2 59/2/2
f 59/2/2 55/2/2 60/2/2
f 56/2/2 57/2/2 61/2/2
f 61/2/2 57/2/2 62/2/2
f 59/1/2 60/1/2 63/1/2
f 63/1/2 60/1/2 64/1/2
f 61/1/2 62/1/2 65/1/2
f 65/1/2 62/1/2 66/1/2
f 63/2/2 64/2/2 67/2/2
f 67/2/2 64/2/2 68/2/2
f 65/2/2 66/2/2 69/2/2
f 69/2/2 66/2/2 70/2/2
f 68/1/2 69/1/2 71/1/2
f 71/1/2 69/1/2 72/1/2
f 71/2/2 72/2/2 73/2/2
f 73/2/2 72/2/2 74/2/2
f 75/2/2 76/2/2 79/2/2
f 79/2/2 76/2/2 80/2/2
f 77/2/2 78/2/2 81/2/2
f 81/2/2 78/2/2 82/2/2
f 80/2/2 81/2/2 83/2/2
f 83/2/2 81/2/2 84/2/2
f 83/1/2 84/1/2 85/1/2
f 85/1/2 84/1/2 86/1/2
f 85/2/2 86/2/2 87/2/2
f 87/2/2 86/2/2 88/2/2
f 89/2/2 90/2/2 91/2/2
f 91/2/2 90/2/2 92/2/2
f 93/3/2 94/3/2 95/3/2
f 95/3/2 94/3/2 96/3/2
f 99/3/3 98/3/3 97/3/3
f 100/3/3 98/3/3 99/3/3
f 103/2/3 102/2/3 101/2/3
f 104/2/3 102/2/3 103/2/3
f 107/2/3 106/2/3 105/2/3
f 108/2/3 106/2/3 107/2/3
f 113/2/3 109/2/3 108/2/3
f 114/1/3 110/1/3 109/1/3
f 114/2/3 109/2/3 113/2/3
f 115/2/3 111/2/3 110/2/3
f 115/1/3 110/1/3 114/1/3
f 116/2/3 111/2/3 115/2/3
f 117/2/3 113/2/3 112/2/3
f 118/2/3 113/2/3 117/2/3
f 121/2/3 120/2/3 119/2/3
f 122/2/3 120/2/3 121/2/3
f 126/2/3 123/2/3 122/2/3
f 127/1/3 124/1/3 123/1/3
f 127/2/3 123/2/3 126/2/3
f 128/2/3 125/2/3 124/2/3
f 128/1/3 124/1/3 127/1/3
f 129/2/3 125/2/3 128/2/3
f 135/1/3 130/1/3 129/1/3
f 136/2/3 131/2/3 130/2/3
f 136/1/3 130/1/3 135/1/3
f 137/2/3 131/2/3 136/2/3
f 139/2/3 133/2/3 132/2/3
f 140/1/3 134/1/3 133/1/3
f 140/2/3 133/2/3 139/2/3
f 141/2/3 135/2/3 134/2/3
f 141/1/3 134/1/3 140/1/3
f 142/2/3 135/2/3 141/2/3
f 143/2/3 139/2/3 138/2/3
f 144/2/3 139/2/3 143/2/3
f 145/2/4 146/2/4 147/2/4
f 147/2/4 146/2/4 148/2/4
f 148/2/4 149/2/4 152/2/4
f 149/1/4 150/1/4 153/1/4
f 152/2/4 149/2/4 153/2/4
f 150/2/4 151/2/4 154/2/4
f 153/1/4 150/1/4 154/1/4
f 154/2/4 151/2/4 155/2/4
f 155/1/4 156/1/4 161/1/4
f 156/2/4 157/2/4 162/2/4
f 161/1/4 156/1/4 162/1/4
f 162/2/4 157/2/4 163/2/4
f 158/2/4 159/2/4 165/2/4
f 159/1/4 160/1/4 166/1/4
f 165/2/4 159/2/4 166/2/4
f 160/2/4 161/2/4 167/2/4
f 166/1/4 160/1/4 167/1/4
f 167/2/4 161/2/4 168/2/4
f 164/2/4 165/2/4 169/2/4
f 169/2/4 165/2/4 170/2/4
f 171/2/4 172/2/4 173/2/4
f 173/2/4 172/2/4 174/2/4
f 174/2/4 175/2/4 179/2/4
f 175/1/4 176/1/4 180/1/4
f 179/2/4 175/2/4 180/2/4
f 176/2/4 177/2/4 181/2/4
f 180/1/4 176/1/4 181/1/4
f 181/2/4 177/2/4 182/2/4
f 178/2/4 179/2/4 183/2/4
f 183/2/4 179/2/4 184/2/4
f 185/2/4 186/2/4 187/2/4
f 187/2/4 186/2/4 188/2/4
f 189/3/4 190/3/4 191/3/4
f 191/3/4 190/3/4 192/3/4
f 195/3/5 194/3/5 193/3/5
f 196/3/5 194/3/5 195/3/5
f 197/3/6 198/3/6 199/3/6
f 199/3/6 198/3/6 200/3/6
f 197/3/6 199/3/6 201/3/6
f 201/3/6 199/3/6 202/3/6
f 200/3/6 198/3/6 203/3/6
f 203/3/6 198/3/6 204/3/6
f 197/3/6 201/3/6 205/3/6
f 205/3/6 201/3/6 206/3/6
f 204/3/6 198/3/6 207/3/6
f 207/3/6 198/3/6 208/3/6
f 197/3/6 205/3/6 209/3/6
f 208/3/6 198/3/6 212/3/6
f 209/3/6 210/3/6 213/3/6
f 211/3/6 212/3/6 216/3/6
f 213/3/6 214/3/6 217/3/6
f 215/3/6 216/3/6 218/3/6
f 213/3/6 217/3/6 219/3/6
f 217/3/6 218/3/6 219/3/6
f 197/3/6 209/3/6 219/3/6
f 209/3/6 213/3/6 219/3/6
f 218/3/6 216/3/6 220/3/6
f 219/3/6 218/3/6 220/3/6
f 212/3/6 198/3/6 220/3/6
f 216/3/6 212/3/6 220/3/6
f 221/2/6 222/2/6 224/2/6
f 224/2/6 222/2/6 225/2/6
f 223/2/6 224/2/6 228/2/6
f 228/2/6 224/2/6 229/2/6
f 225/2/6 226/2/6 230/2/6
f 230/2/6 226/2/6 231/2/6
f 227/2/6 228/2/6 233/2/6
f 233/2/6 228/2/6 234/2/6
f 231/2/6 232/2/6 237/2/6
f 237/2/6 232/2/6 238/2/6
f 234/2/6 235/2/6 239/2/6
f 239/2/6 235/2/6 240/2/6
f 236/2/6 237/2/6 241/2/6
f 241/2/6 237/2/6 242/2/6
f 240/2/6 241/2/6 243/2/6
f 243/2/6 241/2/6 244/2/6
f 245/2/6 246/2/6 248/2/6
f 248/2/6 246/2/6 249/2/6
f 247/2/6 248/2/6 251/2/6
f 251/2/6 248/2/6 252/2/6
f 249/2/6 250/2/6 253/2/6
f 253/2/6 250/2/6 254/2/6
f 252/2/6 253/2/6 255/2/6
f 255/2/6 253/2/6 256/2/6
f 257/2/6 258/2/6 259/2/6
f 259/2/6 258/2/6 260/2/6
