# MagicaVoxel @ Ephtracy

# group
o 

# material
mtllib gas station project-73.mtl
usemtl palette

# normals
vn -1 0 0
vn 1 0 0
vn 0 0 1
vn 0 0 -1
vn 0 -1 0
vn 0 1 0

# texcoords
vt 0.408203 0.5
vt 0.908203 0.5

# verts
v -12.7 1.4 -2.6
v -12.7 1.4 -28.2
v -12.7 13.9 -2.6
v -12.7 13.9 -28.2
v -8.1 1.5 -2.6
v -8.1 1.5 -3.1
v -8.1 6.6 -3
v -8.1 6.6 -3.1
v -8.1 6.7 -3
v -8.1 7.5 -2.6
v -8.1 7.5 -3
v -3.8 1.5 -2.6
v -3.8 1.5 -3.1
v -3.8 6.6 -3
v -3.8 6.6 -3.1
v -3.8 6.7 -3
v -3.8 7.5 -2.6
v -3.8 7.5 -3
v -2.1 1.5 -2.6
v -2.1 1.5 -2.8
v -2.1 1.5 -2.9
v -2.1 1.5 -3.2
v -2.1 6 -2.6
v -2.1 6 -2.8
v -2.1 6 -2.9
v -2.1 6 -3.2
v 2 1.5 -2.6
v 2 1.5 -2.8
v 2 1.5 -2.9
v 2 1.5 -3.2
v 2 6 -2.6
v 2 6 -2.8
v 2 6 -2.9
v 2 6 -3.2
v 3.7 1.5 -2.6
v 3.7 1.5 -2.8
v 3.7 1.5 -2.9
v 3.7 1.5 -5.9
v 3.7 6 -2.6
v 3.7 6 -2.8
v 3.7 6 -2.9
v 3.7 6 -5.9
v 3.7 6.1 -2.6
v 3.7 6.1 -2.9
v 3.7 7.5 -2.6
v 3.7 7.5 -2.9
v 8 1.5 -2.6
v 8 1.5 -3.1
v 8 6.6 -3
v 8 6.6 -3.1
v 8 6.7 -3
v 8 7.5 -2.6
v 8 7.5 -3
v 12.3 1.5 -2.6
v 12.3 1.5 -3.1
v 12.3 6.6 -3
v 12.3 6.6 -3.1
v 12.3 6.7 -3
v 12.3 7.5 -2.6
v 12.3 7.5 -3
v -12.2 1.5 -2.6
v -12.2 1.5 -3.1
v -12.2 6.6 -3
v -12.2 6.6 -3.1
v -12.2 6.7 -3
v -12.2 7.5 -2.6
v -12.2 7.5 -3
v -7.9 1.5 -2.6
v -7.9 1.5 -3.1
v -7.9 6.6 -3
v -7.9 6.6 -3.1
v -7.9 6.7 -3
v -7.9 7.5 -2.6
v -7.9 7.5 -3
v -3.6 1.5 -2.6
v -3.6 1.5 -2.8
v -3.6 1.5 -2.9
v -3.6 1.5 -5.9
v -3.6 6 -2.6
v -3.6 6 -2.8
v -3.6 6 -2.9
v -3.6 6 -5.9
v -3.6 6.1 -2.6
v -3.6 6.1 -2.9
v -3.6 7.5 -2.6
v -3.6 7.5 -2.9
v -1.9 1.5 -2.6
v -1.9 1.5 -2.8
v -1.9 1.5 -2.9
v -1.9 1.5 -3.2
v -1.9 6 -2.6
v -1.9 6 -2.8
v -1.9 6 -2.9
v -1.9 6 -3.2
v 2.2 1.5 -2.6
v 2.2 1.5 -2.8
v 2.2 1.5 -2.9
v 2.2 1.5 -3.2
v 2.2 6 -2.6
v 2.2 6 -2.8
v 2.2 6 -2.9
v 2.2 6 -3.2
v 3.9 1.5 -2.6
v 3.9 1.5 -3.1
v 3.9 6.6 -3
v 3.9 6.6 -3.1
v 3.9 6.7 -3
v 3.9 7.5 -2.6
v 3.9 7.5 -3
v 8.2 1.5 -2.6
v 8.2 1.5 -3.1
v 8.2 6.6 -3
v 8.2 6.6 -3.1
v 8.2 6.7 -3
v 8.2 7.5 -2.6
v 8.2 7.5 -3
v 12.8 1.4 -2.6
v 12.8 1.4 -28.2
v 12.8 13.9 -2.6
v 12.8 13.9 -28.2
v -12.7 1.4 -2.6
v -12.7 13.9 -2.6
v -12.2 1.5 -2.6
v -12.2 7.5 -2.6
v -8.1 1.5 -2.6
v -8.1 7.5 -2.6
v -7.9 1.5 -2.6
v -7.9 7.5 -2.6
v -3.8 1.5 -2.6
v -3.8 7.5 -2.6
v -3.6 1.5 -2.6
v -3.6 6 -2.6
v -3.6 6.1 -2.6
v -3.6 7.5 -2.6
v -2.1 1.5 -2.6
v -2.1 6 -2.6
v -1.9 1.5 -2.6
v -1.9 6 -2.6
v 2 1.5 -2.6
v 2 6 -2.6
v 2.2 1.5 -2.6
v 2.2 6 -2.6
v 3.7 1.5 -2.6
v 3.7 6 -2.6
v 3.7 6.1 -2.6
v 3.7 7.5 -2.6
v 3.9 1.5 -2.6
v 3.9 7.5 -2.6
v 8 1.5 -2.6
v 8 7.5 -2.6
v 8.2 1.5 -2.6
v 8.2 7.5 -2.6
v 12.3 1.5 -2.6
v 12.3 7.5 -2.6
v 12.8 1.4 -2.6
v 12.8 13.9 -2.6
v -3.6 1.5 -2.8
v -3.6 6 -2.8
v -2.1 1.5 -2.8
v -2.1 6 -2.8
v -1.9 1.5 -2.8
v -1.9 6 -2.8
v 2 1.5 -2.8
v 2 6 -2.8
v 2.2 1.5 -2.8
v 2.2 6 -2.8
v 3.7 1.5 -2.8
v 3.7 6 -2.8
v -3.6 6.1 -2.9
v -3.6 7.5 -2.9
v 3.7 6.1 -2.9
v 3.7 7.5 -2.9
v -12.2 6.6 -3
v -12.2 6.7 -3
v -12.2 7.5 -3
v -8.1 6.6 -3
v -8.1 6.7 -3
v -8.1 7.5 -3
v -7.9 6.6 -3
v -7.9 6.7 -3
v -7.9 7.5 -3
v -3.8 6.6 -3
v -3.8 6.7 -3
v -3.8 7.5 -3
v 3.9 6.6 -3
v 3.9 6.7 -3
v 3.9 7.5 -3
v 8 6.6 -3
v 8 6.7 -3
v 8 7.5 -3
v 8.2 6.6 -3
v 8.2 6.7 -3
v 8.2 7.5 -3
v 12.3 6.6 -3
v 12.3 6.7 -3
v 12.3 7.5 -3
v -12.2 1.5 -3.1
v -12.2 6.6 -3.1
v -8.1 1.5 -3.1
v -8.1 6.6 -3.1
v -7.9 1.5 -3.1
v -7.9 6.6 -3.1
v -3.8 1.5 -3.1
v -3.8 6.6 -3.1
v 3.9 1.5 -3.1
v 3.9 6.6 -3.1
v 8 1.5 -3.1
v 8 6.6 -3.1
v 8.2 1.5 -3.1
v 8.2 6.6 -3.1
v 12.3 1.5 -3.1
v 12.3 6.6 -3.1
v -3.6 1.5 -5.9
v -3.6 6 -5.9
v 3.7 1.5 -5.9
v 3.7 6 -5.9
v -3.6 1.5 -2.9
v -3.6 6 -2.9
v -2.1 1.5 -2.9
v -2.1 6 -2.9
v -1.9 1.5 -2.9
v -1.9 6 -2.9
v 2 1.5 -2.9
v 2 6 -2.9
v 2.2 1.5 -2.9
v 2.2 6 -2.9
v 3.7 1.5 -2.9
v 3.7 6 -2.9
v -2.1 1.5 -3.2
v -2.1 6 -3.2
v -1.9 1.5 -3.2
v -1.9 6 -3.2
v 2 1.5 -3.2
v 2 6 -3.2
v 2.2 1.5 -3.2
v 2.2 6 -3.2
v -12.7 1.4 -28.2
v -12.7 13.9 -28.2
v 12.8 1.4 -28.2
v 12.8 13.9 -28.2
v -12.7 1.4 -2.6
v 12.8 1.4 -2.6
v -12.7 1.4 -28.2
v 12.8 1.4 -28.2
v -3.6 6 -2.6
v -2.1 6 -2.6
v -1.9 6 -2.6
v 2 6 -2.6
v 2.2 6 -2.6
v 3.7 6 -2.6
v -3.6 6 -2.8
v -2.1 6 -2.8
v -1.9 6 -2.8
v 2 6 -2.8
v 2.2 6 -2.8
v 3.7 6 -2.8
v -3.6 6 -2.9
v -2.1 6 -2.9
v -1.9 6 -2.9
v 2 6 -2.9
v 2.2 6 -2.9
v 3.7 6 -2.9
v -2.1 6 -3.2
v -1.9 6 -3.2
v 2 6 -3.2
v 2.2 6 -3.2
v -3.6 6 -5.9
v 3.7 6 -5.9
v -12.2 6.6 -3
v -8.1 6.6 -3
v -7.9 6.6 -3
v -3.8 6.6 -3
v 3.9 6.6 -3
v 8 6.6 -3
v 8.2 6.6 -3
v 12.3 6.6 -3
v -12.2 6.6 -3.1
v -8.1 6.6 -3.1
v -7.9 6.6 -3.1
v -3.8 6.6 -3.1
v 3.9 6.6 -3.1
v 8 6.6 -3.1
v 8.2 6.6 -3.1
v 12.3 6.6 -3.1
v -12.2 7.5 -2.6
v -8.1 7.5 -2.6
v -7.9 7.5 -2.6
v -3.8 7.5 -2.6
v -3.6 7.5 -2.6
v 3.7 7.5 -2.6
v 3.9 7.5 -2.6
v 8 7.5 -2.6
v 8.2 7.5 -2.6
v 12.3 7.5 -2.6
v -3.6 7.5 -2.9
v 3.7 7.5 -2.9
v -12.2 7.5 -3
v -8.1 7.5 -3
v -7.9 7.5 -3
v -3.8 7.5 -3
v 3.9 7.5 -3
v 8 7.5 -3
v 8.2 7.5 -3
v 12.3 7.5 -3
v -12.2 1.5 -2.6
v -8.1 1.5 -2.6
v -7.9 1.5 -2.6
v -3.8 1.5 -2.6
v -3.6 1.5 -2.6
v -2.1 1.5 -2.6
v -1.9 1.5 -2.6
v 2 1.5 -2.6
v 2.2 1.5 -2.6
v 3.7 1.5 -2.6
v 3.9 1.5 -2.6
v 8 1.5 -2.6
v 8.2 1.5 -2.6
v 12.3 1.5 -2.6
v -3.6 1.5 -2.8
v -2.1 1.5 -2.8
v -1.9 1.5 -2.8
v 2 1.5 -2.8
v 2.2 1.5 -2.8
v 3.7 1.5 -2.8
v -3.6 1.5 -2.9
v -2.1 1.5 -2.9
v -1.9 1.5 -2.9
v 2 1.5 -2.9
v 2.2 1.5 -2.9
v 3.7 1.5 -2.9
v -12.2 1.5 -3.1
v -8.1 1.5 -3.1
v -7.9 1.5 -3.1
v -3.8 1.5 -3.1
v 3.9 1.5 -3.1
v 8 1.5 -3.1
v 8.2 1.5 -3.1
v 12.3 1.5 -3.1
v -2.1 1.5 -3.2
v -1.9 1.5 -3.2
v 2 1.5 -3.2
v 2.2 1.5 -3.2
v -3.6 1.5 -5.9
v 3.7 1.5 -5.9
v -3.6 6.1 -2.6
v 3.7 6.1 -2.6
v -3.6 6.1 -2.9
v 3.7 6.1 -2.9
v -12.7 13.9 -2.6
v 12.8 13.9 -2.6
v -12.7 13.9 -28.2
v 12.8 13.9 -28.2

# faces
f 3/2/1 2/2/1 1/2/1
f 4/2/1 2/2/1 3/2/1
f 7/2/1 6/2/1 5/2/1
f 8/2/1 6/2/1 7/2/1
f 9/2/1 7/2/1 5/2/1
f 10/2/1 9/2/1 5/2/1
f 11/2/1 9/2/1 10/2/1
f 14/2/1 13/2/1 12/2/1
f 15/2/1 13/2/1 14/2/1
f 16/2/1 14/2/1 12/2/1
f 17/2/1 16/2/1 12/2/1
f 18/2/1 16/2/1 17/2/1
f 23/2/1 20/2/1 19/2/1
f 24/2/1 20/2/1 23/2/1
f 25/2/1 22/2/1 21/2/1
f 26/2/1 22/2/1 25/2/1
f 31/2/1 28/2/1 27/2/1
f 32/2/1 28/2/1 31/2/1
f 33/2/1 30/2/1 29/2/1
f 34/2/1 30/2/1 33/2/1
f 39/2/1 36/2/1 35/2/1
f 40/2/1 36/2/1 39/2/1
f 41/2/1 38/2/1 37/2/1
f 42/2/1 38/2/1 41/2/1
f 45/2/1 44/2/1 43/2/1
f 46/2/1 44/2/1 45/2/1
f 49/2/1 48/2/1 47/2/1
f 50/2/1 48/2/1 49/2/1
f 51/2/1 49/2/1 47/2/1
f 52/2/1 51/2/1 47/2/1
f 53/2/1 51/2/1 52/2/1
f 56/2/1 55/2/1 54/2/1
f 57/2/1 55/2/1 56/2/1
f 58/2/1 56/2/1 54/2/1
f 59/2/1 58/2/1 54/2/1
f 60/2/1 58/2/1 59/2/1
f 61/2/2 62/2/2 63/2/2
f 63/2/2 62/2/2 64/2/2
f 61/2/2 63/2/2 65/2/2
f 61/2/2 65/2/2 66/2/2
f 66/2/2 65/2/2 67/2/2
f 68/2/2 69/2/2 70/2/2
f 70/2/2 69/2/2 71/2/2
f 68/2/2 70/2/2 72/2/2
f 68/2/2 72/2/2 73/2/2
f 73/2/2 72/2/2 74/2/2
f 75/2/2 76/2/2 79/2/2
f 79/2/2 76/2/2 80/2/2
f 77/2/2 78/2/2 81/2/2
f 81/2/2 78/2/2 82/2/2
f 83/2/2 84/2/2 85/2/2
f 85/2/2 84/2/2 86/2/2
f 87/2/2 88/2/2 91/2/2
f 91/2/2 88/2/2 92/2/2
f 89/2/2 90/2/2 93/2/2
f 93/2/2 90/2/2 94/2/2
f 95/2/2 96/2/2 99/2/2
f 99/2/2 96/2/2 100/2/2
f 97/2/2 98/2/2 101/2/2
f 101/2/2 98/2/2 102/2/2
f 103/2/2 104/2/2 105/2/2
f 105/2/2 104/2/2 106/2/2
f 103/2/2 105/2/2 107/2/2
f 103/2/2 107/2/2 108/2/2
f 108/2/2 107/2/2 109/2/2
f 110/2/2 111/2/2 112/2/2
f 112/2/2 111/2/2 113/2/2
f 110/2/2 112/2/2 114/2/2
f 110/2/2 114/2/2 115/2/2
f 115/2/2 114/2/2 116/2/2
f 117/2/2 118/2/2 119/2/2
f 119/2/2 118/2/2 120/2/2
f 123/2/3 122/2/3 121/2/3
f 124/2/3 122/2/3 123/2/3
f 125/2/3 123/2/3 121/2/3
f 126/2/3 122/2/3 124/2/3
f 127/2/3 125/2/3 121/2/3
f 127/2/3 126/2/3 125/2/3
f 128/2/3 122/2/3 126/2/3
f 128/2/3 126/2/3 127/2/3
f 129/2/3 127/2/3 121/2/3
f 130/2/3 122/2/3 128/2/3
f 131/2/3 129/2/3 121/2/3
f 131/2/3 130/2/3 129/2/3
f 132/2/3 130/2/3 131/2/3
f 133/2/3 130/2/3 132/2/3
f 134/2/3 122/2/3 130/2/3
f 134/2/3 130/2/3 133/2/3
f 135/2/3 131/2/3 121/2/3
f 136/2/3 133/2/3 132/2/3
f 137/2/3 135/2/3 121/2/3
f 137/2/3 136/2/3 135/2/3
f 138/2/3 133/2/3 136/2/3
f 138/2/3 136/2/3 137/2/3
f 139/2/3 137/2/3 121/2/3
f 140/2/3 133/2/3 138/2/3
f 141/2/3 139/2/3 121/2/3
f 141/2/3 140/2/3 139/2/3
f 142/2/3 133/2/3 140/2/3
f 142/2/3 140/2/3 141/2/3
f 143/2/3 141/2/3 121/2/3
f 144/2/3 133/2/3 142/2/3
f 145/2/3 133/2/3 144/2/3
f 146/2/3 122/2/3 134/2/3
f 147/2/3 143/2/3 121/2/3
f 147/2/3 146/2/3 145/2/3
f 147/2/3 145/2/3 144/2/3
f 147/2/3 144/2/3 143/2/3
f 148/2/3 122/2/3 146/2/3
f 148/2/3 146/2/3 147/2/3
f 149/2/3 147/2/3 121/2/3
f 150/2/3 122/2/3 148/2/3
f 151/2/3 149/2/3 121/2/3
f 151/2/3 150/2/3 149/2/3
f 152/2/3 122/2/3 150/2/3
f 152/2/3 150/2/3 151/2/3
f 153/2/3 151/2/3 121/2/3
f 154/2/3 122/2/3 152/2/3
f 155/2/3 153/2/3 121/2/3
f 155/2/3 154/2/3 153/2/3
f 156/2/3 122/2/3 154/2/3
f 156/2/3 154/2/3 155/2/3
f 159/1/3 158/1/3 157/1/3
f 160/1/3 158/1/3 159/1/3
f 163/1/3 162/1/3 161/1/3
f 164/1/3 162/1/3 163/1/3
f 167/1/3 166/1/3 165/1/3
f 168/1/3 166/1/3 167/1/3
f 171/1/3 170/1/3 169/1/3
f 172/1/3 170/1/3 171/1/3
f 176/2/3 174/2/3 173/2/3
f 177/1/3 175/1/3 174/1/3
f 177/2/3 174/2/3 176/2/3
f 178/1/3 175/1/3 177/1/3
f 182/2/3 180/2/3 179/2/3
f 183/1/3 181/1/3 180/1/3
f 183/2/3 180/2/3 182/2/3
f 184/1/3 181/1/3 183/1/3
f 188/2/3 186/2/3 185/2/3
f 189/1/3 187/1/3 186/1/3
f 189/2/3 186/2/3 188/2/3
f 190/1/3 187/1/3 189/1/3
f 194/2/3 192/2/3 191/2/3
f 195/1/3 193/1/3 192/1/3
f 195/2/3 192/2/3 194/2/3
f 196/1/3 193/1/3 195/1/3
f 199/1/3 198/1/3 197/1/3
f 200/1/3 198/1/3 199/1/3
f 203/1/3 202/1/3 201/1/3
f 204/1/3 202/1/3 203/1/3
f 207/1/3 206/1/3 205/1/3
f 208/1/3 206/1/3 207/1/3
f 211/1/3 210/1/3 209/1/3
f 212/1/3 210/1/3 211/1/3
f 215/2/3 214/2/3 213/2/3
f 216/2/3 214/2/3 215/2/3
f 217/1/4 218/1/4 219/1/4
f 219/1/4 218/1/4 220/1/4
f 221/1/4 222/1/4 223/1/4
f 223/1/4 222/1/4 224/1/4
f 225/1/4 226/1/4 227/1/4
f 227/1/4 226/1/4 228/1/4
f 229/2/4 230/2/4 231/2/4
f 231/2/4 230/2/4 232/2/4
f 233/2/4 234/2/4 235/2/4
f 235/2/4 234/2/4 236/2/4
f 237/2/4 238/2/4 239/2/4
f 239/2/4 238/2/4 240/2/4
f 243/2/5 242/2/5 241/2/5
f 244/2/5 242/2/5 243/2/5
f 251/2/5 246/2/5 245/2/5
f 252/2/5 246/2/5 251/2/5
f 253/2/5 248/2/5 247/2/5
f 254/2/5 248/2/5 253/2/5
f 255/2/5 250/2/5 249/2/5
f 256/2/5 250/2/5 255/2/5
f 263/2/5 258/2/5 257/2/5
f 264/2/5 260/2/5 259/2/5
f 265/2/5 260/2/5 264/2/5
f 266/2/5 262/2/5 261/2/5
f 267/2/5 265/2/5 264/2/5
f 267/2/5 266/2/5 265/2/5
f 267/2/5 263/2/5 257/2/5
f 267/2/5 264/2/5 263/2/5
f 268/2/5 262/2/5 266/2/5
f 268/2/5 266/2/5 267/2/5
f 277/2/5 270/2/5 269/2/5
f 278/2/5 270/2/5 277/2/5
f 279/2/5 272/2/5 271/2/5
f 280/2/5 272/2/5 279/2/5
f 281/2/5 274/2/5 273/2/5
f 282/2/5 274/2/5 281/2/5
f 283/2/5 276/2/5 275/2/5
f 284/2/5 276/2/5 283/2/5
f 295/2/5 290/2/5 289/2/5
f 296/2/5 290/2/5 295/2/5
f 297/2/5 286/2/5 285/2/5
f 298/2/5 286/2/5 297/2/5
f 299/2/5 288/2/5 287/2/5
f 300/2/5 288/2/5 299/2/5
f 301/2/5 292/2/5 291/2/5
f 302/2/5 292/2/5 301/2/5
f 303/2/5 294/2/5 293/2/5
f 304/2/5 294/2/5 303/2/5
f 309/2/6 310/2/6 319/2/6
f 319/2/6 310/2/6 320/2/6
f 311/2/6 312/2/6 321/2/6
f 321/2/6 312/2/6 322/2/6
f 313/2/6 314/2/6 323/2/6
f 323/2/6 314/2/6 324/2/6
f 305/2/6 306/2/6 331/2/6
f 331/2/6 306/2/6 332/2/6
f 307/2/6 308/2/6 333/2/6
f 333/2/6 308/2/6 334/2/6
f 315/2/6 316/2/6 335/2/6
f 335/2/6 316/2/6 336/2/6
f 317/2/6 318/2/6 337/2/6
f 337/2/6 318/2/6 338/2/6
f 325/2/6 326/2/6 339/2/6
f 327/2/6 328/2/6 340/2/6
f 340/2/6 328/2/6 341/2/6
f 329/2/6 330/2/6 342/2/6
f 340/2/6 341/2/6 343/2/6
f 341/2/6 342/2/6 343/2/6
f 325/2/6 339/2/6 343/2/6
f 339/2/6 340/2/6 343/2/6
f 342/2/6 330/2/6 344/2/6
f 343/2/6 342/2/6 344/2/6
f 345/2/6 346/2/6 347/2/6
f 347/2/6 346/2/6 348/2/6
f 349/2/6 350/2/6 351/2/6
f 351/2/6 350/2/6 352/2/6
