# MagicaVoxel @ Ephtracy

# group
o 

# material
mtllib gas station project-72.mtl
usemtl palette

# normals
vn -1 0 0
vn 1 0 0
vn 0 0 1
vn 0 0 -1
vn 0 -1 0
vn 0 1 0

# texcoords
vt 0.908203 0.5

# verts
v 0.4 3.6 0
v 0.4 3.6 -0.3
v 0.4 3.8 0
v 0.4 3.8 -0.3
v 1 1.5 0
v 1 1.5 -0.3
v 1 2.6 0
v 1 2.6 -0.3
v 1.1 3.8 0.2
v 1.1 3.8 0
v 1.1 3.8 -0.3
v 1.1 3.8 -0.5
v 1.1 4.5 0.2
v 1.1 4.5 -0.5
v 1.2 2.6 0
v 1.2 2.6 -0.3
v 1.2 2.7 0
v 1.2 2.7 -0.3
v 1.3 2.7 0
v 1.3 2.7 -0.3
v 1.3 3.6 0
v 1.3 3.6 -0.3
v 1.6 1.5 0
v 1.6 1.5 -0.3
v 1.6 2.6 0
v 1.6 2.6 -0.3
v 1.3 1.5 0
v 1.3 1.5 -0.3
v 1.3 2.6 0
v 1.3 2.6 -0.3
v 1.6 2.7 0
v 1.6 2.7 -0.3
v 1.6 3.6 0
v 1.6 3.6 -0.3
v 1.7 2.6 0
v 1.7 2.6 -0.3
v 1.7 2.7 0
v 1.7 2.7 -0.3
v 1.8 3.8 0.2
v 1.8 3.8 0
v 1.8 3.8 -0.3
v 1.8 3.8 -0.5
v 1.8 4.5 0.2
v 1.8 4.5 -0.5
v 1.9 1.5 0
v 1.9 1.5 -0.3
v 1.9 2.6 0
v 1.9 2.6 -0.3
v 2.5 3.6 0
v 2.5 3.6 -0.3
v 2.5 3.8 0
v 2.5 3.8 -0.3
v 1.1 3.8 0.2
v 1.1 4.5 0.2
v 1.8 3.8 0.2
v 1.8 4.5 0.2
v 0.4 3.6 0
v 0.4 3.8 0
v 1 1.5 0
v 1 2.6 0
v 1.1 3.8 0
v 1.2 2.6 0
v 1.2 2.7 0
v 1.3 1.5 0
v 1.3 2.6 0
v 1.3 2.7 0
v 1.3 3.6 0
v 1.6 1.5 0
v 1.6 2.6 0
v 1.6 2.7 0
v 1.6 3.6 0
v 1.7 2.6 0
v 1.7 2.7 0
v 1.8 3.8 0
v 1.9 1.5 0
v 1.9 2.6 0
v 2.5 3.6 0
v 2.5 3.8 0
v 0.4 3.6 -0.3
v 0.4 3.8 -0.3
v 1 1.5 -0.3
v 1 2.6 -0.3
v 1.1 3.8 -0.3
v 1.2 2.6 -0.3
v 1.2 2.7 -0.3
v 1.3 1.5 -0.3
v 1.3 2.6 -0.3
v 1.3 2.7 -0.3
v 1.3 3.6 -0.3
v 1.6 1.5 -0.3
v 1.6 2.6 -0.3
v 1.6 2.7 -0.3
v 1.6 3.6 -0.3
v 1.7 2.6 -0.3
v 1.7 2.7 -0.3
v 1.8 3.8 -0.3
v 1.9 1.5 -0.3
v 1.9 2.6 -0.3
v 2.5 3.6 -0.3
v 2.5 3.8 -0.3
v 1.1 3.8 -0.5
v 1.1 4.5 -0.5
v 1.8 3.8 -0.5
v 1.8 4.5 -0.5
v 1 1.5 0
v 1.3 1.5 0
v 1.6 1.5 0
v 1.9 1.5 0
v 1 1.5 -0.3
v 1.3 1.5 -0.3
v 1.6 1.5 -0.3
v 1.9 1.5 -0.3
v 1.3 2.6 0
v 1.6 2.6 0
v 1.3 2.6 -0.3
v 1.6 2.6 -0.3
v 0.4 3.6 0
v 1.3 3.6 0
v 1.6 3.6 0
v 2.5 3.6 0
v 0.4 3.6 -0.3
v 1.3 3.6 -0.3
v 1.6 3.6 -0.3
v 2.5 3.6 -0.3
v 1.1 3.8 0.2
v 1.8 3.8 0.2
v 1.1 3.8 0
v 1.8 3.8 0
v 1.1 3.8 -0.3
v 1.8 3.8 -0.3
v 1.1 3.8 -0.5
v 1.8 3.8 -0.5
v 1 2.6 0
v 1.2 2.6 0
v 1.7 2.6 0
v 1.9 2.6 0
v 1 2.6 -0.3
v 1.2 2.6 -0.3
v 1.7 2.6 -0.3
v 1.9 2.6 -0.3
v 1.2 2.7 0
v 1.3 2.7 0
v 1.6 2.7 0
v 1.7 2.7 0
v 1.2 2.7 -0.3
v 1.3 2.7 -0.3
v 1.6 2.7 -0.3
v 1.7 2.7 -0.3
v 0.4 3.8 0
v 1.1 3.8 0
v 1.8 3.8 0
v 2.5 3.8 0
v 0.4 3.8 -0.3
v 1.1 3.8 -0.3
v 1.8 3.8 -0.3
v 2.5 3.8 -0.3
v 1.1 4.5 0.2
v 1.8 4.5 0.2
v 1.1 4.5 -0.5
v 1.8 4.5 -0.5

# faces
f 3/1/1 2/1/1 1/1/1
f 4/1/1 2/1/1 3/1/1
f 7/1/1 6/1/1 5/1/1
f 8/1/1 6/1/1 7/1/1
f 13/1/1 10/1/1 9/1/1
f 13/1/1 12/1/1 11/1/1
f 13/1/1 11/1/1 10/1/1
f 14/1/1 12/1/1 13/1/1
f 17/1/1 16/1/1 15/1/1
f 18/1/1 16/1/1 17/1/1
f 21/1/1 20/1/1 19/1/1
f 22/1/1 20/1/1 21/1/1
f 25/1/1 24/1/1 23/1/1
f 26/1/1 24/1/1 25/1/1
f 27/1/2 28/1/2 29/1/2
f 29/1/2 28/1/2 30/1/2
f 31/1/2 32/1/2 33/1/2
f 33/1/2 32/1/2 34/1/2
f 35/1/2 36/1/2 37/1/2
f 37/1/2 36/1/2 38/1/2
f 39/1/2 40/1/2 43/1/2
f 41/1/2 42/1/2 43/1/2
f 40/1/2 41/1/2 43/1/2
f 43/1/2 42/1/2 44/1/2
f 45/1/2 46/1/2 47/1/2
f 47/1/2 46/1/2 48/1/2
f 49/1/2 50/1/2 51/1/2
f 51/1/2 50/1/2 52/1/2
f 55/1/3 54/1/3 53/1/3
f 56/1/3 54/1/3 55/1/3
f 61/1/3 58/1/3 57/1/3
f 62/1/3 60/1/3 59/1/3
f 64/1/3 62/1/3 59/1/3
f 64/1/3 63/1/3 62/1/3
f 65/1/3 63/1/3 64/1/3
f 66/1/3 63/1/3 65/1/3
f 67/1/3 61/1/3 57/1/3
f 69/1/3 66/1/3 65/1/3
f 69/1/3 67/1/3 66/1/3
f 70/1/3 67/1/3 69/1/3
f 71/1/3 61/1/3 67/1/3
f 71/1/3 67/1/3 70/1/3
f 72/1/3 70/1/3 69/1/3
f 72/1/3 69/1/3 68/1/3
f 73/1/3 70/1/3 72/1/3
f 74/1/3 61/1/3 71/1/3
f 75/1/3 72/1/3 68/1/3
f 76/1/3 72/1/3 75/1/3
f 77/1/3 74/1/3 71/1/3
f 78/1/3 74/1/3 77/1/3
f 79/1/4 80/1/4 83/1/4
f 81/1/4 82/1/4 84/1/4
f 81/1/4 84/1/4 86/1/4
f 84/1/4 85/1/4 86/1/4
f 86/1/4 85/1/4 87/1/4
f 87/1/4 85/1/4 88/1/4
f 79/1/4 83/1/4 89/1/4
f 87/1/4 88/1/4 91/1/4
f 88/1/4 89/1/4 91/1/4
f 91/1/4 89/1/4 92/1/4
f 89/1/4 83/1/4 93/1/4
f 92/1/4 89/1/4 93/1/4
f 91/1/4 92/1/4 94/1/4
f 90/1/4 91/1/4 94/1/4
f 94/1/4 92/1/4 95/1/4
f 93/1/4 83/1/4 96/1/4
f 90/1/4 94/1/4 97/1/4
f 97/1/4 94/1/4 98/1/4
f 93/1/4 96/1/4 99/1/4
f 99/1/4 96/1/4 100/1/4
f 101/1/4 102/1/4 103/1/4
f 103/1/4 102/1/4 104/1/4
f 109/1/5 106/1/5 105/1/5
f 110/1/5 106/1/5 109/1/5
f 111/1/5 108/1/5 107/1/5
f 112/1/5 108/1/5 111/1/5
f 115/1/5 114/1/5 113/1/5
f 116/1/5 114/1/5 115/1/5
f 121/1/5 118/1/5 117/1/5
f 122/1/5 118/1/5 121/1/5
f 123/1/5 120/1/5 119/1/5
f 124/1/5 120/1/5 123/1/5
f 127/1/5 126/1/5 125/1/5
f 128/1/5 126/1/5 127/1/5
f 131/1/5 130/1/5 129/1/5
f 132/1/5 130/1/5 131/1/5
f 133/1/6 134/1/6 137/1/6
f 137/1/6 134/1/6 138/1/6
f 135/1/6 136/1/6 139/1/6
f 139/1/6 136/1/6 140/1/6
f 141/1/6 142/1/6 145/1/6
f 145/1/6 142/1/6 146/1/6
f 143/1/6 144/1/6 147/1/6
f 147/1/6 144/1/6 148/1/6
f 149/1/6 150/1/6 153/1/6
f 153/1/6 150/1/6 154/1/6
f 151/1/6 152/1/6 155/1/6
f 155/1/6 152/1/6 156/1/6
f 157/1/6 158/1/6 159/1/6
f 159/1/6 158/1/6 160/1/6
