# MagicaVoxel @ Ephtracy

# group
o 

# material
mtllib gas station project-35.mtl
usemtl palette

# normals
vn -1 0 0
vn 1 0 0
vn 0 0 1
vn 0 0 -1
vn 0 -1 0
vn 0 1 0

# texcoords
vt 0.908203 0.5

# verts
v 32.6 7.9 37.3
v 32.6 7.9 11.8
v 32.6 8 37.3
v 32.6 8 11.8
v 32.7 8 37.2
v 32.7 8 11.8
v 32.7 8.1 37.2
v 32.7 8.1 11.8
v 32.8 8.1 37
v 32.8 8.1 11.8
v 32.8 8.2 37
v 32.8 8.2 11.8
v 32.9 8.2 36.9
v 32.9 8.2 11.8
v 32.9 8.3 36.9
v 32.9 8.3 11.8
v 33 8.3 36.7
v 33 8.3 11.8
v 33 8.4 36.7
v 33 8.4 11.8
v 33.1 8.4 36.6
v 33.1 8.4 11.8
v 33.1 8.5 36.6
v 33.1 8.5 11.8
v 33.2 8.5 36.4
v 33.2 8.5 11.8
v 33.2 8.6 36.4
v 33.2 8.6 11.8
v 33.3 8.6 36.2
v 33.3 8.6 11.8
v 33.3 8.7 36.2
v 33.3 8.7 11.8
v 33.4 8.7 36.1
v 33.4 8.7 11.8
v 33.4 8.8 36.1
v 33.4 8.8 11.8
v 33.5 8.8 35.9
v 33.5 8.8 11.8
v 33.5 8.9 35.9
v 33.5 8.9 11.8
v 33.6 8.9 35.8
v 33.6 8.9 11.8
v 33.6 9 35.8
v 33.6 9 11.8
v 33.7 9 35.6
v 33.7 9 11.8
v 33.7 9.1 35.6
v 33.7 9.1 11.8
v 33.8 9.1 35.5
v 33.8 9.1 11.8
v 33.8 9.2 35.5
v 33.8 9.2 11.8
v 33.9 9.2 35.3
v 33.9 9.2 11.8
v 33.9 9.3 35.3
v 33.9 9.3 11.8
v 34 9.3 35.2
v 34 9.3 11.8
v 34 9.4 35.2
v 34 9.4 11.8
v 34.2 9.4 35
v 34.2 9.4 11.8
v 34.2 9.5 35
v 34.2 9.5 11.8
v 34.3 9.5 34.9
v 34.3 9.5 11.8
v 34.3 9.6 34.9
v 34.3 9.6 11.8
v 34.4 9.6 34.7
v 34.4 9.6 11.8
v 34.4 9.7 34.7
v 34.4 9.7 11.8
v 34.5 9.7 34.5
v 34.5 9.7 11.8
v 34.5 9.8 34.5
v 34.5 9.8 11.8
v 34.6 9.8 34.4
v 34.6 9.8 11.8
v 34.6 9.9 34.4
v 34.6 9.9 11.8
v 34.7 9.9 34.2
v 34.7 9.9 11.8
v 34.7 10 34.2
v 34.7 10 11.8
v 34.8 10 34.1
v 34.8 10 11.8
v 34.8 10.1 34.1
v 34.8 10.1 11.8
v 47.9 10 34.1
v 47.9 10 11.8
v 47.9 10.1 34.1
v 47.9 10.1 11.8
v 48 9.9 34.2
v 48 9.9 11.8
v 48 10 34.2
v 48 10 11.8
v 48.1 9.8 34.4
v 48.1 9.8 11.8
v 48.1 9.9 34.4
v 48.1 9.9 11.8
v 48.2 9.7 34.5
v 48.2 9.7 11.8
v 48.2 9.8 34.5
v 48.2 9.8 11.8
v 48.3 9.6 34.7
v 48.3 9.6 11.8
v 48.3 9.7 34.7
v 48.3 9.7 11.8
v 48.4 9.5 34.9
v 48.4 9.5 11.8
v 48.4 9.6 34.9
v 48.4 9.6 11.8
v 48.5 9.4 35
v 48.5 9.4 11.8
v 48.5 9.5 35
v 48.5 9.5 11.8
v 48.7 9.3 35.2
v 48.7 9.3 11.8
v 48.7 9.4 35.2
v 48.7 9.4 11.8
v 48.8 9.2 35.3
v 48.8 9.2 11.8
v 48.8 9.3 35.3
v 48.8 9.3 11.8
v 48.9 9.1 35.5
v 48.9 9.1 11.8
v 48.9 9.2 35.5
v 48.9 9.2 11.8
v 49 9 35.6
v 49 9 11.8
v 49 9.1 35.6
v 49 9.1 11.8
v 49.1 8.9 35.8
v 49.1 8.9 11.8
v 49.1 9 35.8
v 49.1 9 11.8
v 49.2 8.8 35.9
v 49.2 8.8 11.8
v 49.2 8.9 35.9
v 49.2 8.9 11.8
v 49.3 8.7 36.1
v 49.3 8.7 11.8
v 49.3 8.8 36.1
v 49.3 8.8 11.8
v 49.4 8.6 36.2
v 49.4 8.6 11.8
v 49.4 8.7 36.2
v 49.4 8.7 11.8
v 49.5 8.5 36.4
v 49.5 8.5 11.8
v 49.5 8.6 36.4
v 49.5 8.6 11.8
v 49.6 8.4 36.6
v 49.6 8.4 11.8
v 49.6 8.5 36.6
v 49.6 8.5 11.8
v 49.7 8.3 36.7
v 49.7 8.3 11.8
v 49.7 8.4 36.7
v 49.7 8.4 11.8
v 49.8 8.2 36.9
v 49.8 8.2 11.8
v 49.8 8.3 36.9
v 49.8 8.3 11.8
v 49.9 8.1 37
v 49.9 8.1 11.8
v 49.9 8.2 37
v 49.9 8.2 11.8
v 50 8 37.2
v 50 8 11.8
v 50 8.1 37.2
v 50 8.1 11.8
v 50.1 7.9 37.3
v 50.1 7.9 11.8
v 50.1 8 37.3
v 50.1 8 11.8
v 32.6 7.9 37.3
v 32.6 8 37.3
v 50.1 7.9 37.3
v 50.1 8 37.3
v 32.7 8 37.2
v 32.7 8.1 37.2
v 50 8 37.2
v 50 8.1 37.2
v 32.8 8.1 37
v 32.8 8.2 37
v 49.9 8.1 37
v 49.9 8.2 37
v 32.9 8.2 36.9
v 32.9 8.3 36.9
v 49.8 8.2 36.9
v 49.8 8.3 36.9
v 33 8.3 36.7
v 33 8.4 36.7
v 49.7 8.3 36.7
v 49.7 8.4 36.7
v 33.1 8.4 36.6
v 33.1 8.5 36.6
v 49.6 8.4 36.6
v 49.6 8.5 36.6
v 33.2 8.5 36.4
v 33.2 8.6 36.4
v 49.5 8.5 36.4
v 49.5 8.6 36.4
v 33.3 8.6 36.2
v 33.3 8.7 36.2
v 49.4 8.6 36.2
v 49.4 8.7 36.2
v 33.4 8.7 36.1
v 33.4 8.8 36.1
v 49.3 8.7 36.1
v 49.3 8.8 36.1
v 33.5 8.8 35.9
v 33.5 8.9 35.9
v 49.2 8.8 35.9
v 49.2 8.9 35.9
v 33.6 8.9 35.8
v 33.6 9 35.8
v 49.1 8.9 35.8
v 49.1 9 35.8
v 33.7 9 35.6
v 33.7 9.1 35.6
v 49 9 35.6
v 49 9.1 35.6
v 33.8 9.1 35.5
v 33.8 9.2 35.5
v 48.9 9.1 35.5
v 48.9 9.2 35.5
v 33.9 9.2 35.3
v 33.9 9.3 35.3
v 48.8 9.2 35.3
v 48.8 9.3 35.3
v 34 9.3 35.2
v 34 9.4 35.2
v 48.7 9.3 35.2
v 48.7 9.4 35.2
v 34.2 9.4 35
v 34.2 9.5 35
v 48.5 9.4 35
v 48.5 9.5 35
v 34.3 9.5 34.9
v 34.3 9.6 34.9
v 48.4 9.5 34.9
v 48.4 9.6 34.9
v 34.4 9.6 34.7
v 34.4 9.7 34.7
v 48.3 9.6 34.7
v 48.3 9.7 34.7
v 34.5 9.7 34.5
v 34.5 9.8 34.5
v 48.2 9.7 34.5
v 48.2 9.8 34.5
v 34.6 9.8 34.4
v 34.6 9.9 34.4
v 48.1 9.8 34.4
v 48.1 9.9 34.4
v 34.7 9.9 34.2
v 34.7 10 34.2
v 48 9.9 34.2
v 48 10 34.2
v 34.8 10 34.1
v 34.8 10.1 34.1
v 47.9 10 34.1
v 47.9 10.1 34.1
v 32.6 7.9 11.8
v 32.6 8 11.8
v 32.7 8 11.8
v 32.7 8.1 11.8
v 32.8 8.1 11.8
v 32.8 8.2 11.8
v 32.9 8.2 11.8
v 32.9 8.3 11.8
v 33 8.3 11.8
v 33 8.4 11.8
v 33.1 8.4 11.8
v 33.1 8.5 11.8
v 33.2 8.5 11.8
v 33.2 8.6 11.8
v 33.3 8.6 11.8
v 33.3 8.7 11.8
v 33.4 8.7 11.8
v 33.4 8.8 11.8
v 33.5 8.8 11.8
v 33.5 8.9 11.8
v 33.6 8.9 11.8
v 33.6 9 11.8
v 33.7 9 11.8
v 33.7 9.1 11.8
v 33.8 9.1 11.8
v 33.8 9.2 11.8
v 33.9 9.2 11.8
v 33.9 9.3 11.8
v 34 9.3 11.8
v 34 9.4 11.8
v 34.2 9.4 11.8
v 34.2 9.5 11.8
v 34.3 9.5 11.8
v 34.3 9.6 11.8
v 34.4 9.6 11.8
v 34.4 9.7 11.8
v 34.5 9.7 11.8
v 34.5 9.8 11.8
v 34.6 9.8 11.8
v 34.6 9.9 11.8
v 34.7 9.9 11.8
v 34.7 10 11.8
v 34.8 10 11.8
v 34.8 10.1 11.8
v 47.9 10 11.8
v 47.9 10.1 11.8
v 48 9.9 11.8
v 48 10 11.8
v 48.1 9.8 11.8
v 48.1 9.9 11.8
v 48.2 9.7 11.8
v 48.2 9.8 11.8
v 48.3 9.6 11.8
v 48.3 9.7 11.8
v 48.4 9.5 11.8
v 48.4 9.6 11.8
v 48.5 9.4 11.8
v 48.5 9.5 11.8
v 48.7 9.3 11.8
v 48.7 9.4 11.8
v 48.8 9.2 11.8
v 48.8 9.3 11.8
v 48.9 9.1 11.8
v 48.9 9.2 11.8
v 49 9 11.8
v 49 9.1 11.8
v 49.1 8.9 11.8
v 49.1 9 11.8
v 49.2 8.8 11.8
v 49.2 8.9 11.8
v 49.3 8.7 11.8
v 49.3 8.8 11.8
v 49.4 8.6 11.8
v 49.4 8.7 11.8
v 49.5 8.5 11.8
v 49.5 8.6 11.8
v 49.6 8.4 11.8
v 49.6 8.5 11.8
v 49.7 8.3 11.8
v 49.7 8.4 11.8
v 49.8 8.2 11.8
v 49.8 8.3 11.8
v 49.9 8.1 11.8
v 49.9 8.2 11.8
v 50 8 11.8
v 50 8.1 11.8
v 50.1 7.9 11.8
v 50.1 8 11.8
v 32.6 7.9 37.3
v 50.1 7.9 37.3
v 32.6 7.9 11.8
v 50.1 7.9 11.8
v 32.6 8 37.3
v 50.1 8 37.3
v 32.7 8 37.2
v 50 8 37.2
v 32.6 8 11.8
v 32.7 8 11.8
v 50 8 11.8
v 50.1 8 11.8
v 32.7 8.1 37.2
v 50 8.1 37.2
v 32.8 8.1 37
v 49.9 8.1 37
v 32.7 8.1 11.8
v 32.8 8.1 11.8
v 49.9 8.1 11.8
v 50 8.1 11.8
v 32.8 8.2 37
v 49.9 8.2 37
v 32.9 8.2 36.9
v 49.8 8.2 36.9
v 32.8 8.2 11.8
v 32.9 8.2 11.8
v 49.8 8.2 11.8
v 49.9 8.2 11.8
v 32.9 8.3 36.9
v 49.8 8.3 36.9
v 33 8.3 36.7
v 49.7 8.3 36.7
v 32.9 8.3 11.8
v 33 8.3 11.8
v 49.7 8.3 11.8
v 49.8 8.3 11.8
v 33 8.4 36.7
v 49.7 8.4 36.7
v 33.1 8.4 36.6
v 49.6 8.4 36.6
v 33 8.4 11.8
v 33.1 8.4 11.8
v 49.6 8.4 11.8
v 49.7 8.4 11.8
v 33.1 8.5 36.6
v 49.6 8.5 36.6
v 33.2 8.5 36.4
v 49.5 8.5 36.4
v 33.1 8.5 11.8
v 33.2 8.5 11.8
v 49.5 8.5 11.8
v 49.6 8.5 11.8
v 33.2 8.6 36.4
v 49.5 8.6 36.4
v 33.3 8.6 36.2
v 49.4 8.6 36.2
v 33.2 8.6 11.8
v 33.3 8.6 11.8
v 49.4 8.6 11.8
v 49.5 8.6 11.8
v 33.3 8.7 36.2
v 49.4 8.7 36.2
v 33.4 8.7 36.1
v 49.3 8.7 36.1
v 33.3 8.7 11.8
v 33.4 8.7 11.8
v 49.3 8.7 11.8
v 49.4 8.7 11.8
v 33.4 8.8 36.1
v 49.3 8.8 36.1
v 33.5 8.8 35.9
v 49.2 8.8 35.9
v 33.4 8.8 11.8
v 33.5 8.8 11.8
v 49.2 8.8 11.8
v 49.3 8.8 11.8
v 33.5 8.9 35.9
v 49.2 8.9 35.9
v 33.6 8.9 35.8
v 49.1 8.9 35.8
v 33.5 8.9 11.8
v 33.6 8.9 11.8
v 49.1 8.9 11.8
v 49.2 8.9 11.8
v 33.6 9 35.8
v 49.1 9 35.8
v 33.7 9 35.6
v 49 9 35.6
v 33.6 9 11.8
v 33.7 9 11.8
v 49 9 11.8
v 49.1 9 11.8
v 33.7 9.1 35.6
v 49 9.1 35.6
v 33.8 9.1 35.5
v 48.9 9.1 35.5
v 33.7 9.1 11.8
v 33.8 9.1 11.8
v 48.9 9.1 11.8
v 49 9.1 11.8
v 33.8 9.2 35.5
v 48.9 9.2 35.5
v 33.9 9.2 35.3
v 48.8 9.2 35.3
v 33.8 9.2 11.8
v 33.9 9.2 11.8
v 48.8 9.2 11.8
v 48.9 9.2 11.8
v 33.9 9.3 35.3
v 48.8 9.3 35.3
v 34 9.3 35.2
v 48.7 9.3 35.2
v 33.9 9.3 11.8
v 34 9.3 11.8
v 48.7 9.3 11.8
v 48.8 9.3 11.8
v 34 9.4 35.2
v 48.7 9.4 35.2
v 34.2 9.4 35
v 48.5 9.4 35
v 34 9.4 11.8
v 34.2 9.4 11.8
v 48.5 9.4 11.8
v 48.7 9.4 11.8
v 34.2 9.5 35
v 48.5 9.5 35
v 34.3 9.5 34.9
v 48.4 9.5 34.9
v 34.2 9.5 11.8
v 34.3 9.5 11.8
v 48.4 9.5 11.8
v 48.5 9.5 11.8
v 34.3 9.6 34.9
v 48.4 9.6 34.9
v 34.4 9.6 34.7
v 48.3 9.6 34.7
v 34.3 9.6 11.8
v 34.4 9.6 11.8
v 48.3 9.6 11.8
v 48.4 9.6 11.8
v 34.4 9.7 34.7
v 48.3 9.7 34.7
v 34.5 9.7 34.5
v 48.2 9.7 34.5
v 34.4 9.7 11.8
v 34.5 9.7 11.8
v 48.2 9.7 11.8
v 48.3 9.7 11.8
v 34.5 9.8 34.5
v 48.2 9.8 34.5
v 34.6 9.8 34.4
v 48.1 9.8 34.4
v 34.5 9.8 11.8
v 34.6 9.8 11.8
v 48.1 9.8 11.8
v 48.2 9.8 11.8
v 34.6 9.9 34.4
v 48.1 9.9 34.4
v 34.7 9.9 34.2
v 48 9.9 34.2
v 34.6 9.9 11.8
v 34.7 9.9 11.8
v 48 9.9 11.8
v 48.1 9.9 11.8
v 34.7 10 34.2
v 48 10 34.2
v 34.8 10 34.1
v 47.9 10 34.1
v 34.7 10 11.8
v 34.8 10 11.8
v 47.9 10 11.8
v 48 10 11.8
v 34.8 10.1 34.1
v 47.9 10.1 34.1
v 34.8 10.1 11.8
v 47.9 10.1 11.8

# faces
f 3/1/1 2/1/1 1/1/1
f 4/1/1 2/1/1 3/1/1
f 7/1/1 6/1/1 5/1/1
f 8/1/1 6/1/1 7/1/1
f 11/1/1 10/1/1 9/1/1
f 12/1/1 10/1/1 11/1/1
f 15/1/1 14/1/1 13/1/1
f 16/1/1 14/1/1 15/1/1
f 19/1/1 18/1/1 17/1/1
f 20/1/1 18/1/1 19/1/1
f 23/1/1 22/1/1 21/1/1
f 24/1/1 22/1/1 23/1/1
f 27/1/1 26/1/1 25/1/1
f 28/1/1 26/1/1 27/1/1
f 31/1/1 30/1/1 29/1/1
f 32/1/1 30/1/1 31/1/1
f 35/1/1 34/1/1 33/1/1
f 36/1/1 34/1/1 35/1/1
f 39/1/1 38/1/1 37/1/1
f 40/1/1 38/1/1 39/1/1
f 43/1/1 42/1/1 41/1/1
f 44/1/1 42/1/1 43/1/1
f 47/1/1 46/1/1 45/1/1
f 48/1/1 46/1/1 47/1/1
f 51/1/1 50/1/1 49/1/1
f 52/1/1 50/1/1 51/1/1
f 55/1/1 54/1/1 53/1/1
f 56/1/1 54/1/1 55/1/1
f 59/1/1 58/1/1 57/1/1
f 60/1/1 58/1/1 59/1/1
f 63/1/1 62/1/1 61/1/1
f 64/1/1 62/1/1 63/1/1
f 67/1/1 66/1/1 65/1/1
f 68/1/1 66/1/1 67/1/1
f 71/1/1 70/1/1 69/1/1
f 72/1/1 70/1/1 71/1/1
f 75/1/1 74/1/1 73/1/1
f 76/1/1 74/1/1 75/1/1
f 79/1/1 78/1/1 77/1/1
f 80/1/1 78/1/1 79/1/1
f 83/1/1 82/1/1 81/1/1
f 84/1/1 82/1/1 83/1/1
f 87/1/1 86/1/1 85/1/1
f 88/1/1 86/1/1 87/1/1
f 89/1/2 90/1/2 91/1/2
f 91/1/2 90/1/2 92/1/2
f 93/1/2 94/1/2 95/1/2
f 95/1/2 94/1/2 96/1/2
f 97/1/2 98/1/2 99/1/2
f 99/1/2 98/1/2 100/1/2
f 101/1/2 102/1/2 103/1/2
f 103/1/2 102/1/2 104/1/2
f 105/1/2 106/1/2 107/1/2
f 107/1/2 106/1/2 108/1/2
f 109/1/2 110/1/2 111/1/2
f 111/1/2 110/1/2 112/1/2
f 113/1/2 114/1/2 115/1/2
f 115/1/2 114/1/2 116/1/2
f 117/1/2 118/1/2 119/1/2
f 119/1/2 118/1/2 120/1/2
f 121/1/2 122/1/2 123/1/2
f 123/1/2 122/1/2 124/1/2
f 125/1/2 126/1/2 127/1/2
f 127/1/2 126/1/2 128/1/2
f 129/1/2 130/1/2 131/1/2
f 131/1/2 130/1/2 132/1/2
f 133/1/2 134/1/2 135/1/2
f 135/1/2 134/1/2 136/1/2
f 137/1/2 138/1/2 139/1/2
f 139/1/2 138/1/2 140/1/2
f 141/1/2 142/1/2 143/1/2
f 143/1/2 142/1/2 144/1/2
f 145/1/2 146/1/2 147/1/2
f 147/1/2 146/1/2 148/1/2
f 149/1/2 150/1/2 151/1/2
f 151/1/2 150/1/2 152/1/2
f 153/1/2 154/1/2 155/1/2
f 155/1/2 154/1/2 156/1/2
f 157/1/2 158/1/2 159/1/2
f 159/1/2 158/1/2 160/1/2
f 161/1/2 162/1/2 163/1/2
f 163/1/2 162/1/2 164/1/2
f 165/1/2 166/1/2 167/1/2
f 167/1/2 166/1/2 168/1/2
f 169/1/2 170/1/2 171/1/2
f 171/1/2 170/1/2 172/1/2
f 173/1/2 174/1/2 175/1/2
f 175/1/2 174/1/2 176/1/2
f 179/1/3 178/1/3 177/1/3
f 180/1/3 178/1/3 179/1/3
f 183/1/3 182/1/3 181/1/3
f 184/1/3 182/1/3 183/1/3
f 187/1/3 186/1/3 185/1/3
f 188/1/3 186/1/3 187/1/3
f 191/1/3 190/1/3 189/1/3
f 192/1/3 190/1/3 191/1/3
f 195/1/3 194/1/3 193/1/3
f 196/1/3 194/1/3 195/1/3
f 199/1/3 198/1/3 197/1/3
f 200/1/3 198/1/3 199/1/3
f 203/1/3 202/1/3 201/1/3
f 204/1/3 202/1/3 203/1/3
f 207/1/3 206/1/3 205/1/3
f 208/1/3 206/1/3 207/1/3
f 211/1/3 210/1/3 209/1/3
f 212/1/3 210/1/3 211/1/3
f 215/1/3 214/1/3 213/1/3
f 216/1/3 214/1/3 215/1/3
f 219/1/3 218/1/3 217/1/3
f 220/1/3 218/1/3 219/1/3
f 223/1/3 222/1/3 221/1/3
f 224/1/3 222/1/3 223/1/3
f 227/1/3 226/1/3 225/1/3
f 228/1/3 226/1/3 227/1/3
f 231/1/3 230/1/3 229/1/3
f 232/1/3 230/1/3 231/1/3
f 235/1/3 234/1/3 233/1/3
f 236/1/3 234/1/3 235/1/3
f 239/1/3 238/1/3 237/1/3
f 240/1/3 238/1/3 239/1/3
f 243/1/3 242/1/3 241/1/3
f 244/1/3 242/1/3 243/1/3
f 247/1/3 246/1/3 245/1/3
f 248/1/3 246/1/3 247/1/3
f 251/1/3 250/1/3 249/1/3
f 252/1/3 250/1/3 251/1/3
f 255/1/3 254/1/3 253/1/3
f 256/1/3 254/1/3 255/1/3
f 259/1/3 258/1/3 257/1/3
f 260/1/3 258/1/3 259/1/3
f 263/1/3 262/1/3 261/1/3
f 264/1/3 262/1/3 263/1/3
f 265/1/4 266/1/4 267/1/4
f 267/1/4 268/1/4 269/1/4
f 269/1/4 270/1/4 271/1/4
f 271/1/4 272/1/4 273/1/4
f 273/1/4 274/1/4 275/1/4
f 275/1/4 276/1/4 277/1/4
f 277/1/4 278/1/4 279/1/4
f 279/1/4 280/1/4 281/1/4
f 281/1/4 282/1/4 283/1/4
f 283/1/4 284/1/4 285/1/4
f 285/1/4 286/1/4 287/1/4
f 287/1/4 288/1/4 289/1/4
f 289/1/4 290/1/4 291/1/4
f 291/1/4 292/1/4 293/1/4
f 293/1/4 294/1/4 295/1/4
f 295/1/4 296/1/4 297/1/4
f 297/1/4 298/1/4 299/1/4
f 299/1/4 300/1/4 301/1/4
f 301/1/4 302/1/4 303/1/4
f 303/1/4 304/1/4 305/1/4
f 305/1/4 306/1/4 307/1/4
f 305/1/4 307/1/4 309/1/4
f 307/1/4 308/1/4 309/1/4
f 309/1/4 308/1/4 310/1/4
f 303/1/4 305/1/4 311/1/4
f 305/1/4 309/1/4 311/1/4
f 311/1/4 309/1/4 312/1/4
f 301/1/4 303/1/4 313/1/4
f 303/1/4 311/1/4 313/1/4
f 313/1/4 311/1/4 314/1/4
f 299/1/4 301/1/4 315/1/4
f 301/1/4 313/1/4 315/1/4
f 315/1/4 313/1/4 316/1/4
f 297/1/4 299/1/4 317/1/4
f 299/1/4 315/1/4 317/1/4
f 317/1/4 315/1/4 318/1/4
f 295/1/4 297/1/4 319/1/4
f 297/1/4 317/1/4 319/1/4
f 319/1/4 317/1/4 320/1/4
f 293/1/4 295/1/4 321/1/4
f 295/1/4 319/1/4 321/1/4
f 321/1/4 319/1/4 322/1/4
f 291/1/4 293/1/4 323/1/4
f 293/1/4 321/1/4 323/1/4
f 323/1/4 321/1/4 324/1/4
f 289/1/4 291/1/4 325/1/4
f 291/1/4 323/1/4 325/1/4
f 325/1/4 323/1/4 326/1/4
f 287/1/4 289/1/4 327/1/4
f 289/1/4 325/1/4 327/1/4
f 327/1/4 325/1/4 328/1/4
f 285/1/4 287/1/4 329/1/4
f 287/1/4 327/1/4 329/1/4
f 329/1/4 327/1/4 330/1/4
f 283/1/4 285/1/4 331/1/4
f 285/1/4 329/1/4 331/1/4
f 331/1/4 329/1/4 332/1/4
f 281/1/4 283/1/4 333/1/4
f 283/1/4 331/1/4 333/1/4
f 333/1/4 331/1/4 334/1/4
f 279/1/4 281/1/4 335/1/4
f 281/1/4 333/1/4 335/1/4
f 335/1/4 333/1/4 336/1/4
f 277/1/4 279/1/4 337/1/4
f 279/1/4 335/1/4 337/1/4
f 337/1/4 335/1/4 338/1/4
f 275/1/4 277/1/4 339/1/4
f 277/1/4 337/1/4 339/1/4
f 339/1/4 337/1/4 340/1/4
f 273/1/4 275/1/4 341/1/4
f 275/1/4 339/1/4 341/1/4
f 341/1/4 339/1/4 342/1/4
f 271/1/4 273/1/4 343/1/4
f 273/1/4 341/1/4 343/1/4
f 343/1/4 341/1/4 344/1/4
f 269/1/4 271/1/4 345/1/4
f 271/1/4 343/1/4 345/1/4
f 345/1/4 343/1/4 346/1/4
f 267/1/4 269/1/4 347/1/4
f 269/1/4 345/1/4 347/1/4
f 347/1/4 345/1/4 348/1/4
f 265/1/4 267/1/4 349/1/4
f 267/1/4 347/1/4 349/1/4
f 349/1/4 347/1/4 350/1/4
f 265/1/4 349/1/4 351/1/4
f 351/1/4 349/1/4 352/1/4
f 355/1/5 354/1/5 353/1/5
f 356/1/5 354/1/5 355/1/5
f 357/1/6 358/1/6 359/1/6
f 359/1/6 358/1/6 360/1/6
f 357/1/6 359/1/6 361/1/6
f 361/1/6 359/1/6 362/1/6
f 360/1/6 358/1/6 363/1/6
f 363/1/6 358/1/6 364/1/6
f 365/1/6 366/1/6 367/1/6
f 367/1/6 366/1/6 368/1/6
f 365/1/6 367/1/6 369/1/6
f 369/1/6 367/1/6 370/1/6
f 368/1/6 366/1/6 371/1/6
f 371/1/6 366/1/6 372/1/6
f 373/1/6 374/1/6 375/1/6
f 375/1/6 374/1/6 376/1/6
f 373/1/6 375/1/6 377/1/6
f 377/1/6 375/1/6 378/1/6
f 376/1/6 374/1/6 379/1/6
f 379/1/6 374/1/6 380/1/6
f 381/1/6 382/1/6 383/1/6
f 383/1/6 382/1/6 384/1/6
f 381/1/6 383/1/6 385/1/6
f 385/1/6 383/1/6 386/1/6
f 384/1/6 382/1/6 387/1/6
f 387/1/6 382/1/6 388/1/6
f 389/1/6 390/1/6 391/1/6
f 391/1/6 390/1/6 392/1/6
f 389/1/6 391/1/6 393/1/6
f 393/1/6 391/1/6 394/1/6
f 392/1/6 390/1/6 395/1/6
f 395/1/6 390/1/6 396/1/6
f 397/1/6 398/1/6 399/1/6
f 399/1/6 398/1/6 400/1/6
f 397/1/6 399/1/6 401/1/6
f 401/1/6 399/1/6 402/1/6
f 400/1/6 398/1/6 403/1/6
f 403/1/6 398/1/6 404/1/6
f 405/1/6 406/1/6 407/1/6
f 407/1/6 406/1/6 408/1/6
f 405/1/6 407/1/6 409/1/6
f 409/1/6 407/1/6 410/1/6
f 408/1/6 406/1/6 411/1/6
f 411/1/6 406/1/6 412/1/6
f 413/1/6 414/1/6 415/1/6
f 415/1/6 414/1/6 416/1/6
f 413/1/6 415/1/6 417/1/6
f 417/1/6 415/1/6 418/1/6
f 416/1/6 414/1/6 419/1/6
f 419/1/6 414/1/6 420/1/6
f 421/1/6 422/1/6 423/1/6
f 423/1/6 422/1/6 424/1/6
f 421/1/6 423/1/6 425/1/6
f 425/1/6 423/1/6 426/1/6
f 424/1/6 422/1/6 427/1/6
f 427/1/6 422/1/6 428/1/6
f 429/1/6 430/1/6 431/1/6
f 431/1/6 430/1/6 432/1/6
f 429/1/6 431/1/6 433/1/6
f 433/1/6 431/1/6 434/1/6
f 432/1/6 430/1/6 435/1/6
f 435/1/6 430/1/6 436/1/6
f 437/1/6 438/1/6 439/1/6
f 439/1/6 438/1/6 440/1/6
f 437/1/6 439/1/6 441/1/6
f 441/1/6 439/1/6 442/1/6
f 440/1/6 438/1/6 443/1/6
f 443/1/6 438/1/6 444/1/6
f 445/1/6 446/1/6 447/1/6
f 447/1/6 446/1/6 448/1/6
f 445/1/6 447/1/6 449/1/6
f 449/1/6 447/1/6 450/1/6
f 448/1/6 446/1/6 451/1/6
f 451/1/6 446/1/6 452/1/6
f 453/1/6 454/1/6 455/1/6
f 455/1/6 454/1/6 456/1/6
f 453/1/6 455/1/6 457/1/6
f 457/1/6 455/1/6 458/1/6
f 456/1/6 454/1/6 459/1/6
f 459/1/6 454/1/6 460/1/6
f 461/1/6 462/1/6 463/1/6
f 463/1/6 462/1/6 464/1/6
f 461/1/6 463/1/6 465/1/6
f 465/1/6 463/1/6 466/1/6
f 464/1/6 462/1/6 467/1/6
f 467/1/6 462/1/6 468/1/6
f 469/1/6 470/1/6 471/1/6
f 471/1/6 470/1/6 472/1/6
f 469/1/6 471/1/6 473/1/6
f 473/1/6 471/1/6 474/1/6
f 472/1/6 470/1/6 475/1/6
f 475/1/6 470/1/6 476/1/6
f 477/1/6 478/1/6 479/1/6
f 479/1/6 478/1/6 480/1/6
f 477/1/6 479/1/6 481/1/6
f 481/1/6 479/1/6 482/1/6
f 480/1/6 478/1/6 483/1/6
f 483/1/6 478/1/6 484/1/6
f 485/1/6 486/1/6 487/1/6
f 487/1/6 486/1/6 488/1/6
f 485/1/6 487/1/6 489/1/6
f 489/1/6 487/1/6 490/1/6
f 488/1/6 486/1/6 491/1/6
f 491/1/6 486/1/6 492/1/6
f 493/1/6 494/1/6 495/1/6
f 495/1/6 494/1/6 496/1/6
f 493/1/6 495/1/6 497/1/6
f 497/1/6 495/1/6 498/1/6
f 496/1/6 494/1/6 499/1/6
f 499/1/6 494/1/6 500/1/6
f 501/1/6 502/1/6 503/1/6
f 503/1/6 502/1/6 504/1/6
f 501/1/6 503/1/6 505/1/6
f 505/1/6 503/1/6 506/1/6
f 504/1/6 502/1/6 507/1/6
f 507/1/6 502/1/6 508/1/6
f 509/1/6 510/1/6 511/1/6
f 511/1/6 510/1/6 512/1/6
f 509/1/6 511/1/6 513/1/6
f 513/1/6 511/1/6 514/1/6
f 512/1/6 510/1/6 515/1/6
f 515/1/6 510/1/6 516/1/6
f 517/1/6 518/1/6 519/1/6
f 519/1/6 518/1/6 520/1/6
f 517/1/6 519/1/6 521/1/6
f 521/1/6 519/1/6 522/1/6
f 520/1/6 518/1/6 523/1/6
f 523/1/6 518/1/6 524/1/6
f 525/1/6 526/1/6 527/1/6
f 527/1/6 526/1/6 528/1/6
