# MagicaVoxel @ Ephtracy

# group
o 

# material
mtllib gas station project-36.mtl
usemtl palette

# normals
vn -1 0 0
vn 1 0 0
vn 0 0 1
vn 0 0 -1
vn 0 -1 0
vn 0 1 0

# texcoords
vt 0.408203 0.5
vt 0.908203 0.5

# verts
v 33.5 1.5 36.4
v 33.5 1.5 21.5
v 33.5 2.7 35.2
v 33.5 2.7 21.5
v 33.5 6 35.2
v 33.5 6 21.5
v 33.5 7.9 36.4
v 33.5 7.9 21.5
v 33.6 2.7 31.7
v 33.6 2.7 31.4
v 33.6 2.7 27.8
v 33.6 2.7 27.5
v 33.6 2.7 23.9
v 33.6 2.7 23.6
v 33.6 6 31.7
v 33.6 6 31.4
v 33.6 6 27.8
v 33.6 6 27.5
v 33.6 6 23.9
v 33.6 6 23.6
v 33.7 2.7 35.2
v 33.7 2.7 31.7
v 33.7 2.7 31.4
v 33.7 2.7 27.8
v 33.7 2.7 27.5
v 33.7 2.7 23.9
v 33.7 2.7 23.6
v 33.7 2.7 21.5
v 33.7 2.7 21.4
v 33.7 6 35.2
v 33.7 6 31.7
v 33.7 6 31.4
v 33.7 6 27.8
v 33.7 6 27.5
v 33.7 6 23.9
v 33.7 6 23.6
v 33.7 6 21.5
v 33.7 6 21.4
v 48.6 1.6 35.8
v 48.6 1.6 21.5
v 48.6 6 35.8
v 48.6 6 21.5
v 33.8 2.7 35.2
v 33.8 2.7 21.5
v 33.8 2.7 21.4
v 33.8 6 35.2
v 33.8 6 21.5
v 33.8 6 21.4
v 34.1 1.6 35.8
v 34.1 1.6 21.5
v 34.1 2.7 35.2
v 34.1 2.7 21.5
v 34.1 6 35.8
v 34.1 6 35.2
v 49.2 1.5 36.4
v 49.2 1.5 21.5
v 49.2 7.9 36.4
v 49.2 7.9 21.5
v 33.5 1.5 36.4
v 33.5 7.9 36.4
v 49.2 1.5 36.4
v 49.2 7.9 36.4
v 33.6 2.7 31.7
v 33.6 6 31.7
v 33.7 2.7 31.7
v 33.7 6 31.7
v 33.6 2.7 27.8
v 33.6 6 27.8
v 33.7 2.7 27.8
v 33.7 6 27.8
v 33.6 2.7 23.9
v 33.6 6 23.9
v 33.7 2.7 23.9
v 33.7 6 23.9
v 34.1 1.6 35.8
v 34.1 6 35.8
v 48.6 1.6 35.8
v 48.6 6 35.8
v 33.5 2.7 35.2
v 33.5 6 35.2
v 33.7 2.7 35.2
v 33.7 6 35.2
v 33.8 2.7 35.2
v 33.8 6 35.2
v 34.1 2.7 35.2
v 34.1 6 35.2
v 33.6 2.7 31.4
v 33.6 6 31.4
v 33.7 2.7 31.4
v 33.7 6 31.4
v 33.6 2.7 27.5
v 33.6 6 27.5
v 33.7 2.7 27.5
v 33.7 6 27.5
v 33.6 2.7 23.6
v 33.6 6 23.6
v 33.7 2.7 23.6
v 33.7 6 23.6
v 33.5 1.5 21.5
v 33.5 2.7 21.5
v 33.5 6 21.5
v 33.5 7.9 21.5
v 33.7 2.7 21.5
v 33.7 6 21.5
v 33.8 2.7 21.5
v 33.8 6 21.5
v 34.1 1.6 21.5
v 34.1 2.7 21.5
v 48.6 1.6 21.5
v 48.6 6 21.5
v 49.2 1.5 21.5
v 49.2 7.9 21.5
v 33.7 2.7 21.4
v 33.7 6 21.4
v 33.8 2.7 21.4
v 33.8 6 21.4
v 33.5 1.5 36.4
v 49.2 1.5 36.4
v 33.5 1.5 21.5
v 49.2 1.5 21.5
v 33.7 2.7 21.5
v 33.8 2.7 21.5
v 33.7 2.7 21.4
v 33.8 2.7 21.4
v 34.1 6 35.8
v 48.6 6 35.8
v 33.5 6 35.2
v 33.7 6 35.2
v 33.8 6 35.2
v 34.1 6 35.2
v 33.6 6 31.7
v 33.7 6 31.7
v 33.6 6 31.4
v 33.7 6 31.4
v 33.6 6 27.8
v 33.7 6 27.8
v 33.6 6 27.5
v 33.7 6 27.5
v 33.6 6 23.9
v 33.7 6 23.9
v 33.6 6 23.6
v 33.7 6 23.6
v 33.5 6 21.5
v 33.7 6 21.5
v 33.8 6 21.5
v 48.6 6 21.5
v 34.1 1.6 35.8
v 48.6 1.6 35.8
v 34.1 1.6 21.5
v 48.6 1.6 21.5
v 33.5 2.7 35.2
v 33.7 2.7 35.2
v 33.8 2.7 35.2
v 34.1 2.7 35.2
v 33.6 2.7 31.7
v 33.7 2.7 31.7
v 33.6 2.7 31.4
v 33.7 2.7 31.4
v 33.6 2.7 27.8
v 33.7 2.7 27.8
v 33.6 2.7 27.5
v 33.7 2.7 27.5
v 33.6 2.7 23.9
v 33.7 2.7 23.9
v 33.6 2.7 23.6
v 33.7 2.7 23.6
v 33.5 2.7 21.5
v 33.7 2.7 21.5
v 33.8 2.7 21.5
v 34.1 2.7 21.5
v 33.7 6 21.5
v 33.8 6 21.5
v 33.7 6 21.4
v 33.8 6 21.4
v 33.5 7.9 36.4
v 49.2 7.9 36.4
v 33.5 7.9 21.5
v 49.2 7.9 21.5

# faces
f 3/2/1 2/2/1 1/2/1
f 4/2/1 2/2/1 3/2/1
f 5/2/1 3/2/1 1/2/1
f 7/2/1 5/2/1 1/2/1
f 7/2/1 6/2/1 5/2/1
f 8/2/1 6/2/1 7/2/1
f 15/2/1 10/2/1 9/2/1
f 16/2/1 10/2/1 15/2/1
f 17/2/1 12/2/1 11/2/1
f 18/2/1 12/2/1 17/2/1
f 19/2/1 14/2/1 13/2/1
f 20/2/1 14/2/1 19/2/1
f 30/1/1 22/1/1 21/1/1
f 31/1/1 22/1/1 30/1/1
f 32/1/1 24/1/1 23/1/1
f 33/1/1 24/1/1 32/1/1
f 34/1/1 26/1/1 25/1/1
f 35/1/1 26/1/1 34/1/1
f 36/1/1 29/1/1 28/1/1
f 36/1/1 28/1/1 27/1/1
f 37/1/1 29/1/1 36/1/1
f 38/1/1 29/1/1 37/1/1
f 41/2/1 40/2/1 39/2/1
f 42/2/1 40/2/1 41/2/1
f 43/1/2 44/1/2 46/1/2
f 44/1/2 45/1/2 46/1/2
f 46/1/2 45/1/2 47/1/2
f 47/1/2 45/1/2 48/1/2
f 49/2/2 50/2/2 51/2/2
f 51/2/2 50/2/2 52/2/2
f 49/2/2 51/2/2 53/2/2
f 53/2/2 51/2/2 54/2/2
f 55/2/2 56/2/2 57/2/2
f 57/2/2 56/2/2 58/2/2
f 61/2/3 60/2/3 59/2/3
f 62/2/3 60/2/3 61/2/3
f 65/2/3 64/2/3 63/2/3
f 66/2/3 64/2/3 65/2/3
f 69/2/3 68/2/3 67/2/3
f 70/2/3 68/2/3 69/2/3
f 73/2/3 72/2/3 71/2/3
f 74/2/3 72/2/3 73/2/3
f 75/2/4 76/2/4 77/2/4
f 77/2/4 76/2/4 78/2/4
f 79/2/4 80/2/4 81/2/4
f 81/2/4 80/2/4 82/2/4
f 83/2/4 84/2/4 85/2/4
f 85/2/4 84/2/4 86/2/4
f 87/2/4 88/2/4 89/2/4
f 89/2/4 88/2/4 90/2/4
f 91/2/4 92/2/4 93/2/4
f 93/2/4 92/2/4 94/2/4
f 95/2/4 96/2/4 97/2/4
f 97/2/4 96/2/4 98/2/4
f 99/2/4 100/2/4 103/2/4
f 101/2/4 102/2/4 104/2/4
f 99/2/4 103/2/4 105/2/4
f 104/2/4 102/2/4 106/2/4
f 99/2/4 105/2/4 107/2/4
f 107/2/4 105/2/4 108/2/4
f 99/2/4 107/2/4 109/2/4
f 106/2/4 102/2/4 110/2/4
f 99/2/4 109/2/4 111/2/4
f 109/2/4 110/2/4 111/2/4
f 110/2/4 102/2/4 112/2/4
f 111/2/4 110/2/4 112/2/4
f 113/1/4 114/1/4 115/1/4
f 115/1/4 114/1/4 116/1/4
f 119/2/5 118/2/5 117/2/5
f 120/2/5 118/2/5 119/2/5
f 123/1/5 122/1/5 121/1/5
f 124/1/5 122/1/5 123/1/5
f 130/2/5 126/2/5 125/2/5
f 131/2/5 128/2/5 127/2/5
f 132/2/5 128/2/5 131/2/5
f 133/2/5 131/2/5 127/2/5
f 135/2/5 133/2/5 127/2/5
f 135/2/5 134/2/5 133/2/5
f 136/2/5 134/2/5 135/2/5
f 137/2/5 135/2/5 127/2/5
f 139/2/5 137/2/5 127/2/5
f 139/2/5 138/2/5 137/2/5
f 140/2/5 138/2/5 139/2/5
f 141/2/5 139/2/5 127/2/5
f 143/2/5 141/2/5 127/2/5
f 143/2/5 142/2/5 141/2/5
f 144/2/5 142/2/5 143/2/5
f 145/2/5 130/2/5 129/2/5
f 146/2/5 126/2/5 130/2/5
f 146/2/5 130/2/5 145/2/5
f 147/2/6 148/2/6 149/2/6
f 149/2/6 148/2/6 150/2/6
f 151/2/6 152/2/6 155/2/6
f 155/2/6 152/2/6 156/2/6
f 151/2/6 155/2/6 157/2/6
f 151/2/6 157/2/6 159/2/6
f 157/2/6 158/2/6 159/2/6
f 159/2/6 158/2/6 160/2/6
f 151/2/6 159/2/6 161/2/6
f 151/2/6 161/2/6 163/2/6
f 161/2/6 162/2/6 163/2/6
f 163/2/6 162/2/6 164/2/6
f 151/2/6 163/2/6 165/2/6
f 151/2/6 165/2/6 167/2/6
f 165/2/6 166/2/6 167/2/6
f 167/2/6 166/2/6 168/2/6
f 153/2/6 154/2/6 169/2/6
f 169/2/6 154/2/6 170/2/6
f 171/1/6 172/1/6 173/1/6
f 173/1/6 172/1/6 174/1/6
f 175/2/6 176/2/6 177/2/6
f 177/2/6 176/2/6 178/2/6
