# MagicaVoxel @ Ephtracy

# group
o 

# material
mtllib gas station project-13.mtl
usemtl palette

# normals
vn -1 0 0
vn 1 0 0
vn 0 0 1
vn 0 0 -1
vn 0 -1 0
vn 0 1 0

# texcoords
vt 0.251953 0.5
vt 0.908203 0.5

# verts
v 12.8 1.4 -12.8
v 12.8 1.4 -38.4
v 12.8 1.5 -12.8
v 12.8 1.5 -38.4
v 38.4 1.4 -12.8
v 38.4 1.4 -38.4
v 38.4 1.5 -12.8
v 38.4 1.5 -38.4
v 12.8 1.4 -12.8
v 12.8 1.5 -12.8
v 38.4 1.4 -12.8
v 38.4 1.5 -12.8
v 12.8 1.4 -38.4
v 12.8 1.5 -38.4
v 38.4 1.4 -38.4
v 38.4 1.5 -38.4
v 12.8 1.4 -12.8
v 38.4 1.4 -12.8
v 24.8 1.4 -13
v 37.6 1.4 -13
v 25 1.4 -13.2
v 37.4 1.4 -13.2
v 24.8 1.4 -13.4
v 25 1.4 -13.4
v 24.8 1.4 -18.4
v 25 1.4 -18.4
v 25 1.4 -18.6
v 37.4 1.4 -18.6
v 25 1.4 -18.8
v 37.4 1.4 -18.8
v 24.8 1.4 -19
v 25 1.4 -19
v 24.8 1.4 -24
v 25 1.4 -24
v 25 1.4 -24.2
v 37.4 1.4 -24.2
v 25 1.4 -24.4
v 37.4 1.4 -24.4
v 24.8 1.4 -24.6
v 25 1.4 -24.6
v 24.8 1.4 -29.6
v 25 1.4 -29.6
v 25 1.4 -29.8
v 37.4 1.4 -29.8
v 25 1.4 -30
v 37.4 1.4 -30
v 24.8 1.4 -30.2
v 25 1.4 -30.2
v 24.8 1.4 -35.2
v 25 1.4 -35.2
v 25 1.4 -35.4
v 37.4 1.4 -35.4
v 24.8 1.4 -35.6
v 37.6 1.4 -35.6
v 12.8 1.4 -38.4
v 38.4 1.4 -38.4
v 12.8 1.5 -12.8
v 38.4 1.5 -12.8
v 24.8 1.5 -13
v 37.6 1.5 -13
v 25 1.5 -13.2
v 37.4 1.5 -13.2
v 24.8 1.5 -13.4
v 25 1.5 -13.4
v 24.8 1.5 -18.4
v 25 1.5 -18.4
v 25 1.5 -18.6
v 37.4 1.5 -18.6
v 25 1.5 -18.8
v 37.4 1.5 -18.8
v 24.8 1.5 -19
v 25 1.5 -19
v 24.8 1.5 -24
v 25 1.5 -24
v 25 1.5 -24.2
v 37.4 1.5 -24.2
v 25 1.5 -24.4
v 37.4 1.5 -24.4
v 24.8 1.5 -24.6
v 25 1.5 -24.6
v 24.8 1.5 -29.6
v 25 1.5 -29.6
v 25 1.5 -29.8
v 37.4 1.5 -29.8
v 25 1.5 -30
v 37.4 1.5 -30
v 24.8 1.5 -30.2
v 25 1.5 -30.2
v 24.8 1.5 -35.2
v 25 1.5 -35.2
v 25 1.5 -35.4
v 37.4 1.5 -35.4
v 24.8 1.5 -35.6
v 37.6 1.5 -35.6
v 12.8 1.5 -38.4
v 38.4 1.5 -38.4

# faces
f 3/2/1 2/2/1 1/2/1
f 4/2/1 2/2/1 3/2/1
f 5/2/2 6/2/2 7/2/2
f 7/2/2 6/2/2 8/2/2
f 11/2/3 10/2/3 9/2/3
f 12/2/3 10/2/3 11/2/3
f 13/2/4 14/2/4 15/2/4
f 15/2/4 14/2/4 16/2/4
f 19/2/5 18/2/5 17/2/5
f 20/2/5 18/2/5 19/2/5
f 21/1/5 20/1/5 19/1/5
f 22/1/5 20/1/5 21/1/5
f 23/2/5 19/2/5 17/2/5
f 23/1/5 21/1/5 19/1/5
f 24/2/5 22/2/5 21/2/5
f 24/1/5 21/1/5 23/1/5
f 25/2/5 23/2/5 17/2/5
f 25/2/5 24/2/5 23/2/5
f 26/2/5 22/2/5 24/2/5
f 26/2/5 24/2/5 25/2/5
f 27/1/5 26/1/5 25/1/5
f 27/2/5 22/2/5 26/2/5
f 28/1/5 20/1/5 22/1/5
f 28/2/5 22/2/5 27/2/5
f 29/1/5 27/1/5 25/1/5
f 29/1/5 28/1/5 27/1/5
f 30/1/5 20/1/5 28/1/5
f 30/1/5 28/1/5 29/1/5
f 31/1/5 29/1/5 25/1/5
f 31/2/5 25/2/5 17/2/5
f 32/2/5 30/2/5 29/2/5
f 32/1/5 29/1/5 31/1/5
f 33/2/5 31/2/5 17/2/5
f 33/2/5 32/2/5 31/2/5
f 34/2/5 30/2/5 32/2/5
f 34/2/5 32/2/5 33/2/5
f 35/1/5 34/1/5 33/1/5
f 35/2/5 30/2/5 34/2/5
f 36/1/5 20/1/5 30/1/5
f 36/2/5 30/2/5 35/2/5
f 37/1/5 35/1/5 33/1/5
f 37/1/5 36/1/5 35/1/5
f 38/1/5 20/1/5 36/1/5
f 38/1/5 36/1/5 37/1/5
f 39/1/5 37/1/5 33/1/5
f 39/2/5 33/2/5 17/2/5
f 40/2/5 38/2/5 37/2/5
f 40/1/5 37/1/5 39/1/5
f 41/2/5 39/2/5 17/2/5
f 41/2/5 40/2/5 39/2/5
f 42/2/5 38/2/5 40/2/5
f 42/2/5 40/2/5 41/2/5
f 43/1/5 42/1/5 41/1/5
f 43/2/5 38/2/5 42/2/5
f 44/1/5 20/1/5 38/1/5
f 44/2/5 38/2/5 43/2/5
f 45/1/5 43/1/5 41/1/5
f 45/1/5 44/1/5 43/1/5
f 46/1/5 20/1/5 44/1/5
f 46/1/5 44/1/5 45/1/5
f 47/1/5 45/1/5 41/1/5
f 47/2/5 41/2/5 17/2/5
f 48/2/5 46/2/5 45/2/5
f 48/1/5 45/1/5 47/1/5
f 49/2/5 47/2/5 17/2/5
f 49/2/5 48/2/5 47/2/5
f 50/2/5 46/2/5 48/2/5
f 50/2/5 48/2/5 49/2/5
f 51/1/5 50/1/5 49/1/5
f 51/2/5 46/2/5 50/2/5
f 52/1/5 20/1/5 46/1/5
f 52/2/5 46/2/5 51/2/5
f 53/1/5 51/1/5 49/1/5
f 53/2/5 49/2/5 17/2/5
f 53/1/5 52/1/5 51/1/5
f 54/1/5 20/1/5 52/1/5
f 54/1/5 52/1/5 53/1/5
f 54/2/5 18/2/5 20/2/5
f 55/2/5 53/2/5 17/2/5
f 55/2/5 54/2/5 53/2/5
f 56/2/5 18/2/5 54/2/5
f 56/2/5 54/2/5 55/2/5
f 57/2/6 58/2/6 59/2/6
f 59/2/6 58/2/6 60/2/6
f 59/1/6 60/1/6 61/1/6
f 61/1/6 60/1/6 62/1/6
f 57/2/6 59/2/6 63/2/6
f 59/1/6 61/1/6 63/1/6
f 61/2/6 62/2/6 64/2/6
f 63/1/6 61/1/6 64/1/6
f 57/2/6 63/2/6 65/2/6
f 63/2/6 64/2/6 65/2/6
f 64/2/6 62/2/6 66/2/6
f 65/2/6 64/2/6 66/2/6
f 65/1/6 66/1/6 67/1/6
f 66/2/6 62/2/6 67/2/6
f 62/1/6 60/1/6 68/1/6
f 67/2/6 62/2/6 68/2/6
f 65/1/6 67/1/6 69/1/6
f 67/1/6 68/1/6 69/1/6
f 68/1/6 60/1/6 70/1/6
f 69/1/6 68/1/6 70/1/6
f 65/1/6 69/1/6 71/1/6
f 57/2/6 65/2/6 71/2/6
f 69/2/6 70/2/6 72/2/6
f 71/1/6 69/1/6 72/1/6
f 57/2/6 71/2/6 73/2/6
f 71/2/6 72/2/6 73/2/6
f 72/2/6 70/2/6 74/2/6
f 73/2/6 72/2/6 74/2/6
f 73/1/6 74/1/6 75/1/6
f 74/2/6 70/2/6 75/2/6
f 70/1/6 60/1/6 76/1/6
f 75/2/6 70/2/6 76/2/6
f 73/1/6 75/1/6 77/1/6
f 75/1/6 76/1/6 77/1/6
f 76/1/6 60/1/6 78/1/6
f 77/1/6 76/1/6 78/1/6
f 73/1/6 77/1/6 79/1/6
f 57/2/6 73/2/6 79/2/6
f 77/2/6 78/2/6 80/2/6
f 79/1/6 77/1/6 80/1/6
f 57/2/6 79/2/6 81/2/6
f 79/2/6 80/2/6 81/2/6
f 80/2/6 78/2/6 82/2/6
f 81/2/6 80/2/6 82/2/6
f 81/1/6 82/1/6 83/1/6
f 82/2/6 78/2/6 83/2/6
f 78/1/6 60/1/6 84/1/6
f 83/2/6 78/2/6 84/2/6
f 81/1/6 83/1/6 85/1/6
f 83/1/6 84/1/6 85/1/6
f 84/1/6 60/1/6 86/1/6
f 85/1/6 84/1/6 86/1/6
f 81/1/6 85/1/6 87/1/6
f 57/2/6 81/2/6 87/2/6
f 85/2/6 86/2/6 88/2/6
f 87/1/6 85/1/6 88/1/6
f 57/2/6 87/2/6 89/2/6
f 87/2/6 88/2/6 89/2/6
f 88/2/6 86/2/6 90/2/6
f 89/2/6 88/2/6 90/2/6
f 89/1/6 90/1/6 91/1/6
f 90/2/6 86/2/6 91/2/6
f 86/1/6 60/1/6 92/1/6
f 91/2/6 86/2/6 92/2/6
f 89/1/6 91/1/6 93/1/6
f 57/2/6 89/2/6 93/2/6
f 91/1/6 92/1/6 93/1/6
f 92/1/6 60/1/6 94/1/6
f 93/1/6 92/1/6 94/1/6
f 60/2/6 58/2/6 94/2/6
f 57/2/6 93/2/6 95/2/6
f 93/2/6 94/2/6 95/2/6
f 94/2/6 58/2/6 96/2/6
f 95/2/6 94/2/6 96/2/6
